STARTFONT 2.1
COMMENT AUTOMATICALLY GENERATED FILE. DO NOT EDIT!
COMMENT Generated with 'any2ucs.pl maru10.bdf JIS0208x.TXT'
COMMENT from a(n) jisx0208.1983-0 encoded source BDF font.
COMMENT any2ucs.pl is based on ucs2any.pl by Markus Kuhn <mkuhn@acm.org>, 2000.
COMMENT maru10.bdf Ver.1.1 (1999.5.30)
COMMENT Copyright 1998, 1999 (c) NAGAO, Sadakazu.  All rights reserved.
COMMENT E-mail: snagao@tkb.att.ne.jp
FONT -NagaMaru-Fixed-Medium-R-Normal--10-90-75-75-C-100-jisx0208.1983-0
SIZE 10 75 75
FONTBOUNDINGBOX 10 10 0 -2
STARTPROPERTIES 19
FONTNAME_REGISTRY ""
FOUNDRY "NagaMaru"
FAMILY_NAME "Fixed"
WEIGHT_NAME "Medium"
SLANT "R"
SETWIDTH_NAME "Normal"
ADD_STYLE_NAME ""
PIXEL_SIZE 10
POINT_SIZE 90
RESOLUTION_X 75
RESOLUTION_Y 75
SPACING "C"
AVERAGE_WIDTH 100
CHARSET_REGISTRY "ISO10646"
CHARSET_ENCODING "1"
DEFAULT_CHAR 0
FONT_DESCENT 2
FONT_ASCENT 8
COPYRIGHT "Copyright 1998, 1999 (c) NAGAO, Sadakazu.  All rights reserved."
ENDPROPERTIES
CHARS 6553
STARTCHAR defaultchar
ENCODING 12288
SWIDTH 960 0
DWIDTH 10 0
BBX 10 10 0 -2
BITMAP
0000
0000
0000
0000
0000
0000
0000
0000
0000
0000
ENDCHAR
STARTCHAR 2122
ENCODING 12289
SWIDTH 960 0
DWIDTH 10 0
BBX 10 10 0 -2
BITMAP
0000
0000
0000
0000
0000
0000
6000
1000
1000
0000
ENDCHAR
STARTCHAR 2123
ENCODING 12290
SWIDTH 960 0
DWIDTH 10 0
BBX 10 10 0 -2
BITMAP
0000
0000
0000
0000
0000
3000
4800
4800
3000
0000
ENDCHAR
STARTCHAR 2137
ENCODING 12291
SWIDTH 960 0
DWIDTH 10 0
BBX 10 10 0 -2
BITMAP
0000
0000
0900
0900
0900
1200
1200
0000
0000
0000
ENDCHAR
STARTCHAR 2139
ENCODING 12293
SWIDTH 960 0
DWIDTH 10 0
BBX 10 10 0 -2
BITMAP
0000
0000
0E00
1100
1100
2200
0C00
0200
0000
0000
ENDCHAR
STARTCHAR 213a
ENCODING 12294
SWIDTH 960 0
DWIDTH 10 0
BBX 10 10 0 -2
BITMAP
0000
0080
0100
3A00
4400
4A00
5100
6000
4000
0000
ENDCHAR
STARTCHAR 213b
ENCODING 12295
SWIDTH 960 0
DWIDTH 10 0
BBX 10 10 0 -2
BITMAP
0000
0E00
3180
4040
4040
4040
3180
0E00
0000
0000
ENDCHAR
STARTCHAR 2152
ENCODING 12296
SWIDTH 960 0
DWIDTH 10 0
BBX 10 10 0 -2
BITMAP
0080
0080
0100
0100
0200
0100
0100
0080
0080
0000
ENDCHAR
STARTCHAR 2153
ENCODING 12297
SWIDTH 960 0
DWIDTH 10 0
BBX 10 10 0 -2
BITMAP
2000
2000
1000
1000
0800
1000
1000
2000
2000
0000
ENDCHAR
STARTCHAR 2154
ENCODING 12298
SWIDTH 960 0
DWIDTH 10 0
BBX 10 10 0 -2
BITMAP
0140
0140
0280
0280
0500
0280
0280
0140
0140
0000
ENDCHAR
STARTCHAR 2155
ENCODING 12299
SWIDTH 960 0
DWIDTH 10 0
BBX 10 10 0 -2
BITMAP
2800
2800
1400
1400
0A00
1400
1400
2800
2800
0000
ENDCHAR
STARTCHAR 2156
ENCODING 12300
SWIDTH 960 0
DWIDTH 10 0
BBX 10 10 0 -2
BITMAP
01C0
0200
0200
0200
0200
0200
0200
0000
0000
0000
ENDCHAR
STARTCHAR 2157
ENCODING 12301
SWIDTH 960 0
DWIDTH 10 0
BBX 10 10 0 -2
BITMAP
0000
0000
0800
0800
0800
0800
0800
0800
7000
0000
ENDCHAR
STARTCHAR 2158
ENCODING 12302
SWIDTH 960 0
DWIDTH 10 0
BBX 10 10 0 -2
BITMAP
0380
0440
0580
0500
0500
0500
0500
0200
0000
0000
ENDCHAR
STARTCHAR 2159
ENCODING 12303
SWIDTH 960 0
DWIDTH 10 0
BBX 10 10 0 -2
BITMAP
0000
0800
1400
1400
1400
1400
3400
4400
3800
0000
ENDCHAR
STARTCHAR 215a
ENCODING 12304
SWIDTH 960 0
DWIDTH 10 0
BBX 10 10 0 -2
BITMAP
03C0
0380
0300
0200
0200
0200
0300
0380
03C0
0000
ENDCHAR
STARTCHAR 215b
ENCODING 12305
SWIDTH 960 0
DWIDTH 10 0
BBX 10 10 0 -2
BITMAP
7800
3800
1800
0800
0800
0800
1800
3800
7800
0000
ENDCHAR
STARTCHAR 2229
ENCODING 12306
SWIDTH 960 0
DWIDTH 10 0
BBX 10 10 0 -2
BITMAP
0000
3F80
0000
3F80
0400
0400
0400
0400
0000
0000
ENDCHAR
STARTCHAR 222e
ENCODING 12307
SWIDTH 960 0
DWIDTH 10 0
BBX 10 10 0 -2
BITMAP
0000
0000
7F80
7F80
0000
0000
7F80
7F80
0000
0000
ENDCHAR
STARTCHAR 214c
ENCODING 12308
SWIDTH 960 0
DWIDTH 10 0
BBX 10 10 0 -2
BITMAP
0180
0600
0400
0400
0400
0400
0400
0600
0180
0000
ENDCHAR
STARTCHAR 214d
ENCODING 12309
SWIDTH 960 0
DWIDTH 10 0
BBX 10 10 0 -2
BITMAP
3000
0C00
0400
0400
0400
0400
0400
0C00
3000
0000
ENDCHAR
STARTCHAR 2141
ENCODING 12316
SWIDTH 960 0
DWIDTH 10 0
BBX 10 10 0 -2
BITMAP
0000
0000
0000
3840
4440
4380
0000
0000
0000
0000
ENDCHAR
STARTCHAR 2421
ENCODING 12353
SWIDTH 960 0
DWIDTH 10 0
BBX 10 10 0 -2
BITMAP
0000
0000
1000
7C00
1000
3D00
5600
5900
3100
0000
ENDCHAR
STARTCHAR 2422
ENCODING 12354
SWIDTH 960 0
DWIDTH 10 0
BBX 10 10 0 -2
BITMAP
1000
7F00
1000
1E80
3100
5280
5480
4880
3100
0000
ENDCHAR
STARTCHAR 2423
ENCODING 12355
SWIDTH 960 0
DWIDTH 10 0
BBX 10 10 0 -2
BITMAP
0000
0000
0000
0000
2200
2100
2000
2200
1C00
0000
ENDCHAR
STARTCHAR 2424
ENCODING 12356
SWIDTH 960 0
DWIDTH 10 0
BBX 10 10 0 -2
BITMAP
0000
4000
4100
4080
4080
4080
4080
4400
3800
0000
ENDCHAR
STARTCHAR 2425
ENCODING 12357
SWIDTH 960 0
DWIDTH 10 0
BBX 10 10 0 -2
BITMAP
0000
0000
0800
0400
3E00
0500
0100
0200
0C00
0000
ENDCHAR
STARTCHAR 2426
ENCODING 12358
SWIDTH 960 0
DWIDTH 10 0
BBX 10 10 0 -2
BITMAP
0800
0400
1E00
6500
0480
0080
0080
0100
0E00
0000
ENDCHAR
STARTCHAR 2427
ENCODING 12359
SWIDTH 960 0
DWIDTH 10 0
BBX 10 10 0 -2
BITMAP
0000
0000
0800
0400
3E00
0500
0200
0C80
3300
0000
ENDCHAR
STARTCHAR 2428
ENCODING 12360
SWIDTH 960 0
DWIDTH 10 0
BBX 10 10 0 -2
BITMAP
0800
0400
1F00
6480
0100
0600
0800
1480
6300
0000
ENDCHAR
STARTCHAR 2429
ENCODING 12361
SWIDTH 960 0
DWIDTH 10 0
BBX 10 10 0 -2
BITMAP
0000
0000
0800
7C00
0800
1E80
2900
4B00
3100
0000
ENDCHAR
STARTCHAR 242a
ENCODING 12362
SWIDTH 960 0
DWIDTH 10 0
BBX 10 10 0 -2
BITMAP
0800
7E00
0800
1E80
2900
4A80
4880
4880
3100
0000
ENDCHAR
STARTCHAR 242b
ENCODING 12363
SWIDTH 960 0
DWIDTH 10 0
BBX 10 10 0 -2
BITMAP
0800
0800
7C00
1200
1100
27C0
2100
4100
4200
0000
ENDCHAR
STARTCHAR 242c
ENCODING 12364
SWIDTH 960 0
DWIDTH 10 0
BBX 10 10 0 -2
BITMAP
0940
0940
7C00
1200
1100
27C0
2100
4100
4200
0000
ENDCHAR
STARTCHAR 242d
ENCODING 12365
SWIDTH 960 0
DWIDTH 10 0
BBX 10 10 0 -2
BITMAP
0200
7F80
0200
7F80
0200
3E00
4200
4080
3F00
0000
ENDCHAR
STARTCHAR 242e
ENCODING 12366
SWIDTH 960 0
DWIDTH 10 0
BBX 10 10 0 -2
BITMAP
0540
7F40
0200
7F80
0200
3E00
4200
4080
3F00
0000
ENDCHAR
STARTCHAR 242f
ENCODING 12367
SWIDTH 960 0
DWIDTH 10 0
BBX 10 10 0 -2
BITMAP
0300
0400
0800
1000
1000
1000
0800
0400
0300
0000
ENDCHAR
STARTCHAR 2430
ENCODING 12368
SWIDTH 960 0
DWIDTH 10 0
BBX 10 10 0 -2
BITMAP
0600
0800
1140
2140
2000
2000
1000
0800
0600
0000
ENDCHAR
STARTCHAR 2431
ENCODING 12369
SWIDTH 960 0
DWIDTH 10 0
BBX 10 10 0 -2
BITMAP
0100
4100
5F80
4100
4100
4100
4100
1100
0E00
0000
ENDCHAR
STARTCHAR 2432
ENCODING 12370
SWIDTH 960 0
DWIDTH 10 0
BBX 10 10 0 -2
BITMAP
0140
4140
5E80
4100
4100
4100
4100
1100
0E00
0000
ENDCHAR
STARTCHAR 2433
ENCODING 12371
SWIDTH 960 0
DWIDTH 10 0
BBX 10 10 0 -2
BITMAP
0000
3E00
0100
0100
0200
2000
4000
4080
3F00
0000
ENDCHAR
STARTCHAR 2434
ENCODING 12372
SWIDTH 960 0
DWIDTH 10 0
BBX 10 10 0 -2
BITMAP
0140
3E40
0100
0100
0200
2000
4000
4080
3F00
0000
ENDCHAR
STARTCHAR 2435
ENCODING 12373
SWIDTH 960 0
DWIDTH 10 0
BBX 10 10 0 -2
BITMAP
0200
7F80
0200
1E00
2200
4000
4000
2080
1F00
0000
ENDCHAR
STARTCHAR 2436
ENCODING 12374
SWIDTH 960 0
DWIDTH 10 0
BBX 10 10 0 -2
BITMAP
0540
7D40
0200
1E00
2200
4000
4000
2080
1F00
0000
ENDCHAR
STARTCHAR 2437
ENCODING 12375
SWIDTH 960 0
DWIDTH 10 0
BBX 10 10 0 -2
BITMAP
0000
2000
2000
2000
2080
2080
2080
1100
0E00
0000
ENDCHAR
STARTCHAR 2438
ENCODING 12376
SWIDTH 960 0
DWIDTH 10 0
BBX 10 10 0 -2
BITMAP
0140
2140
2000
2000
2080
2080
2080
1100
0E00
0000
ENDCHAR
STARTCHAR 2439
ENCODING 12377
SWIDTH 960 0
DWIDTH 10 0
BBX 10 10 0 -2
BITMAP
0200
7FC0
0200
0E00
1100
1100
0E00
0200
0400
0000
ENDCHAR
STARTCHAR 243a
ENCODING 12378
SWIDTH 960 0
DWIDTH 10 0
BBX 10 10 0 -2
BITMAP
0140
7D40
0200
0E00
1100
1100
0E00
0200
0400
0000
ENDCHAR
STARTCHAR 243b
ENCODING 12379
SWIDTH 960 0
DWIDTH 10 0
BBX 10 10 0 -2
BITMAP
2100
2100
7F80
2100
2900
2600
2000
1080
0F00
0000
ENDCHAR
STARTCHAR 243c
ENCODING 12380
SWIDTH 960 0
DWIDTH 10 0
BBX 10 10 0 -2
BITMAP
2140
2140
7E80
2100
2900
2600
2000
1080
0F00
0000
ENDCHAR
STARTCHAR 243d
ENCODING 12381
SWIDTH 960 0
DWIDTH 10 0
BBX 10 10 0 -2
BITMAP
3C00
0200
0400
7F80
1000
2000
2000
1080
0F00
0000
ENDCHAR
STARTCHAR 243e
ENCODING 12382
SWIDTH 960 0
DWIDTH 10 0
BBX 10 10 0 -2
BITMAP
3D40
0340
0400
7F80
1000
2000
2000
1080
0F00
0000
ENDCHAR
STARTCHAR 243f
ENCODING 12383
SWIDTH 960 0
DWIDTH 10 0
BBX 10 10 0 -2
BITMAP
1000
7800
1780
2040
2080
4400
4800
0800
07C0
0000
ENDCHAR
STARTCHAR 2440
ENCODING 12384
SWIDTH 960 0
DWIDTH 10 0
BBX 10 10 0 -2
BITMAP
1140
7940
1780
2040
2080
4400
4800
0800
07C0
0000
ENDCHAR
STARTCHAR 2441
ENCODING 12385
SWIDTH 960 0
DWIDTH 10 0
BBX 10 10 0 -2
BITMAP
1000
7F80
1000
1E00
1100
0080
0080
2100
1E00
0000
ENDCHAR
STARTCHAR 2442
ENCODING 12386
SWIDTH 960 0
DWIDTH 10 0
BBX 10 10 0 -2
BITMAP
1140
7D40
1000
1E00
1100
0080
0080
2100
1E00
0000
ENDCHAR
STARTCHAR 2443
ENCODING 12387
SWIDTH 960 0
DWIDTH 10 0
BBX 10 10 0 -2
BITMAP
0000
0000
0000
3E00
0100
0080
0080
0100
0600
0000
ENDCHAR
STARTCHAR 2444
ENCODING 12388
SWIDTH 960 0
DWIDTH 10 0
BBX 10 10 0 -2
BITMAP
0000
7E00
0100
0080
0080
0080
0080
0100
0600
0000
ENDCHAR
STARTCHAR 2445
ENCODING 12389
SWIDTH 960 0
DWIDTH 10 0
BBX 10 10 0 -2
BITMAP
0140
7F40
0100
0080
0080
0080
0080
0100
0600
0000
ENDCHAR
STARTCHAR 2446
ENCODING 12390
SWIDTH 960 0
DWIDTH 10 0
BBX 10 10 0 -2
BITMAP
0000
7F00
0400
0800
1000
1000
1000
0880
0700
0000
ENDCHAR
STARTCHAR 2447
ENCODING 12391
SWIDTH 960 0
DWIDTH 10 0
BBX 10 10 0 -2
BITMAP
0140
7F40
0400
0800
1000
1000
1000
0880
0700
0000
ENDCHAR
STARTCHAR 2448
ENCODING 12392
SWIDTH 960 0
DWIDTH 10 0
BBX 10 10 0 -2
BITMAP
0000
2000
1700
0800
1400
2000
2000
2080
1F00
0000
ENDCHAR
STARTCHAR 2449
ENCODING 12393
SWIDTH 960 0
DWIDTH 10 0
BBX 10 10 0 -2
BITMAP
0140
2140
1600
0800
1400
2000
2000
2080
1F00
0000
ENDCHAR
STARTCHAR 244a
ENCODING 12394
SWIDTH 960 0
DWIDTH 10 0
BBX 10 10 0 -2
BITMAP
1000
79C0
2100
2100
4F00
5180
1140
1100
0E00
0000
ENDCHAR
STARTCHAR 244b
ENCODING 12395
SWIDTH 960 0
DWIDTH 10 0
BBX 10 10 0 -2
BITMAP
0000
4F00
4080
4100
4000
4800
5000
5000
4F80
0000
ENDCHAR
STARTCHAR 244c
ENCODING 12396
SWIDTH 960 0
DWIDTH 10 0
BBX 10 10 0 -2
BITMAP
0200
1200
1F00
3280
5240
55C0
4A40
3240
0180
0000
ENDCHAR
STARTCHAR 244d
ENCODING 12397
SWIDTH 960 0
DWIDTH 10 0
BBX 10 10 0 -2
BITMAP
1000
7C00
1380
1440
1840
31C0
5240
1240
1180
0000
ENDCHAR
STARTCHAR 244e
ENCODING 12398
SWIDTH 960 0
DWIDTH 10 0
BBX 10 10 0 -2
BITMAP
0400
1F00
2480
4440
4440
4840
3040
0080
0300
0000
ENDCHAR
STARTCHAR 244f
ENCODING 12399
SWIDTH 960 0
DWIDTH 10 0
BBX 10 10 0 -2
BITMAP
0080
4FC0
4080
4080
4780
48C0
4880
4880
4700
0000
ENDCHAR
STARTCHAR 2450
ENCODING 12400
SWIDTH 960 0
DWIDTH 10 0
BBX 10 10 0 -2
BITMAP
0140
5F40
4100
4100
4F00
5180
5100
5100
4E00
0000
ENDCHAR
STARTCHAR 2451
ENCODING 12401
SWIDTH 960 0
DWIDTH 10 0
BBX 10 10 0 -2
BITMAP
0080
5F40
4140
4180
4F00
5180
5100
5100
4E00
0000
ENDCHAR
STARTCHAR 2452
ENCODING 12402
SWIDTH 960 0
DWIDTH 10 0
BBX 10 10 0 -2
BITMAP
0000
7380
1100
2080
4080
4080
4080
2100
1E00
0000
ENDCHAR
STARTCHAR 2453
ENCODING 12403
SWIDTH 960 0
DWIDTH 10 0
BBX 10 10 0 -2
BITMAP
0140
7140
1000
21C0
4080
4080
4080
2100
1E00
0000
ENDCHAR
STARTCHAR 2454
ENCODING 12404
SWIDTH 960 0
DWIDTH 10 0
BBX 10 10 0 -2
BITMAP
0080
7140
1140
2080
41C0
4080
4080
2100
1E00
0000
ENDCHAR
STARTCHAR 2455
ENCODING 12405
SWIDTH 960 0
DWIDTH 10 0
BBX 10 10 0 -2
BITMAP
1C00
0200
0200
0C00
0200
2140
4140
5240
0C00
0000
ENDCHAR
STARTCHAR 2456
ENCODING 12406
SWIDTH 960 0
DWIDTH 10 0
BBX 10 10 0 -2
BITMAP
1D40
0340
0200
0C00
0200
2140
4140
5240
0C00
0000
ENDCHAR
STARTCHAR 2457
ENCODING 12407
SWIDTH 960 0
DWIDTH 10 0
BBX 10 10 0 -2
BITMAP
1C80
0340
0340
0C80
0200
2140
4140
5240
0C00
0000
ENDCHAR
STARTCHAR 2458
ENCODING 12408
SWIDTH 960 0
DWIDTH 10 0
BBX 10 10 0 -2
BITMAP
0000
0000
1C00
2200
4100
4080
0040
0040
0000
0000
ENDCHAR
STARTCHAR 2459
ENCODING 12409
SWIDTH 960 0
DWIDTH 10 0
BBX 10 10 0 -2
BITMAP
0140
0140
1C00
2200
4100
4080
0040
0040
0000
0000
ENDCHAR
STARTCHAR 245a
ENCODING 12410
SWIDTH 960 0
DWIDTH 10 0
BBX 10 10 0 -2
BITMAP
0080
0140
1D40
2280
4100
4080
0040
0040
0000
0000
ENDCHAR
STARTCHAR 245b
ENCODING 12411
SWIDTH 960 0
DWIDTH 10 0
BBX 10 10 0 -2
BITMAP
4F80
4100
4FC0
4100
4F00
5180
5100
5100
4E00
0000
ENDCHAR
STARTCHAR 245c
ENCODING 12412
SWIDTH 960 0
DWIDTH 10 0
BBX 10 10 0 -2
BITMAP
4D40
4140
4E80
4100
4F00
5180
5100
5100
4E00
0000
ENDCHAR
STARTCHAR 245d
ENCODING 12413
SWIDTH 960 0
DWIDTH 10 0
BBX 10 10 0 -2
BITMAP
4E80
4140
5F40
4180
4F00
5180
5100
5100
4E00
0000
ENDCHAR
STARTCHAR 245e
ENCODING 12414
SWIDTH 960 0
DWIDTH 10 0
BBX 10 10 0 -2
BITMAP
0200
3F80
0200
1F80
0200
1E00
2300
2280
1C00
0000
ENDCHAR
STARTCHAR 245f
ENCODING 12415
SWIDTH 960 0
DWIDTH 10 0
BBX 10 10 0 -2
BITMAP
3800
0480
0480
3FC0
4480
4480
4880
3080
0300
0000
ENDCHAR
STARTCHAR 2460
ENCODING 12416
SWIDTH 960 0
DWIDTH 10 0
BBX 10 10 0 -2
BITMAP
1000
79C0
1000
3880
4440
4440
3840
1080
0F00
0000
ENDCHAR
STARTCHAR 2461
ENCODING 12417
SWIDTH 960 0
DWIDTH 10 0
BBX 10 10 0 -2
BITMAP
0200
1200
1F00
3280
5240
5440
4840
3480
0100
0000
ENDCHAR
STARTCHAR 2462
ENCODING 12418
SWIDTH 960 0
DWIDTH 10 0
BBX 10 10 0 -2
BITMAP
0000
2000
7E00
2000
7E80
2080
2080
1100
0E00
0000
ENDCHAR
STARTCHAR 2463
ENCODING 12419
SWIDTH 960 0
DWIDTH 10 0
BBX 10 10 0 -2
BITMAP
0000
0000
0000
1400
3E00
1500
1200
1000
1000
0000
ENDCHAR
STARTCHAR 2464
ENCODING 12420
SWIDTH 960 0
DWIDTH 10 0
BBX 10 10 0 -2
BITMAP
1200
1200
7F00
1280
1280
1080
1300
1000
1000
0000
ENDCHAR
STARTCHAR 2465
ENCODING 12421
SWIDTH 960 0
DWIDTH 10 0
BBX 10 10 0 -2
BITMAP
0000
0000
0400
2E00
3500
2500
2500
0E00
0400
0000
ENDCHAR
STARTCHAR 2466
ENCODING 12422
SWIDTH 960 0
DWIDTH 10 0
BBX 10 10 0 -2
BITMAP
0400
4400
5E00
6500
4480
4480
4480
0F00
0400
0000
ENDCHAR
STARTCHAR 2467
ENCODING 12423
SWIDTH 960 0
DWIDTH 10 0
BBX 10 10 0 -2
BITMAP
0000
0000
0400
0700
0400
1F00
2400
2400
1800
0000
ENDCHAR
STARTCHAR 2468
ENCODING 12424
SWIDTH 960 0
DWIDTH 10 0
BBX 10 10 0 -2
BITMAP
0400
0780
0400
0400
3C00
4700
4400
4400
3800
0000
ENDCHAR
STARTCHAR 2469
ENCODING 12425
SWIDTH 960 0
DWIDTH 10 0
BBX 10 10 0 -2
BITMAP
0600
1100
1000
1E00
1100
0080
0080
2100
1E00
0000
ENDCHAR
STARTCHAR 246a
ENCODING 12426
SWIDTH 960 0
DWIDTH 10 0
BBX 10 10 0 -2
BITMAP
1100
1100
1100
1100
1500
0900
0100
2200
1C00
0000
ENDCHAR
STARTCHAR 246b
ENCODING 12427
SWIDTH 960 0
DWIDTH 10 0
BBX 10 10 0 -2
BITMAP
3E00
0100
0200
0E00
0100
1880
2480
2500
1E00
0000
ENDCHAR
STARTCHAR 246c
ENCODING 12428
SWIDTH 960 0
DWIDTH 10 0
BBX 10 10 0 -2
BITMAP
1000
7C00
1300
1480
1880
3080
5080
1080
1040
0000
ENDCHAR
STARTCHAR 246d
ENCODING 12429
SWIDTH 960 0
DWIDTH 10 0
BBX 10 10 0 -2
BITMAP
3E00
0100
0200
0E00
0100
0080
0080
2100
1E00
0000
ENDCHAR
STARTCHAR 246e
ENCODING 12430
SWIDTH 960 0
DWIDTH 10 0
BBX 10 10 0 -2
BITMAP
0000
0000
1000
1000
3600
1900
1100
3100
1200
0000
ENDCHAR
STARTCHAR 246f
ENCODING 12431
SWIDTH 960 0
DWIDTH 10 0
BBX 10 10 0 -2
BITMAP
1000
7C00
1300
1480
1840
3040
5040
1040
1180
0000
ENDCHAR
STARTCHAR 2470
ENCODING 12432
SWIDTH 960 0
DWIDTH 10 0
BBX 10 10 0 -2
BITMAP
3000
0800
0800
1F40
2880
4940
4A40
4A40
3180
0000
ENDCHAR
STARTCHAR 2471
ENCODING 12433
SWIDTH 960 0
DWIDTH 10 0
BBX 10 10 0 -2
BITMAP
1E00
0400
1E00
2100
0900
0E00
1040
3340
4C80
0000
ENDCHAR
STARTCHAR 2472
ENCODING 12434
SWIDTH 960 0
DWIDTH 10 0
BBX 10 10 0 -2
BITMAP
0800
7F80
0800
0E00
1900
2900
2600
2080
1F00
0000
ENDCHAR
STARTCHAR 2473
ENCODING 12435
SWIDTH 960 0
DWIDTH 10 0
BBX 10 10 0 -2
BITMAP
1000
1000
1000
2100
2080
2080
3880
4480
4300
0000
ENDCHAR
STARTCHAR 212b
ENCODING 12443
SWIDTH 960 0
DWIDTH 10 0
BBX 10 10 0 -2
BITMAP
2000
1000
4000
2000
0000
0000
0000
0000
0000
0000
ENDCHAR
STARTCHAR 212c
ENCODING 12444
SWIDTH 960 0
DWIDTH 10 0
BBX 10 10 0 -2
BITMAP
2000
5000
5000
2000
0000
0000
0000
0000
0000
0000
ENDCHAR
STARTCHAR 2135
ENCODING 12445
SWIDTH 960 0
DWIDTH 10 0
BBX 10 10 0 -2
BITMAP
0000
0000
1000
1000
0800
0400
0200
0C00
0000
0000
ENDCHAR
STARTCHAR 2136
ENCODING 12446
SWIDTH 960 0
DWIDTH 10 0
BBX 10 10 0 -2
BITMAP
0080
0240
1100
1000
0800
0400
0200
0C00
0000
0000
ENDCHAR
STARTCHAR 2521
ENCODING 12449
SWIDTH 960 0
DWIDTH 10 0
BBX 10 10 0 -2
BITMAP
0000
0000
0000
3E00
0100
0900
0A00
0800
1000
0000
ENDCHAR
STARTCHAR 2522
ENCODING 12450
SWIDTH 960 0
DWIDTH 10 0
BBX 10 10 0 -2
BITMAP
0000
7F00
0080
0880
0880
0900
0800
0800
3000
0000
ENDCHAR
STARTCHAR 2523
ENCODING 12451
SWIDTH 960 0
DWIDTH 10 0
BBX 10 10 0 -2
BITMAP
0000
0000
0000
0100
0600
3C00
0400
0400
0400
0000
ENDCHAR
STARTCHAR 2524
ENCODING 12452
SWIDTH 960 0
DWIDTH 10 0
BBX 10 10 0 -2
BITMAP
0000
0180
0600
1C00
6400
0400
0400
0400
0400
0000
ENDCHAR
STARTCHAR 2525
ENCODING 12453
SWIDTH 960 0
DWIDTH 10 0
BBX 10 10 0 -2
BITMAP
0000
0000
0400
0400
1E00
2100
0100
1200
0C00
0000
ENDCHAR
STARTCHAR 2526
ENCODING 12454
SWIDTH 960 0
DWIDTH 10 0
BBX 10 10 0 -2
BITMAP
0400
0400
3F00
4080
4080
0080
0100
2200
1C00
0000
ENDCHAR
STARTCHAR 2527
ENCODING 12455
SWIDTH 960 0
DWIDTH 10 0
BBX 10 10 0 -2
BITMAP
0000
0000
0000
0000
1F00
0400
0400
0400
3F80
0000
ENDCHAR
STARTCHAR 2528
ENCODING 12456
SWIDTH 960 0
DWIDTH 10 0
BBX 10 10 0 -2
BITMAP
0000
0000
3F80
0400
0400
0400
0400
7FC0
0000
0000
ENDCHAR
STARTCHAR 2529
ENCODING 12457
SWIDTH 960 0
DWIDTH 10 0
BBX 10 10 0 -2
BITMAP
0000
0000
0200
0200
3F00
0600
0A00
3200
0400
0000
ENDCHAR
STARTCHAR 252a
ENCODING 12458
SWIDTH 960 0
DWIDTH 10 0
BBX 10 10 0 -2
BITMAP
0100
0100
7F80
0500
0900
1100
2100
4100
0600
0000
ENDCHAR
STARTCHAR 252b
ENCODING 12459
SWIDTH 960 0
DWIDTH 10 0
BBX 10 10 0 -2
BITMAP
0800
0800
7F00
1080
1080
2080
2080
4100
4100
0000
ENDCHAR
STARTCHAR 252c
ENCODING 12460
SWIDTH 960 0
DWIDTH 10 0
BBX 10 10 0 -2
BITMAP
0940
0940
7F00
1080
1080
2080
2080
4100
4100
0000
ENDCHAR
STARTCHAR 252d
ENCODING 12461
SWIDTH 960 0
DWIDTH 10 0
BBX 10 10 0 -2
BITMAP
0400
0400
3F80
0400
0400
7FC0
0400
0400
0400
0000
ENDCHAR
STARTCHAR 252e
ENCODING 12462
SWIDTH 960 0
DWIDTH 10 0
BBX 10 10 0 -2
BITMAP
0540
0540
3F80
0400
0400
7FC0
0400
0400
0400
0000
ENDCHAR
STARTCHAR 252f
ENCODING 12463
SWIDTH 960 0
DWIDTH 10 0
BBX 10 10 0 -2
BITMAP
0800
0F00
1080
1080
2080
2100
0100
0200
0200
0000
ENDCHAR
STARTCHAR 2530
ENCODING 12464
SWIDTH 960 0
DWIDTH 10 0
BBX 10 10 0 -2
BITMAP
0940
0F40
1080
1080
2080
2100
0100
0200
0200
0000
ENDCHAR
STARTCHAR 2531
ENCODING 12465
SWIDTH 960 0
DWIDTH 10 0
BBX 10 10 0 -2
BITMAP
1000
1000
3FC0
2200
4200
4200
0200
0400
1800
0000
ENDCHAR
STARTCHAR 2532
ENCODING 12466
SWIDTH 960 0
DWIDTH 10 0
BBX 10 10 0 -2
BITMAP
1140
1140
3FC0
2200
4200
4200
0200
0400
1800
0000
ENDCHAR
STARTCHAR 2533
ENCODING 12467
SWIDTH 960 0
DWIDTH 10 0
BBX 10 10 0 -2
BITMAP
0000
3F00
0080
0080
0080
0080
0080
3F00
0000
0000
ENDCHAR
STARTCHAR 2534
ENCODING 12468
SWIDTH 960 0
DWIDTH 10 0
BBX 10 10 0 -2
BITMAP
0140
0140
3F00
0080
0080
0080
0080
0080
3F00
0000
ENDCHAR
STARTCHAR 2535
ENCODING 12469
SWIDTH 960 0
DWIDTH 10 0
BBX 10 10 0 -2
BITMAP
1100
1100
7FC0
1100
1100
0100
0100
1200
0C00
0000
ENDCHAR
STARTCHAR 2536
ENCODING 12470
SWIDTH 960 0
DWIDTH 10 0
BBX 10 10 0 -2
BITMAP
1140
1140
7EC0
1100
1100
0100
0100
1200
0C00
0000
ENDCHAR
STARTCHAR 2537
ENCODING 12471
SWIDTH 960 0
DWIDTH 10 0
BBX 10 10 0 -2
BITMAP
0000
3C00
0000
3C00
0080
0080
0100
4200
3C00
0000
ENDCHAR
STARTCHAR 2538
ENCODING 12472
SWIDTH 960 0
DWIDTH 10 0
BBX 10 10 0 -2
BITMAP
0140
3D40
0000
3C00
0080
0080
0100
4200
3C00
0000
ENDCHAR
STARTCHAR 2539
ENCODING 12473
SWIDTH 960 0
DWIDTH 10 0
BBX 10 10 0 -2
BITMAP
0000
3E00
0100
0100
0200
0400
0A00
1100
6080
0000
ENDCHAR
STARTCHAR 2539
ENCODING 12474
SWIDTH 960 0
DWIDTH 10 0
BBX 10 10 0 -2
BITMAP
0140
3E40
0100
0100
0200
0400
0A00
1100
6080
0000
ENDCHAR
STARTCHAR 253b
ENCODING 12475
SWIDTH 960 0
DWIDTH 10 0
BBX 10 10 0 -2
BITMAP
1000
1000
7F00
1080
1080
1300
1000
1040
0F80
0000
ENDCHAR
STARTCHAR 253c
ENCODING 12476
SWIDTH 960 0
DWIDTH 10 0
BBX 10 10 0 -2
BITMAP
1140
1040
7F00
1080
1080
1300
1000
1040
0F80
0000
ENDCHAR
STARTCHAR 253d
ENCODING 12477
SWIDTH 960 0
DWIDTH 10 0
BBX 10 10 0 -2
BITMAP
0000
2100
1080
0880
0080
0100
0200
0400
1800
0000
ENDCHAR
STARTCHAR 253e
ENCODING 12478
SWIDTH 960 0
DWIDTH 10 0
BBX 10 10 0 -2
BITMAP
0140
2140
1080
0880
0080
0100
0200
0400
1800
0000
ENDCHAR
STARTCHAR 253f
ENCODING 12479
SWIDTH 960 0
DWIDTH 10 0
BBX 10 10 0 -2
BITMAP
0800
0F00
1080
1080
2C80
2300
0100
0200
0200
0000
ENDCHAR
STARTCHAR 2540
ENCODING 12480
SWIDTH 960 0
DWIDTH 10 0
BBX 10 10 0 -2
BITMAP
0940
0F40
1080
1080
2C80
2300
0100
0200
0200
0000
ENDCHAR
STARTCHAR 2541
ENCODING 12481
SWIDTH 960 0
DWIDTH 10 0
BBX 10 10 0 -2
BITMAP
0300
3C00
0200
0200
7F80
0200
0200
2400
1800
0000
ENDCHAR
STARTCHAR 2542
ENCODING 12482
SWIDTH 960 0
DWIDTH 10 0
BBX 10 10 0 -2
BITMAP
0340
3D40
0200
0200
7F80
0200
0200
2400
1800
0000
ENDCHAR
STARTCHAR 2543
ENCODING 12483
SWIDTH 960 0
DWIDTH 10 0
BBX 10 10 0 -2
BITMAP
0000
0000
0000
0000
2A00
2900
2900
0200
0400
0000
ENDCHAR
STARTCHAR 2544
ENCODING 12484
SWIDTH 960 0
DWIDTH 10 0
BBX 10 10 0 -2
BITMAP
0000
2900
2880
2880
2880
0100
0200
0400
0800
0000
ENDCHAR
STARTCHAR 2545
ENCODING 12485
SWIDTH 960 0
DWIDTH 10 0
BBX 10 10 0 -2
BITMAP
0140
2940
2880
2880
2880
0100
0200
0400
0800
0000
ENDCHAR
STARTCHAR 2546
ENCODING 12486
SWIDTH 960 0
DWIDTH 10 0
BBX 10 10 0 -2
BITMAP
0000
1F00
0000
7F80
0200
0200
0200
2400
1800
0000
ENDCHAR
STARTCHAR 2547
ENCODING 12487
SWIDTH 960 0
DWIDTH 10 0
BBX 10 10 0 -2
BITMAP
0140
1D40
0000
7F80
0200
0200
0200
2400
1800
0000
ENDCHAR
STARTCHAR 2548
ENCODING 12488
SWIDTH 960 0
DWIDTH 10 0
BBX 10 10 0 -2
BITMAP
1000
1000
1000
3800
1600
1100
1000
1000
1000
0000
ENDCHAR
STARTCHAR 2549
ENCODING 12489
SWIDTH 960 0
DWIDTH 10 0
BBX 10 10 0 -2
BITMAP
1280
1280
1000
3800
1600
1100
1000
1000
1000
0000
ENDCHAR
STARTCHAR 254a
ENCODING 12490
SWIDTH 960 0
DWIDTH 10 0
BBX 10 10 0 -2
BITMAP
0200
0200
7F80
0200
0200
0200
0200
2400
1800
0000
ENDCHAR
STARTCHAR 254b
ENCODING 12491
SWIDTH 960 0
DWIDTH 10 0
BBX 10 10 0 -2
BITMAP
0000
0000
3F00
0000
0000
0000
0000
7F80
0000
0000
ENDCHAR
STARTCHAR 254c
ENCODING 12492
SWIDTH 960 0
DWIDTH 10 0
BBX 10 10 0 -2
BITMAP
0000
1F00
0080
0080
0D00
0200
0500
4880
3000
0000
ENDCHAR
STARTCHAR 254d
ENCODING 12493
SWIDTH 960 0
DWIDTH 10 0
BBX 10 10 0 -2
BITMAP
0400
0400
3F00
0480
0100
0600
0D00
3480
0400
0000
ENDCHAR
STARTCHAR 254e
ENCODING 12494
SWIDTH 960 0
DWIDTH 10 0
BBX 10 10 0 -2
BITMAP
0000
0080
0080
0080
0100
0100
0200
0C00
3000
0000
ENDCHAR
STARTCHAR 254f
ENCODING 12495
SWIDTH 960 0
DWIDTH 10 0
BBX 10 10 0 -2
BITMAP
0000
0400
0200
0100
2100
2080
4080
4080
4080
0000
ENDCHAR
STARTCHAR 2550
ENCODING 12496
SWIDTH 960 0
DWIDTH 10 0
BBX 10 10 0 -2
BITMAP
0140
0540
0200
0100
2100
2080
4080
4080
4080
0000
ENDCHAR
STARTCHAR 2551
ENCODING 12497
SWIDTH 960 0
DWIDTH 10 0
BBX 10 10 0 -2
BITMAP
0080
0540
0340
0180
2100
2080
4080
4080
4080
0000
ENDCHAR
STARTCHAR 2552
ENCODING 12498
SWIDTH 960 0
DWIDTH 10 0
BBX 10 10 0 -2
BITMAP
0000
2000
2000
3F00
2000
2000
2080
2080
1F00
0000
ENDCHAR
STARTCHAR 2553
ENCODING 12499
SWIDTH 960 0
DWIDTH 10 0
BBX 10 10 0 -2
BITMAP
0140
2140
2000
3F00
2000
2000
2080
2080
1F00
0000
ENDCHAR
STARTCHAR 2554
ENCODING 12500
SWIDTH 960 0
DWIDTH 10 0
BBX 10 10 0 -2
BITMAP
0080
2140
2140
3E80
2000
2000
2080
2080
1F00
0000
ENDCHAR
STARTCHAR 2555
ENCODING 12501
SWIDTH 960 0
DWIDTH 10 0
BBX 10 10 0 -2
BITMAP
0000
3F00
0080
0080
0080
0080
0100
2200
1C00
0000
ENDCHAR
STARTCHAR 2556
ENCODING 12502
SWIDTH 960 0
DWIDTH 10 0
BBX 10 10 0 -2
BITMAP
0140
3F40
0080
0080
0080
0080
0100
2200
1C00
0000
ENDCHAR
STARTCHAR 2557
ENCODING 12503
SWIDTH 960 0
DWIDTH 10 0
BBX 10 10 0 -2
BITMAP
0080
3F40
0140
0080
0080
0080
0100
2200
1C00
0000
ENDCHAR
STARTCHAR 2558
ENCODING 12504
SWIDTH 960 0
DWIDTH 10 0
BBX 10 10 0 -2
BITMAP
0000
0000
1800
2400
4200
4100
0080
0040
0000
0000
ENDCHAR
STARTCHAR 2559
ENCODING 12505
SWIDTH 960 0
DWIDTH 10 0
BBX 10 10 0 -2
BITMAP
0000
0140
1940
2400
4200
4100
0080
0040
0000
0000
ENDCHAR
STARTCHAR 255a
ENCODING 12506
SWIDTH 960 0
DWIDTH 10 0
BBX 10 10 0 -2
BITMAP
0080
0140
1940
2480
4200
4100
0080
0040
0000
0000
ENDCHAR
STARTCHAR 255b
ENCODING 12507
SWIDTH 960 0
DWIDTH 10 0
BBX 10 10 0 -2
BITMAP
0400
0400
7FC0
0400
2500
2480
4440
4440
0C00
0000
ENDCHAR
STARTCHAR 255c
ENCODING 12508
SWIDTH 960 0
DWIDTH 10 0
BBX 10 10 0 -2
BITMAP
0540
0540
7FC0
0400
2500
2480
4440
4440
0C00
0000
ENDCHAR
STARTCHAR 255d
ENCODING 12509
SWIDTH 960 0
DWIDTH 10 0
BBX 10 10 0 -2
BITMAP
0480
0540
7F40
0480
2500
2480
4440
4440
0C00
0000
ENDCHAR
STARTCHAR 255e
ENCODING 12510
SWIDTH 960 0
DWIDTH 10 0
BBX 10 10 0 -2
BITMAP
0000
7F00
0080
0080
0100
1200
0C00
0400
0200
0000
ENDCHAR
STARTCHAR 255f
ENCODING 12511
SWIDTH 960 0
DWIDTH 10 0
BBX 10 10 0 -2
BITMAP
0000
1F00
0000
0000
1F00
0000
0000
3E00
0180
0000
ENDCHAR
STARTCHAR 2560
ENCODING 12512
SWIDTH 960 0
DWIDTH 10 0
BBX 10 10 0 -2
BITMAP
0000
0800
1000
1000
2000
2100
4100
4680
3880
0000
ENDCHAR
STARTCHAR 2561
ENCODING 12513
SWIDTH 960 0
DWIDTH 10 0
BBX 10 10 0 -2
BITMAP
0000
0080
1100
0A00
0400
0A00
1100
2000
4000
0000
ENDCHAR
STARTCHAR 2562
ENCODING 12514
SWIDTH 960 0
DWIDTH 10 0
BBX 10 10 0 -2
BITMAP
0000
7E00
1000
1000
7F00
1000
1080
1080
0F00
0000
ENDCHAR
STARTCHAR 2563
ENCODING 12515
SWIDTH 960 0
DWIDTH 10 0
BBX 10 10 0 -2
BITMAP
0000
0000
0800
0800
3E00
0900
0A00
0800
0800
0000
ENDCHAR
STARTCHAR 2564
ENCODING 12516
SWIDTH 960 0
DWIDTH 10 0
BBX 10 10 0 -2
BITMAP
1000
1000
7F00
1080
1080
1100
1200
1000
1000
0000
ENDCHAR
STARTCHAR 2565
ENCODING 12517
SWIDTH 960 0
DWIDTH 10 0
BBX 10 10 0 -2
BITMAP
0000
0000
0000
0000
1C00
0200
0200
3F80
0000
0000
ENDCHAR
STARTCHAR 2566
ENCODING 12518
SWIDTH 960 0
DWIDTH 10 0
BBX 10 10 0 -2
BITMAP
0000
0000
3E00
0100
0100
0100
0100
7FC0
0000
0000
ENDCHAR
STARTCHAR 2567
ENCODING 12519
SWIDTH 960 0
DWIDTH 10 0
BBX 10 10 0 -2
BITMAP
0000
0000
0000
0000
3C00
0200
3E00
0200
3C00
0000
ENDCHAR
STARTCHAR 2568
ENCODING 12520
SWIDTH 960 0
DWIDTH 10 0
BBX 10 10 0 -2
BITMAP
0000
3F00
0080
0080
1F80
0080
0080
3F00
0000
0000
ENDCHAR
STARTCHAR 2569
ENCODING 12521
SWIDTH 960 0
DWIDTH 10 0
BBX 10 10 0 -2
BITMAP
3F00
0000
7F00
0080
0080
0080
0100
2200
1C00
0000
ENDCHAR
STARTCHAR 256a
ENCODING 12522
SWIDTH 960 0
DWIDTH 10 0
BBX 10 10 0 -2
BITMAP
1080
1080
1080
1080
1080
0080
0080
2100
1E00
0000
ENDCHAR
STARTCHAR 256b
ENCODING 12523
SWIDTH 960 0
DWIDTH 10 0
BBX 10 10 0 -2
BITMAP
0000
0800
4800
4800
4800
4880
4880
4900
0600
0000
ENDCHAR
STARTCHAR 256c
ENCODING 12524
SWIDTH 960 0
DWIDTH 10 0
BBX 10 10 0 -2
BITMAP
0000
2000
2000
2000
2080
2080
2100
2200
1C00
0000
ENDCHAR
STARTCHAR 256d
ENCODING 12525
SWIDTH 960 0
DWIDTH 10 0
BBX 10 10 0 -2
BITMAP
0000
3F00
4080
4080
4080
4080
2100
1E00
0000
0000
ENDCHAR
STARTCHAR 256e
ENCODING 12526
SWIDTH 960 0
DWIDTH 10 0
BBX 10 10 0 -2
BITMAP
0000
0000
0000
1E00
2100
2100
0100
0200
0C00
0000
ENDCHAR
STARTCHAR 256f
ENCODING 12527
SWIDTH 960 0
DWIDTH 10 0
BBX 10 10 0 -2
BITMAP
0000
3F00
4080
4080
0080
0080
0100
2200
1C00
0000
ENDCHAR
STARTCHAR 2570
ENCODING 12528
SWIDTH 960 0
DWIDTH 10 0
BBX 10 10 0 -2
BITMAP
0200
0200
7F80
0200
1200
1200
7F80
0200
0200
0000
ENDCHAR
STARTCHAR 2571
ENCODING 12529
SWIDTH 960 0
DWIDTH 10 0
BBX 10 10 0 -2
BITMAP
0000
0000
3F00
0080
0500
0400
0400
7FC0
0000
0000
ENDCHAR
STARTCHAR 2572
ENCODING 12530
SWIDTH 960 0
DWIDTH 10 0
BBX 10 10 0 -2
BITMAP
0000
3F00
0080
0080
1F80
0080
0100
2200
1C00
0000
ENDCHAR
STARTCHAR 2573
ENCODING 12531
SWIDTH 960 0
DWIDTH 10 0
BBX 10 10 0 -2
BITMAP
0000
0000
3C00
0000
0080
0080
0100
4200
3C00
0000
ENDCHAR
STARTCHAR 2574
ENCODING 12532
SWIDTH 960 0
DWIDTH 10 0
BBX 10 10 0 -2
BITMAP
0540
0540
3F00
4080
4080
0080
0100
2200
1C00
0000
ENDCHAR
STARTCHAR 2575
ENCODING 12533
SWIDTH 960 0
DWIDTH 10 0
BBX 10 10 0 -2
BITMAP
0000
0000
0800
0800
3E00
0900
1100
1100
2600
0000
ENDCHAR
STARTCHAR 2576
ENCODING 12534
SWIDTH 960 0
DWIDTH 10 0
BBX 10 10 0 -2
BITMAP
0000
0000
1000
1000
1F80
2200
2200
0200
0C00
0000
ENDCHAR
STARTCHAR 2126
ENCODING 12539
SWIDTH 960 0
DWIDTH 10 0
BBX 10 10 0 -2
BITMAP
0000
0000
0000
0000
0C00
0C00
0000
0000
0000
0000
ENDCHAR
STARTCHAR 213c
ENCODING 12540
SWIDTH 960 0
DWIDTH 10 0
BBX 10 10 0 -2
BITMAP
0000
0000
0000
0000
4C80
3300
0000
0000
0000
0000
ENDCHAR
STARTCHAR 2133
ENCODING 12541
SWIDTH 960 0
DWIDTH 10 0
BBX 10 10 0 -2
BITMAP
0000
0000
1000
0800
0400
0200
0200
0000
0000
0000
ENDCHAR
STARTCHAR 2134
ENCODING 12542
SWIDTH 960 0
DWIDTH 10 0
BBX 10 10 0 -2
BITMAP
0080
0240
1100
0800
0400
0200
0200
0000
0000
0000
ENDCHAR
STARTCHAR 306c
ENCODING 19968
SWIDTH 960 0
DWIDTH 10 0
BBX 10 10 0 -2
BITMAP
0000
0000
0000
0080
7FC0
0000
0000
0000
0000
0000
ENDCHAR
STARTCHAR 437a
ENCODING 19969
SWIDTH 960 0
DWIDTH 10 0
BBX 10 10 0 -2
BITMAP
0000
7FC0
0400
0400
0400
0400
0400
0400
0C00
0000
ENDCHAR
STARTCHAR 3c37
ENCODING 19971
SWIDTH 960 0
DWIDTH 10 0
BBX 10 10 0 -2
BITMAP
0800
0800
09C0
0E00
7800
0800
0800
0840
0FC0
0000
ENDCHAR
STARTCHAR 4b7c
ENCODING 19975
SWIDTH 960 0
DWIDTH 10 0
BBX 10 10 0 -2
BITMAP
0000
7FC0
0800
0800
0F80
0880
1080
2080
4300
0000
ENDCHAR
STARTCHAR 3e66
ENCODING 19976
SWIDTH 960 0
DWIDTH 10 0
BBX 10 10 0 -2
BITMAP
0200
0200
7FC0
0200
1200
1400
0800
1600
61C0
0000
ENDCHAR
STARTCHAR 3b30
ENCODING 19977
SWIDTH 960 0
DWIDTH 10 0
BBX 10 10 0 -2
BITMAP
0000
3F80
0000
0000
1F00
0000
0000
0000
7FC0
0000
ENDCHAR
STARTCHAR 3e65
ENCODING 19978
SWIDTH 960 0
DWIDTH 10 0
BBX 10 10 0 -2
BITMAP
0400
0400
0400
0780
0400
0400
0400
0400
7FC0
0000
ENDCHAR
STARTCHAR 323c
ENCODING 19979
SWIDTH 960 0
DWIDTH 10 0
BBX 10 10 0 -2
BITMAP
7FC0
0400
0400
0700
0480
0400
0400
0400
0400
0000
ENDCHAR
STARTCHAR 4954
ENCODING 19981
SWIDTH 960 0
DWIDTH 10 0
BBX 10 10 0 -2
BITMAP
7FC0
0200
0400
0D00
1480
6440
0400
0400
0400
0000
ENDCHAR
STARTCHAR 4d3f
ENCODING 19982
SWIDTH 960 0
DWIDTH 10 0
BBX 10 10 0 -2
BITMAP
1000
1F00
1000
3F00
2100
0100
7FC0
0100
0600
0000
ENDCHAR
STARTCHAR 5022
ENCODING 19984
SWIDTH 960 0
DWIDTH 10 0
BBX 10 10 0 -2
BITMAP
7FC0
0400
2780
2400
2400
7FC0
4040
00C0
0300
0000
ENDCHAR
STARTCHAR 312f
ENCODING 19985
SWIDTH 960 0
DWIDTH 10 0
BBX 10 10 0 -2
BITMAP
3F00
0900
0900
0900
7FC0
1100
1100
1100
7FC0
0000
ENDCHAR
STARTCHAR 336e
ENCODING 19988
SWIDTH 960 0
DWIDTH 10 0
BBX 10 10 0 -2
BITMAP
0000
1F00
1100
1F00
1100
1F00
1100
1100
7FC0
0000
ENDCHAR
STARTCHAR 5023
ENCODING 19989
SWIDTH 960 0
DWIDTH 10 0
BBX 10 10 0 -2
BITMAP
7FC0
0400
0D00
1480
6440
0400
0400
0000
7FC0
0000
ENDCHAR
STARTCHAR 4024
ENCODING 19990
SWIDTH 960 0
DWIDTH 10 0
BBX 10 10 0 -2
BITMAP
2500
2500
7FC0
2500
2500
2700
2000
2000
3F80
0000
ENDCHAR
STARTCHAR 5242
ENCODING 19991
SWIDTH 960 0
DWIDTH 10 0
BBX 10 10 0 -2
BITMAP
1500
1500
1500
7FC0
1500
1500
1500
1500
1F00
0000
ENDCHAR
STARTCHAR 3556
ENCODING 19992
SWIDTH 960 0
DWIDTH 10 0
BBX 10 10 0 -2
BITMAP
0000
0300
1C00
1000
1F80
1200
1200
1200
7FC0
0000
ENDCHAR
STARTCHAR 4a3a
ENCODING 19993
SWIDTH 960 0
DWIDTH 10 0
BBX 10 10 0 -2
BITMAP
7FC0
0400
7FC0
4440
4A40
5140
60C0
4040
40C0
0000
ENDCHAR
STARTCHAR 3e67
ENCODING 19998
SWIDTH 960 0
DWIDTH 10 0
BBX 10 10 0 -2
BITMAP
3F00
0200
74C0
1700
1500
2480
4C40
0000
7FC0
0000
ENDCHAR
STARTCHAR 4e3e
ENCODING 20001
SWIDTH 960 0
DWIDTH 10 0
BBX 10 10 0 -2
BITMAP
7FC0
0400
7FC0
4440
5540
5540
5540
5F40
40C0
0000
ENDCHAR
STARTCHAR 4a42
ENCODING 20006
SWIDTH 960 0
DWIDTH 10 0
BBX 10 10 0 -2
BITMAP
2080
1100
7FC0
0A00
4A40
2A40
2A80
0A00
7FC0
0000
ENDCHAR
STARTCHAR 5024
ENCODING 20010
SWIDTH 960 0
DWIDTH 10 0
BBX 10 10 0 -2
BITMAP
0400
0A00
1100
2480
4440
0400
0400
0400
0400
0000
ENDCHAR
STARTCHAR 4366
ENCODING 20013
SWIDTH 960 0
DWIDTH 10 0
BBX 10 10 0 -2
BITMAP
0400
0400
7FC0
4440
4440
7FC0
0400
0400
0400
0000
ENDCHAR
STARTCHAR 5025
ENCODING 20017
SWIDTH 960 0
DWIDTH 10 0
BBX 10 10 0 -2
BITMAP
1200
1200
5280
5280
5280
5280
7380
2200
4200
0000
ENDCHAR
STARTCHAR 367a
ENCODING 20018
SWIDTH 960 0
DWIDTH 10 0
BBX 10 10 0 -2
BITMAP
0400
3F80
2480
3F80
0400
7FC0
4440
7FC0
0400
0000
ENDCHAR
STARTCHAR 5026
ENCODING 20022
SWIDTH 960 0
DWIDTH 10 0
BBX 10 10 0 -2
BITMAP
0000
0000
0000
0800
0400
0400
0000
0000
0000
0000
ENDCHAR
STARTCHAR 345d
ENCODING 20024
SWIDTH 960 0
DWIDTH 10 0
BBX 10 10 0 -2
BITMAP
0800
0800
3F00
0900
3900
0D00
0900
1140
61C0
0000
ENDCHAR
STARTCHAR 4330
ENCODING 20025
SWIDTH 960 0
DWIDTH 10 0
BBX 10 10 0 -2
BITMAP
3F80
2080
2480
2280
7FC0
2080
2080
2080
4180
0000
ENDCHAR
STARTCHAR 3c67
ENCODING 20027
SWIDTH 960 0
DWIDTH 10 0
BBX 10 10 0 -2
BITMAP
0800
0400
7FC0
0400
0400
3F80
0400
0400
7FC0
0000
ENDCHAR
STARTCHAR 5027
ENCODING 20028
SWIDTH 960 0
DWIDTH 10 0
BBX 10 10 0 -2
BITMAP
1100
1100
7FC0
1500
1300
7FC0
1100
2100
4100
0000
ENDCHAR
STARTCHAR 5028
ENCODING 20031
SWIDTH 960 0
DWIDTH 10 0
BBX 10 10 0 -2
BITMAP
0200
0200
0200
0200
0200
0400
0400
0800
1000
0000
ENDCHAR
STARTCHAR 5029
ENCODING 20034
SWIDTH 960 0
DWIDTH 10 0
BBX 10 10 0 -2
BITMAP
0100
2100
1100
1200
0A00
0400
0A00
1100
60C0
0000
ENDCHAR
STARTCHAR 4735
ENCODING 20035
SWIDTH 960 0
DWIDTH 10 0
BBX 10 10 0 -2
BITMAP
0000
7F00
0900
0900
0BC0
1040
1040
2040
4180
0000
ENDCHAR
STARTCHAR 3557
ENCODING 20037
SWIDTH 960 0
DWIDTH 10 0
BBX 10 10 0 -2
BITMAP
1000
1E00
1200
2200
4200
0400
0A00
1100
60C0
0000
ENDCHAR
STARTCHAR 4737
ENCODING 20043
SWIDTH 960 0
DWIDTH 10 0
BBX 10 10 0 -2
BITMAP
0400
0400
3F80
0080
0100
0200
2400
3800
47C0
0000
ENDCHAR
STARTCHAR 4663
ENCODING 20045
SWIDTH 960 0
DWIDTH 10 0
BBX 10 10 0 -2
BITMAP
1000
1000
3FC0
2400
4780
0400
0780
0400
0400
0000
ENDCHAR
STARTCHAR 3843
ENCODING 20046
SWIDTH 960 0
DWIDTH 10 0
BBX 10 10 0 -2
BITMAP
0300
3C00
2480
1500
0400
7FC0
0400
0400
0C00
0000
ENDCHAR
STARTCHAR 4b33
ENCODING 20047
SWIDTH 960 0
DWIDTH 10 0
BBX 10 10 0 -2
BITMAP
0300
3C00
0400
7F80
0100
0200
2400
3800
47C0
0000
ENDCHAR
STARTCHAR 6949
ENCODING 20053
SWIDTH 960 0
DWIDTH 10 0
BBX 10 10 0 -2
BITMAP
0380
3E00
2F80
2200
3FC0
2200
2F80
4A80
4A80
0000
ENDCHAR
STARTCHAR 502a
ENCODING 20054
SWIDTH 960 0
DWIDTH 10 0
BBX 10 10 0 -2
BITMAP
0300
3C00
0400
7FC0
1540
7580
1500
75C0
0400
0000
ENDCHAR
STARTCHAR 3e68
ENCODING 20055
SWIDTH 960 0
DWIDTH 10 0
BBX 10 10 0 -2
BITMAP
1F00
0400
3F80
1500
7FC0
1500
3F80
1500
64C0
0000
ENDCHAR
STARTCHAR 502b
ENCODING 20056
SWIDTH 960 0
DWIDTH 10 0
BBX 10 10 0 -2
BITMAP
1F00
0400
7FC0
1540
7580
1500
75C0
0E00
75C0
0000
ENDCHAR
STARTCHAR 3235
ENCODING 20057
SWIDTH 960 0
DWIDTH 10 0
BBX 10 10 0 -2
BITMAP
0000
3F00
0200
0400
0800
1000
2000
4040
3FC0
0000
ENDCHAR
STARTCHAR 3665
ENCODING 20061
SWIDTH 960 0
DWIDTH 10 0
BBX 10 10 0 -2
BITMAP
0800
0800
7E00
0A00
0A00
1200
1200
2240
43C0
0000
ENDCHAR
STARTCHAR 3870
ENCODING 20062
SWIDTH 960 0
DWIDTH 10 0
BBX 10 10 0 -2
BITMAP
2000
3F80
4000
3E00
0400
1800
2000
4040
3FC0
0000
ENDCHAR
STARTCHAR 4c69
ENCODING 20063
SWIDTH 960 0
DWIDTH 10 0
BBX 10 10 0 -2
BITMAP
0400
2400
2780
3C80
6480
2580
2400
2040
3FC0
0000
ENDCHAR
STARTCHAR 5626
ENCODING 20066
SWIDTH 960 0
DWIDTH 10 0
BBX 10 10 0 -2
BITMAP
1100
1100
5500
5500
5500
5500
5500
7D40
01C0
0000
ENDCHAR
STARTCHAR 4d70
ENCODING 20081
SWIDTH 960 0
DWIDTH 10 0
BBX 10 10 0 -2
BITMAP
0D00
7100
1100
7D00
1100
1100
7D00
4540
7DC0
0000
ENDCHAR
STARTCHAR 467d
ENCODING 20083
SWIDTH 960 0
DWIDTH 10 0
BBX 10 10 0 -2
BITMAP
1A00
6A00
5200
7A00
1200
1200
7A00
1240
33C0
0000
ENDCHAR
STARTCHAR 3425
ENCODING 20094
SWIDTH 960 0
DWIDTH 10 0
BBX 10 10 0 -2
BITMAP
2200
73C0
2400
7380
5080
7100
2200
7440
23C0
0000
ENDCHAR
STARTCHAR 3535
ENCODING 20096
SWIDTH 960 0
DWIDTH 10 0
BBX 10 10 0 -2
BITMAP
1E00
2200
1F00
1500
3F80
2480
3F80
0440
07C0
0000
ENDCHAR
STARTCHAR 502c
ENCODING 20098
SWIDTH 960 0
DWIDTH 10 0
BBX 10 10 0 -2
BITMAP
3D00
5500
3D00
0900
7D00
6D00
5500
6D40
45C0
0000
ENDCHAR
STARTCHAR 502d
ENCODING 20101
SWIDTH 960 0
DWIDTH 10 0
BBX 10 10 0 -2
BITMAP
0400
0400
0400
0400
0400
0400
0400
0400
1C00
0000
ENDCHAR
STARTCHAR 4e3b
ENCODING 20102
SWIDTH 960 0
DWIDTH 10 0
BBX 10 10 0 -2
BITMAP
3F80
0100
0600
0400
0400
0400
0400
0400
0C00
0000
ENDCHAR
STARTCHAR 4d3d
ENCODING 20104
SWIDTH 960 0
DWIDTH 10 0
BBX 10 10 0 -2
BITMAP
3F80
0100
0A00
7FC0
0480
0500
0400
0400
1C00
0000
ENDCHAR
STARTCHAR 4168
ENCODING 20105
SWIDTH 960 0
DWIDTH 10 0
BBX 10 10 0 -2
BITMAP
0E00
1200
3F80
0480
7FC0
0480
3F80
0400
0C00
0000
ENDCHAR
STARTCHAR 502f
ENCODING 20106
SWIDTH 960 0
DWIDTH 10 0
BBX 10 10 0 -2
BITMAP
0400
7FC0
1500
3F80
0480
7FC0
0480
3F80
0C00
0000
ENDCHAR
STARTCHAR 3b76
ENCODING 20107
SWIDTH 960 0
DWIDTH 10 0
BBX 10 10 0 -2
BITMAP
0400
7FC0
1500
3F80
0480
7FC0
0480
3F80
0C00
0000
ENDCHAR
STARTCHAR 4673
ENCODING 20108
SWIDTH 960 0
DWIDTH 10 0
BBX 10 10 0 -2
BITMAP
0000
0100
3F80
0000
0000
0000
0080
7FC0
0000
0000
ENDCHAR
STARTCHAR 5032
ENCODING 20110
SWIDTH 960 0
DWIDTH 10 0
BBX 10 10 0 -2
BITMAP
3F80
0400
0400
7FC0
0400
0400
0400
0400
0C00
0000
ENDCHAR
STARTCHAR 313e
ENCODING 20113
SWIDTH 960 0
DWIDTH 10 0
BBX 10 10 0 -2
BITMAP
0000
3F80
0000
0000
7FC0
0800
0900
1380
3C80
0000
ENDCHAR
STARTCHAR 385f
ENCODING 20114
SWIDTH 960 0
DWIDTH 10 0
BBX 10 10 0 -2
BITMAP
7FC0
0800
0800
1F00
1100
3F00
2200
0200
7FC0
0000
ENDCHAR
STARTCHAR 385e
ENCODING 20116
SWIDTH 960 0
DWIDTH 10 0
BBX 10 10 0 -2
BITMAP
0000
7F80
0800
0800
3F00
1100
1100
1100
7FC0
0000
ENDCHAR
STARTCHAR 3066
ENCODING 20117
SWIDTH 960 0
DWIDTH 10 0
BBX 10 10 0 -2
BITMAP
1200
1200
7F80
1200
1200
7F80
1200
2200
4200
0000
ENDCHAR
STARTCHAR 4f4b
ENCODING 20120
SWIDTH 960 0
DWIDTH 10 0
BBX 10 10 0 -2
BITMAP
7FC0
0000
1F00
1100
1F00
1100
1F00
0000
7FC0
0000
ENDCHAR
STARTCHAR 4f4a
ENCODING 20121
SWIDTH 960 0
DWIDTH 10 0
BBX 10 10 0 -2
BITMAP
7FC0
0800
0F00
1100
1500
1300
2A00
2600
7FC0
0000
ENDCHAR
STARTCHAR 3a33
ENCODING 20123
SWIDTH 960 0
DWIDTH 10 0
BBX 10 10 0 -2
BITMAP
1200
12C0
5B00
5240
7BC0
0000
3F80
0000
7FC0
0000
ENDCHAR
STARTCHAR 3021
ENCODING 20124
SWIDTH 960 0
DWIDTH 10 0
BBX 10 10 0 -2
BITMAP
7FC0
0A00
0A00
3F80
2A80
3F80
0A00
0A00
7FC0
0000
ENDCHAR
STARTCHAR 5033
ENCODING 20126
SWIDTH 960 0
DWIDTH 10 0
BBX 10 10 0 -2
BITMAP
7FC0
0A00
0A00
7BC0
4040
7BC0
0A00
0A00
7FC0
0000
ENDCHAR
STARTCHAR 5034
ENCODING 20127
SWIDTH 960 0
DWIDTH 10 0
BBX 10 10 0 -2
BITMAP
3F80
0800
0C00
75C0
5540
5480
7540
0800
7FC0
0000
ENDCHAR
STARTCHAR 5035
ENCODING 20128
SWIDTH 960 0
DWIDTH 10 0
BBX 10 10 0 -2
BITMAP
0000
0000
0400
0400
7FC0
0000
0000
0000
0000
0000
ENDCHAR
STARTCHAR 4b34
ENCODING 20129
SWIDTH 960 0
DWIDTH 10 0
BBX 10 10 0 -2
BITMAP
0400
0400
7FC0
2000
2000
2000
2000
2000
1F80
0000
ENDCHAR
STARTCHAR 5036
ENCODING 20130
SWIDTH 960 0
DWIDTH 10 0
BBX 10 10 0 -2
BITMAP
0400
7FC0
0000
1E00
1200
1200
1200
2240
43C0
0000
ENDCHAR
STARTCHAR 3872
ENCODING 20132
SWIDTH 960 0
DWIDTH 10 0
BBX 10 10 0 -2
BITMAP
0400
7FC0
1100
2080
5140
0A00
0400
1B00
60C0
0000
ENDCHAR
STARTCHAR 3067
ENCODING 20133
SWIDTH 960 0
DWIDTH 10 0
BBX 10 10 0 -2
BITMAP
0400
7FC0
0400
1900
0A80
0D00
3200
0D80
7040
0000
ENDCHAR
STARTCHAR 4b72
ENCODING 20134
SWIDTH 960 0
DWIDTH 10 0
BBX 10 10 0 -2
BITMAP
0400
0400
7FC0
0A00
2A80
2A40
4A40
1200
2600
0000
ENDCHAR
STARTCHAR 357c
ENCODING 20136
SWIDTH 960 0
DWIDTH 10 0
BBX 10 10 0 -2
BITMAP
0400
7FC0
1100
1F00
0000
3F80
0200
0400
0C00
0000
ENDCHAR
STARTCHAR 357d
ENCODING 20139
SWIDTH 960 0
DWIDTH 10 0
BBX 10 10 0 -2
BITMAP
0400
7FC0
1100
1F00
0000
3F80
0200
7FC0
0C00
0000
ENDCHAR
STARTCHAR 357e
ENCODING 20140
SWIDTH 960 0
DWIDTH 10 0
BBX 10 10 0 -2
BITMAP
0400
7FC0
0000
1F00
1100
1F00
0400
2480
4C40
0000
ENDCHAR
STARTCHAR 4462
ENCODING 20141
SWIDTH 960 0
DWIDTH 10 0
BBX 10 10 0 -2
BITMAP
0400
7FC0
1F00
1100
7FC0
4040
3F80
0400
0C00
0000
ENDCHAR
STARTCHAR 4e3c
ENCODING 20142
SWIDTH 960 0
DWIDTH 10 0
BBX 10 10 0 -2
BITMAP
0400
7FC0
1100
1F00
0000
7FC0
4A40
1200
63C0
0000
ENDCHAR
STARTCHAR 5037
ENCODING 20144
SWIDTH 960 0
DWIDTH 10 0
BBX 10 10 0 -2
BITMAP
0400
7FC0
1100
1F00
1100
1F00
0400
2480
4C40
0000
ENDCHAR
STARTCHAR 5038
ENCODING 20147
SWIDTH 960 0
DWIDTH 10 0
BBX 10 10 0 -2
BITMAP
0400
7FC0
1100
7FC0
4340
1C00
0700
7C40
07C0
0000
ENDCHAR
STARTCHAR 5039
ENCODING 20150
SWIDTH 960 0
DWIDTH 10 0
BBX 10 10 0 -2
BITMAP
0400
7FC0
2E80
2080
3F80
1100
1F00
1100
7FC0
0000
ENDCHAR
STARTCHAR 3f4d
ENCODING 20154
SWIDTH 960 0
DWIDTH 10 0
BBX 10 10 0 -2
BITMAP
0400
0400
0400
0A00
0A00
1100
1100
2080
4040
0000
ENDCHAR
STARTCHAR 3d3a
ENCODING 20160
SWIDTH 960 0
DWIDTH 10 0
BBX 10 10 0 -2
BITMAP
1200
1200
2200
2FC0
6200
2200
2200
2200
2200
0000
ENDCHAR
STARTCHAR 3f4e
ENCODING 20161
SWIDTH 960 0
DWIDTH 10 0
BBX 10 10 0 -2
BITMAP
1000
1000
2780
2000
6000
2000
2000
2FC0
2000
0000
ENDCHAR
STARTCHAR 503e
ENCODING 20162
SWIDTH 960 0
DWIDTH 10 0
BBX 10 10 0 -2
BITMAP
1200
1200
2FC0
2240
6240
2240
2240
2440
2980
0000
ENDCHAR
STARTCHAR 503c
ENCODING 20164
SWIDTH 960 0
DWIDTH 10 0
BBX 10 10 0 -2
BITMAP
3FC0
2000
2200
2200
2200
2500
2500
4880
5040
0000
ENDCHAR
STARTCHAR 503d
ENCODING 20166
SWIDTH 960 0
DWIDTH 10 0
BBX 10 10 0 -2
BITMAP
1200
1200
2200
2300
6280
2240
2200
2200
2200
0000
ENDCHAR
STARTCHAR 3558
ENCODING 20167
SWIDTH 960 0
DWIDTH 10 0
BBX 10 10 0 -2
BITMAP
1400
1400
2F00
2500
6500
2500
2500
2940
31C0
0000
ENDCHAR
STARTCHAR 3a23
ENCODING 20170
SWIDTH 960 0
DWIDTH 10 0
BBX 10 10 0 -2
BITMAP
0400
0A00
1100
6EC0
0000
3F00
0100
0200
0400
0000
ENDCHAR
STARTCHAR 3270
ENCODING 20171
SWIDTH 960 0
DWIDTH 10 0
BBX 10 10 0 -2
BITMAP
0400
0A00
1100
3180
5140
1100
1100
2100
4100
0000
ENDCHAR
STARTCHAR 503b
ENCODING 20173
SWIDTH 960 0
DWIDTH 10 0
BBX 10 10 0 -2
BITMAP
1000
1780
2280
2280
62C0
2240
2440
2440
29C0
0000
ENDCHAR
STARTCHAR 503a
ENCODING 20174
SWIDTH 960 0
DWIDTH 10 0
BBX 10 10 0 -2
BITMAP
1100
1100
1100
1100
2900
2A80
2280
4440
4440
0000
ENDCHAR
STARTCHAR 4a29
ENCODING 20175
SWIDTH 960 0
DWIDTH 10 0
BBX 10 10 0 -2
BITMAP
1200
1200
2200
2200
6200
2400
2480
24C0
2F40
0000
ENDCHAR
STARTCHAR 3b46
ENCODING 20180
SWIDTH 960 0
DWIDTH 10 0
BBX 10 10 0 -2
BITMAP
1000
1780
2100
2200
6FC0
2200
2200
2200
2600
0000
ENDCHAR
STARTCHAR 3b45
ENCODING 20181
SWIDTH 960 0
DWIDTH 10 0
BBX 10 10 0 -2
BITMAP
1200
1200
2200
2FC0
6200
2200
2200
2200
2780
0000
ENDCHAR
STARTCHAR 423e
ENCODING 20182
SWIDTH 960 0
DWIDTH 10 0
BBX 10 10 0 -2
BITMAP
1100
1500
25C0
2740
6D40
2540
2400
2440
27C0
0000
ENDCHAR
STARTCHAR 503f
ENCODING 20183
SWIDTH 960 0
DWIDTH 10 0
BBX 10 10 0 -2
BITMAP
1100
1100
2FC0
2100
6500
2500
2200
2500
28C0
0000
ENDCHAR
STARTCHAR 4955
ENCODING 20184
SWIDTH 960 0
DWIDTH 10 0
BBX 10 10 0 -2
BITMAP
1080
1080
2FC0
2080
6480
2280
2080
2080
2180
0000
ENDCHAR
STARTCHAR 4067
ENCODING 20185
SWIDTH 960 0
DWIDTH 10 0
BBX 10 10 0 -2
BITMAP
1100
1100
2540
2540
6540
2540
2540
2540
27C0
0000
ENDCHAR
STARTCHAR 2138
ENCODING 20189
SWIDTH 960 0
DWIDTH 10 0
BBX 10 10 0 -2
BITMAP
0400
0A00
1100
2080
5F40
0400
0400
0400
3F80
0000
ENDCHAR
STARTCHAR 5040
ENCODING 20190
SWIDTH 960 0
DWIDTH 10 0
BBX 10 10 0 -2
BITMAP
1000
17C0
2240
2240
6A40
2640
2240
2440
28C0
0000
ENDCHAR
STARTCHAR 5042
ENCODING 20191
SWIDTH 960 0
DWIDTH 10 0
BBX 10 10 0 -2
BITMAP
10C0
1700
2100
2100
67C0
2100
2100
2100
2100
0000
ENDCHAR
STARTCHAR 4265
ENCODING 20195
SWIDTH 960 0
DWIDTH 10 0
BBX 10 10 0 -2
BITMAP
1280
1240
2200
2FC0
6200
2200
2100
2140
20C0
0000
ENDCHAR
STARTCHAR 4e61
ENCODING 20196
SWIDTH 960 0
DWIDTH 10 0
BBX 10 10 0 -2
BITMAP
0400
0A00
1100
6EC0
0000
3F80
0480
0580
0400
0000
ENDCHAR
STARTCHAR 304a
ENCODING 20197
SWIDTH 960 0
DWIDTH 10 0
BBX 10 10 0 -2
BITMAP
2080
2880
2480
2080
2080
2900
3100
6280
0C40
0000
ENDCHAR
STARTCHAR 5041
ENCODING 20205
SWIDTH 960 0
DWIDTH 10 0
BBX 10 10 0 -2
BITMAP
1000
1780
2280
2280
6A80
2680
2380
24C0
2980
0000
ENDCHAR
STARTCHAR 323e
ENCODING 20206
SWIDTH 960 0
DWIDTH 10 0
BBX 10 10 0 -2
BITMAP
17C0
1400
2780
2480
6680
2680
2500
2980
2A40
0000
ENDCHAR
STARTCHAR 3644
ENCODING 20208
SWIDTH 960 0
DWIDTH 10 0
BBX 10 10 0 -2
BITMAP
1200
1DC0
2940
2940
6940
2940
2F40
29C0
2100
0000
ENDCHAR
STARTCHAR 4367
ENCODING 20210
SWIDTH 960 0
DWIDTH 10 0
BBX 10 10 0 -2
BITMAP
1200
1200
2F80
2A80
6A80
2F80
2200
2200
2200
0000
ENDCHAR
STARTCHAR 376f
ENCODING 20214
SWIDTH 960 0
DWIDTH 10 0
BBX 10 10 0 -2
BITMAP
1100
1500
27C0
2900
6100
2FC0
2100
2100
2100
0000
ENDCHAR
STARTCHAR 5043
ENCODING 20215
SWIDTH 960 0
DWIDTH 10 0
BBX 10 10 0 -2
BITMAP
1000
1300
2480
6840
2280
2280
2280
2280
2480
0000
ENDCHAR
STARTCHAR 4724
ENCODING 20219
SWIDTH 960 0
DWIDTH 10 0
BBX 10 10 0 -2
BITMAP
1180
1600
2200
2200
6FC0
2200
2200
2200
2FC0
0000
ENDCHAR
STARTCHAR 346b
ENCODING 20225
SWIDTH 960 0
DWIDTH 10 0
BBX 10 10 0 -2
BITMAP
0400
0A00
1100
64C0
0400
1700
1400
1400
7FC0
0000
ENDCHAR
STARTCHAR 5044
ENCODING 20233
SWIDTH 960 0
DWIDTH 10 0
BBX 10 10 0 -2
BITMAP
1100
17C0
2000
6380
2280
2280
2280
2280
24C0
0000
ENDCHAR
STARTCHAR 304b
ENCODING 20234
SWIDTH 960 0
DWIDTH 10 0
BBX 10 10 0 -2
BITMAP
1780
1280
2FC0
2280
6280
2780
2200
2200
2400
0000
ENDCHAR
STARTCHAR 3860
ENCODING 20237
SWIDTH 960 0
DWIDTH 10 0
BBX 10 10 0 -2
BITMAP
1000
1FC0
2200
2200
6F80
2480
2480
2480
2FC0
0000
ENDCHAR
STARTCHAR 346c
ENCODING 20238
SWIDTH 960 0
DWIDTH 10 0
BBX 10 10 0 -2
BITMAP
1100
1100
27C0
2100
6380
2280
2100
2280
2440
0000
ENDCHAR
STARTCHAR 497a
ENCODING 20239
SWIDTH 960 0
DWIDTH 10 0
BBX 10 10 0 -2
BITMAP
1280
1200
2FC0
2200
6200
2200
2500
2480
2840
0000
ENDCHAR
STARTCHAR 4832
ENCODING 20240
SWIDTH 960 0
DWIDTH 10 0
BBX 10 10 0 -2
BITMAP
1280
1200
2FC0
2200
6240
2280
2100
2340
24C0
0000
ENDCHAR
STARTCHAR 3559
ENCODING 20241
SWIDTH 960 0
DWIDTH 10 0
BBX 10 10 0 -2
BITMAP
1200
1200
2FC0
2200
6700
2700
2A80
3240
2200
0000
ENDCHAR
STARTCHAR 3271
ENCODING 20250
SWIDTH 960 0
DWIDTH 10 0
BBX 10 10 0 -2
BITMAP
0400
0A00
1100
6EC0
0000
3F80
0800
1100
3E80
0000
ENDCHAR
STARTCHAR 5067
ENCODING 20252
SWIDTH 960 0
DWIDTH 10 0
BBX 10 10 0 -2
BITMAP
1200
1780
2280
24C0
6100
2100
27C0
2100
2100
0000
ENDCHAR
STARTCHAR 4541
ENCODING 20253
SWIDTH 960 0
DWIDTH 10 0
BBX 10 10 0 -2
BITMAP
1000
1780
2000
2FC0
6200
2200
2480
24C0
2F40
0000
ENDCHAR
STARTCHAR 476c
ENCODING 20271
SWIDTH 960 0
DWIDTH 10 0
BBX 10 10 0 -2
BITMAP
1100
1200
27C0
2440
6440
27C0
2440
2440
27C0
0000
ENDCHAR
STARTCHAR 5046
ENCODING 20272
SWIDTH 960 0
DWIDTH 10 0
BBX 10 10 0 -2
BITMAP
1100
1100
2FC0
2100
6100
27C0
2440
2440
27C0
0000
ENDCHAR
STARTCHAR 483c
ENCODING 20276
SWIDTH 960 0
DWIDTH 10 0
BBX 10 10 0 -2
BITMAP
1540
1540
2100
27C0
6100
27C0
2100
2100
2100
0000
ENDCHAR
STARTCHAR 4e62
ENCODING 20278
SWIDTH 960 0
DWIDTH 10 0
BBX 10 10 0 -2
BITMAP
1300
1480
2B40
2000
6780
2280
2280
2380
2200
0000
ENDCHAR
STARTCHAR 3f2d
ENCODING 20280
SWIDTH 960 0
DWIDTH 10 0
BBX 10 10 0 -2
BITMAP
1100
17C0
2540
27C0
6540
27C0
2100
2100
2100
0000
ENDCHAR
STARTCHAR 3b47
ENCODING 20282
SWIDTH 960 0
DWIDTH 10 0
BBX 10 10 0 -2
BITMAP
1000
17C0
2040
2740
6040
2740
2540
2740
20C0
0000
ENDCHAR
STARTCHAR 3b77
ENCODING 20284
SWIDTH 960 0
DWIDTH 10 0
BBX 10 10 0 -2
BITMAP
1040
1440
2540
2540
6440
2640
2C80
2140
2640
0000
ENDCHAR
STARTCHAR 3240
ENCODING 20285
SWIDTH 960 0
DWIDTH 10 0
BBX 10 10 0 -2
BITMAP
1400
1400
2FC0
2540
6540
2540
2540
2940
2BC0
0000
ENDCHAR
STARTCHAR 4451
ENCODING 20291
SWIDTH 960 0
DWIDTH 10 0
BBX 10 10 0 -2
BITMAP
1000
17C0
2540
2540
67C0
2540
2540
2540
27C0
0000
ENDCHAR
STARTCHAR 4322
ENCODING 20294
SWIDTH 960 0
DWIDTH 10 0
BBX 10 10 0 -2
BITMAP
1780
1480
2480
2780
6480
2480
2780
2000
2FC0
0000
ENDCHAR
STARTCHAR 504a
ENCODING 20295
SWIDTH 960 0
DWIDTH 10 0
BBX 10 10 0 -2
BITMAP
1100
17C0
2440
2000
67C0
2100
2100
2100
2300
0000
ENDCHAR
STARTCHAR 304c
ENCODING 20301
SWIDTH 960 0
DWIDTH 10 0
BBX 10 10 0 -2
BITMAP
1200
1200
2FC0
2480
6480
2480
2480
2480
2FC0
0000
ENDCHAR
STARTCHAR 4463
ENCODING 20302
SWIDTH 960 0
DWIDTH 10 0
BBX 10 10 0 -2
BITMAP
10C0
1700
2500
27C0
6500
2480
2E40
2000
27C0
0000
ENDCHAR
STARTCHAR 3d3b
ENCODING 20303
SWIDTH 960 0
DWIDTH 10 0
BBX 10 10 0 -2
BITMAP
1200
1100
27C0
2100
6100
27C0
2100
2100
27C0
0000
ENDCHAR
STARTCHAR 3a34
ENCODING 20304
SWIDTH 960 0
DWIDTH 10 0
BBX 10 10 0 -2
BITMAP
1200
1200
2FC0
2400
6400
2780
2900
2100
2FC0
0000
ENDCHAR
STARTCHAR 4d24
ENCODING 20305
SWIDTH 960 0
DWIDTH 10 0
BBX 10 10 0 -2
BITMAP
1200
1200
2FC0
2200
6400
27C0
2A40
2A40
23C0
0000
ENDCHAR
STARTCHAR 424e
ENCODING 20307
SWIDTH 960 0
DWIDTH 10 0
BBX 10 10 0 -2
BITMAP
1200
1200
2FC0
2200
6700
2A80
3240
2700
2200
0000
ENDCHAR
STARTCHAR 323f
ENCODING 20309
SWIDTH 960 0
DWIDTH 10 0
BBX 10 10 0 -2
BITMAP
1000
1FC0
2080
2E80
6A80
2A80
2E80
2080
2180
0000
ENDCHAR
STARTCHAR 5049
ENCODING 20311
SWIDTH 960 0
DWIDTH 10 0
BBX 10 10 0 -2
BITMAP
1200
1FC0
2840
2400
6580
2600
2400
2440
27C0
0000
ENDCHAR
STARTCHAR 4d3e
ENCODING 20313
SWIDTH 960 0
DWIDTH 10 0
BBX 10 10 0 -2
BITMAP
0400
0A00
1100
6EC0
0400
3FC0
0400
2480
4C40
0000
ENDCHAR
STARTCHAR 5045
ENCODING 20314
SWIDTH 960 0
DWIDTH 10 0
BBX 10 10 0 -2
BITMAP
1100
1500
27C0
2100
67C0
2100
2100
2280
2440
0000
ENDCHAR
STARTCHAR 5047
ENCODING 20315
SWIDTH 960 0
DWIDTH 10 0
BBX 10 10 0 -2
BITMAP
1300
1FC0
2340
2FC0
6B00
2FC0
2340
25C0
2900
0000
ENDCHAR
STARTCHAR 3a6e
ENCODING 20316
SWIDTH 960 0
DWIDTH 10 0
BBX 10 10 0 -2
BITMAP
1200
1200
27C0
2A00
63C0
2200
23C0
2200
2200
0000
ENDCHAR
STARTCHAR 5048
ENCODING 20317
SWIDTH 960 0
DWIDTH 10 0
BBX 10 10 0 -2
BITMAP
1200
17C0
2840
2740
6540
2540
2740
2040
2180
0000
ENDCHAR
STARTCHAR 5524
ENCODING 20318
SWIDTH 960 0
DWIDTH 10 0
BBX 10 10 0 -2
BITMAP
1300
1000
2FC0
2200
6FC0
2480
2700
2280
2C40
0000
ENDCHAR
STARTCHAR 5050
ENCODING 20329
SWIDTH 960 0
DWIDTH 10 0
BBX 10 10 0 -2
BITMAP
3FC0
3040
5740
5240
DFC0
5AC0
5AC0
5AC0
5240
0000
ENDCHAR
STARTCHAR 5053
ENCODING 20335
SWIDTH 960 0
DWIDTH 10 0
BBX 10 10 0 -2
BITMAP
1440
1280
27C0
2100
67C0
2100
27C0
2100
2100
0000
ENDCHAR
STARTCHAR 5051
ENCODING 20336
SWIDTH 960 0
DWIDTH 10 0
BBX 10 10 0 -2
BITMAP
17C0
1100
2200
27C0
6440
27C0
2440
2440
27C0
0000
ENDCHAR
STARTCHAR 3242
ENCODING 20339
SWIDTH 960 0
DWIDTH 10 0
BBX 10 10 0 -2
BITMAP
1200
1780
2200
2FC0
6200
2200
2780
2200
2FC0
0000
ENDCHAR
STARTCHAR 4a3b
ENCODING 20341
SWIDTH 960 0
DWIDTH 10 0
BBX 10 10 0 -2
BITMAP
1480
1300
2FC0
2480
6480
2FC0
2480
2480
2880
0000
ENDCHAR
STARTCHAR 504b
ENCODING 20342
SWIDTH 960 0
DWIDTH 10 0
BBX 10 10 0 -2
BITMAP
1100
17C0
2100
27C0
6000
2000
27C0
2440
27C0
0000
ENDCHAR
STARTCHAR 504f
ENCODING 20347
SWIDTH 960 0
DWIDTH 10 0
BBX 10 10 0 -2
BITMAP
1280
1280
26C0
2280
6280
26C0
2280
2280
24C0
0000
ENDCHAR
STARTCHAR 3873
ENCODING 20348
SWIDTH 960 0
DWIDTH 10 0
BBX 10 10 0 -2
BITMAP
1100
17C0
2280
2440
6280
2280
2100
2280
2440
0000
ENDCHAR
STARTCHAR 3b48
ENCODING 20351
SWIDTH 960 0
DWIDTH 10 0
BBX 10 10 0 -2
BITMAP
1200
1FC0
2200
2FC0
6A40
2FC0
2A00
2600
2DC0
0000
ENDCHAR
STARTCHAR 3426
ENCODING 20355
SWIDTH 960 0
DWIDTH 10 0
BBX 10 10 0 -2
BITMAP
1F80
1880
2880
2F80
6000
2A80
2A80
2A80
32C0
0000
ENDCHAR
STARTCHAR 5054
ENCODING 20358
SWIDTH 960 0
DWIDTH 10 0
BBX 10 10 0 -2
BITMAP
0400
7FC0
1500
1500
2E80
4440
0E00
1500
64C0
0000
ENDCHAR
STARTCHAR 504c
ENCODING 20360
SWIDTH 960 0
DWIDTH 10 0
BBX 10 10 0 -2
BITMAP
11C0
1640
2180
2F00
6000
21C0
2640
2180
2F00
0000
ENDCHAR
STARTCHAR 4e63
ENCODING 20363
SWIDTH 960 0
DWIDTH 10 0
BBX 10 10 0 -2
BITMAP
3E40
2940
4D40
5540
DD40
6540
4540
4840
50C0
0000
ENDCHAR
STARTCHAR 3b78
ENCODING 20365
SWIDTH 960 0
DWIDTH 10 0
BBX 10 10 0 -2
BITMAP
1100
1780
2100
6FC0
2080
2FC0
2080
2480
2180
0000
ENDCHAR
STARTCHAR 504d
ENCODING 20367
SWIDTH 960 0
DWIDTH 10 0
BBX 10 10 0 -2
BITMAP
1100
1500
27C0
2100
67C0
2100
2380
2540
2100
0000
ENDCHAR
STARTCHAR 5052
ENCODING 20369
SWIDTH 960 0
DWIDTH 10 0
BBX 10 10 0 -2
BITMAP
1100
17C0
2200
27C0
6A40
23C0
2240
23C0
2240
0000
ENDCHAR
STARTCHAR 5055
ENCODING 20374
SWIDTH 960 0
DWIDTH 10 0
BBX 10 10 0 -2
BITMAP
0400
0A00
1F00
60C0
3F80
2A80
3F80
2A80
2A80
0000
ENDCHAR
STARTCHAR 504e
ENCODING 20376
SWIDTH 960 0
DWIDTH 10 0
BBX 10 10 0 -2
BITMAP
1200
1FC0
2840
2780
6200
23C0
2E00
2240
23C0
0000
ENDCHAR
STARTCHAR 3621
ENCODING 20379
SWIDTH 960 0
DWIDTH 10 0
BBX 10 10 0 -2
BITMAP
1500
1500
2F80
2500
6500
2FC0
2000
2500
2880
0000
ENDCHAR
STARTCHAR 304d
ENCODING 20381
SWIDTH 960 0
DWIDTH 10 0
BBX 10 10 0 -2
BITMAP
1200
1200
2FC0
2400
6640
2D80
3500
2680
2C40
0000
ENDCHAR
STARTCHAR 3622
ENCODING 20384
SWIDTH 960 0
DWIDTH 10 0
BBX 10 10 0 -2
BITMAP
1200
1FC0
2200
2A80
6700
2FC0
2200
2500
28C0
0000
ENDCHAR
STARTCHAR 3241
ENCODING 20385
SWIDTH 960 0
DWIDTH 10 0
BBX 10 10 0 -2
BITMAP
2000
3FC0
4500
5FC0
D540
5540
5540
5540
5FC0
0000
ENDCHAR
STARTCHAR 5525
ENCODING 20395
SWIDTH 960 0
DWIDTH 10 0
BBX 10 10 0 -2
BITMAP
1200
17C0
2400
2380
6200
2FC0
2480
2700
2CC0
0000
ENDCHAR
STARTCHAR 4b79
ENCODING 20397
SWIDTH 960 0
DWIDTH 10 0
BBX 10 10 0 -2
BITMAP
17C0
1440
27C0
2480
6480
2B40
2000
2300
2080
0000
ENDCHAR
STARTCHAR 496e
ENCODING 20398
SWIDTH 960 0
DWIDTH 10 0
BBX 10 10 0 -2
BITMAP
1400
1FC0
2000
2F80
6A80
3FC0
2A80
2FC0
2180
0000
ENDCHAR
STARTCHAR 3874
ENCODING 20399
SWIDTH 960 0
DWIDTH 10 0
BBX 10 10 0 -2
BITMAP
1780
1080
2FC0
2200
67C0
2900
27C0
2280
2440
0000
ENDCHAR
STARTCHAR 3f2f
ENCODING 20405
SWIDTH 960 0
DWIDTH 10 0
BBX 10 10 0 -2
BITMAP
1780
1080
2080
6FC0
2840
2780
2480
2300
2CC0
0000
ENDCHAR
STARTCHAR 4e37
ENCODING 20406
SWIDTH 960 0
DWIDTH 10 0
BBX 10 10 0 -2
BITMAP
1780
1480
2480
2780
6200
2FC0
2840
2840
2FC0
0000
ENDCHAR
STARTCHAR 4a58
ENCODING 20415
SWIDTH 960 0
DWIDTH 10 0
BBX 10 10 0 -2
BITMAP
17C0
1100
27C0
2540
67C0
2540
27C0
2300
2EC0
0000
ENDCHAR
STARTCHAR 3738
ENCODING 20418
SWIDTH 960 0
DWIDTH 10 0
BBX 10 10 0 -2
BITMAP
1180
1600
2280
2500
6240
2FC0
2100
2540
2540
0000
ENDCHAR
STARTCHAR 4225
ENCODING 20419
SWIDTH 960 0
DWIDTH 10 0
BBX 10 10 0 -2
BITMAP
17C0
1440
27C0
2100
6100
25C0
2500
2700
29C0
0000
ENDCHAR
STARTCHAR 3264
ENCODING 20420
SWIDTH 960 0
DWIDTH 10 0
BBX 10 10 0 -2
BITMAP
1300
1D40
2500
2FC0
6500
2740
2D40
2480
2D40
0000
ENDCHAR
STARTCHAR 3d53
ENCODING 20426
SWIDTH 960 0
DWIDTH 10 0
BBX 10 10 0 -2
BITMAP
1200
1480
2FC0
2500
69C0
2380
2C80
2300
2CC0
0000
ENDCHAR
STARTCHAR 5059
ENCODING 20430
SWIDTH 960 0
DWIDTH 10 0
BBX 10 10 0 -2
BITMAP
2380
2280
5380
4280
0280
2380
2280
5280
47C0
0000
ENDCHAR
STARTCHAR 505e
ENCODING 20432
SWIDTH 960 0
DWIDTH 10 0
BBX 10 10 0 -2
BITMAP
1240
1D40
2540
2F40
6540
2740
2D40
2440
24C0
0000
ENDCHAR
STARTCHAR 505c
ENCODING 20433
SWIDTH 960 0
DWIDTH 10 0
BBX 10 10 0 -2
BITMAP
17C0
1180
27C0
2540
67C0
2540
27C0
2540
2540
0000
ENDCHAR
STARTCHAR 5057
ENCODING 20436
SWIDTH 960 0
DWIDTH 10 0
BBX 10 10 0 -2
BITMAP
1780
1480
2780
2480
6780
2480
2780
2500
29C0
0000
ENDCHAR
STARTCHAR 422f
ENCODING 20439
SWIDTH 960 0
DWIDTH 10 0
BBX 10 10 0 -2
BITMAP
1480
1840
2300
2480
6840
2780
2480
2480
2780
0000
ENDCHAR
STARTCHAR 505a
ENCODING 20440
SWIDTH 960 0
DWIDTH 10 0
BBX 10 10 0 -2
BITMAP
1180
1680
2A40
2000
6780
2100
2FC0
2100
2300
0000
ENDCHAR
STARTCHAR 505d
ENCODING 20442
SWIDTH 960 0
DWIDTH 10 0
BBX 10 10 0 -2
BITMAP
17C0
1540
27C0
2540
67C0
2100
27C0
2100
2FC0
0000
ENDCHAR
STARTCHAR 505b
ENCODING 20443
SWIDTH 960 0
DWIDTH 10 0
BBX 10 10 0 -2
BITMAP
1380
1480
2FC0
2540
6540
27C0
2300
2540
29C0
0000
ENDCHAR
STARTCHAR 4a5d
ENCODING 20445
SWIDTH 960 0
DWIDTH 10 0
BBX 10 10 0 -2
BITMAP
17C0
1440
2440
27C0
6100
27C0
2100
2380
2540
0000
ENDCHAR
STARTCHAR 5058
ENCODING 20447
SWIDTH 960 0
DWIDTH 10 0
BBX 10 10 0 -2
BITMAP
1100
1240
27C0
2200
67C0
2100
27C0
2280
2440
0000
ENDCHAR
STARTCHAR 3f2e
ENCODING 20449
SWIDTH 960 0
DWIDTH 10 0
BBX 10 10 0 -2
BITMAP
1300
1000
2FC0
2000
6780
2000
2780
2480
2780
0000
ENDCHAR
STARTCHAR 4b73
ENCODING 20451
SWIDTH 960 0
DWIDTH 10 0
BBX 10 10 0 -2
BITMAP
1780
1480
2780
2000
6780
2200
2FC0
2500
28C0
0000
ENDCHAR
STARTCHAR 505f
ENCODING 20452
SWIDTH 960 0
DWIDTH 10 0
BBX 10 10 0 -2
BITMAP
1280
17C0
2140
27C0
6500
27C0
2340
2540
2940
0000
ENDCHAR
STARTCHAR 5060
ENCODING 20453
SWIDTH 960 0
DWIDTH 10 0
BBX 10 10 0 -2
BITMAP
1100
17C0
2100
27C0
6540
27C0
2100
27C0
2100
0000
ENDCHAR
STARTCHAR 3d24
ENCODING 20462
SWIDTH 960 0
DWIDTH 10 0
BBX 10 10 0 -2
BITMAP
1200
13C0
2680
2900
6AC0
2880
2B00
28C0
2300
0000
ENDCHAR
STARTCHAR 506d
ENCODING 20463
SWIDTH 960 0
DWIDTH 10 0
BBX 10 10 0 -2
BITMAP
1100
1FC0
2800
2940
6BC0
2E40
2AC0
2A40
2AC0
0000
ENDCHAR
STARTCHAR 4750
ENCODING 20467
SWIDTH 960 0
DWIDTH 10 0
BBX 10 10 0 -2
BITMAP
1500
1500
2DC0
2500
6DC0
2500
2DC0
2500
2900
0000
ENDCHAR
STARTCHAR 4936
ENCODING 20469
SWIDTH 960 0
DWIDTH 10 0
BBX 10 10 0 -2
BITMAP
1100
17C0
2100
27C0
6100
2FC0
2540
2C80
2640
0000
ENDCHAR
STARTCHAR 5068
ENCODING 20470
SWIDTH 960 0
DWIDTH 10 0
BBX 10 10 0 -2
BITMAP
1400
1600
25C0
2F40
6540
2540
2E80
2540
2D40
0000
ENDCHAR
STARTCHAR 4a70
ENCODING 20472
SWIDTH 960 0
DWIDTH 10 0
BBX 10 10 0 -2
BITMAP
2200
2F80
4500
5FC0
CA80
5740
4200
4F80
4200
0000
ENDCHAR
STARTCHAR 3236
ENCODING 20474
SWIDTH 960 0
DWIDTH 10 0
BBX 10 10 0 -2
BITMAP
1200
1FC0
2500
2A80
7FC0
2A80
2F80
2240
23C0
0000
ENDCHAR
STARTCHAR 506c
ENCODING 20478
SWIDTH 960 0
DWIDTH 10 0
BBX 10 10 0 -2
BITMAP
1100
17C0
2540
27C0
6540
27C0
2280
2FC0
2080
0000
ENDCHAR
STARTCHAR 5066
ENCODING 20485
SWIDTH 960 0
DWIDTH 10 0
BBX 10 10 0 -2
BITMAP
1100
17C0
2280
2280
6540
2100
27C0
2100
2100
0000
ENDCHAR
STARTCHAR 506f
ENCODING 20486
SWIDTH 960 0
DWIDTH 10 0
BBX 10 10 0 -2
BITMAP
1FC0
1200
2FC0
2A40
6F40
2F40
2AC0
2A40
2AC0
0000
ENDCHAR
STARTCHAR 4152
ENCODING 20489
SWIDTH 960 0
DWIDTH 10 0
BBX 10 10 0 -2
BITMAP
0400
1B00
7FC0
1100
1F00
1100
3F80
5080
1F80
0000
ENDCHAR
STARTCHAR 3844
ENCODING 20491
SWIDTH 960 0
DWIDTH 10 0
BBX 10 10 0 -2
BITMAP
1FC0
1A40
2F40
2A40
6F40
2D40
2F40
2840
2FC0
0000
ENDCHAR
STARTCHAR 475c
ENCODING 20493
SWIDTH 960 0
DWIDTH 10 0
BBX 10 10 0 -2
BITMAP
1100
17C0
2280
2FC0
6000
27C0
2440
2440
27C0
0000
ENDCHAR
STARTCHAR 6047
ENCODING 20495
SWIDTH 960 0
DWIDTH 10 0
BBX 10 10 0 -2
BITMAP
2380
2680
5100
D6C0
5000
5140
57C0
5280
4440
0000
ENDCHAR
STARTCHAR 506e
ENCODING 20497
SWIDTH 960 0
DWIDTH 10 0
BBX 10 10 0 -2
BITMAP
16C0
16C0
26C0
2440
6440
2440
2440
2440
24C0
0000
ENDCHAR
STARTCHAR 455d
ENCODING 20498
SWIDTH 960 0
DWIDTH 10 0
BBX 10 10 0 -2
BITMAP
1040
1F40
2540
2F40
6140
2540
2F40
2440
2F40
0000
ENDCHAR
STARTCHAR 5063
ENCODING 20500
SWIDTH 960 0
DWIDTH 10 0
BBX 10 10 0 -2
BITMAP
17C0
1440
27C0
2500
6540
27C0
2500
2D40
2BC0
0000
ENDCHAR
STARTCHAR 3876
ENCODING 20502
SWIDTH 960 0
DWIDTH 10 0
BBX 10 10 0 -2
BITMAP
1200
1780
2200
2FC0
6480
2FC0
2200
2780
2200
0000
ENDCHAR
STARTCHAR 3875
ENCODING 20505
SWIDTH 960 0
DWIDTH 10 0
BBX 10 10 0 -2
BITMAP
1380
1080
27C0
2100
6BC0
2900
2BC0
2980
2240
0000
ENDCHAR
STARTCHAR 5061
ENCODING 20506
SWIDTH 960 0
DWIDTH 10 0
BBX 10 10 0 -2
BITMAP
1100
17C0
2100
2280
6FC0
2080
2680
2680
2180
0000
ENDCHAR
STARTCHAR 3c5a
ENCODING 20511
SWIDTH 960 0
DWIDTH 10 0
BBX 10 10 0 -2
BITMAP
1480
1FC0
2480
2FC0
6000
2780
2480
2480
2780
0000
ENDCHAR
STARTCHAR 5069
ENCODING 20513
SWIDTH 960 0
DWIDTH 10 0
BBX 10 10 0 -2
BITMAP
1780
1480
2780
2480
6FC0
2840
2FC0
2840
2FC0
0000
ENDCHAR
STARTCHAR 4a6f
ENCODING 20515
SWIDTH 960 0
DWIDTH 10 0
BBX 10 10 0 -2
BITMAP
2500
2500
5FC0
4940
CF40
4B40
4A80
52C0
5740
0000
ENDCHAR
STARTCHAR 434d
ENCODING 20516
SWIDTH 960 0
DWIDTH 10 0
BBX 10 10 0 -2
BITMAP
1100
17C0
2100
2B80
6A80
2A80
2B80
2800
2FC0
0000
ENDCHAR
STARTCHAR 5065
ENCODING 20517
SWIDTH 960 0
DWIDTH 10 0
BBX 10 10 0 -2
BITMAP
1100
17C0
2440
2280
64C0
2000
2380
2100
27C0
0000
ENDCHAR
STARTCHAR 3771
ENCODING 20518
SWIDTH 960 0
DWIDTH 10 0
BBX 10 10 0 -2
BITMAP
2A80
2F80
4500
5FC0
C880
5740
4700
4440
47C0
0000
ENDCHAR
STARTCHAR 5062
ENCODING 20520
SWIDTH 960 0
DWIDTH 10 0
BBX 10 10 0 -2
BITMAP
17C0
1440
27C0
2480
67C0
2480
2BC0
2A40
23C0
0000
ENDCHAR
STARTCHAR 506a
ENCODING 20521
SWIDTH 960 0
DWIDTH 10 0
BBX 10 10 0 -2
BITMAP
2200
2F80
4200
5FC0
CA80
4F80
4880
4880
4980
0000
ENDCHAR
STARTCHAR 5064
ENCODING 20522
SWIDTH 960 0
DWIDTH 10 0
BBX 10 10 0 -2
BITMAP
12C0
1440
26C0
2440
67C0
2280
2280
2280
24C0
0000
ENDCHAR
STARTCHAR 4e51
ENCODING 20523
SWIDTH 960 0
DWIDTH 10 0
BBX 10 10 0 -2
BITMAP
1100
1280
2440
2B80
6000
27C0
2540
27C0
2540
0000
ENDCHAR
STARTCHAR 506b
ENCODING 20524
SWIDTH 960 0
DWIDTH 10 0
BBX 10 10 0 -2
BITMAP
1200
1380
2200
2F80
6880
2F80
2200
3FC0
2200
0000
ENDCHAR
STARTCHAR 4f41
ENCODING 20525
SWIDTH 960 0
DWIDTH 10 0
BBX 10 10 0 -2
BITMAP
1780
1200
2FC0
2680
6A40
2FC0
2480
2700
2CC0
0000
ENDCHAR
STARTCHAR 3666
ENCODING 20534
SWIDTH 960 0
DWIDTH 10 0
BBX 10 10 0 -2
BITMAP
1780
1480
2780
2480
6780
2480
2FC0
2480
2840
0000
ENDCHAR
STARTCHAR 3770
ENCODING 20537
SWIDTH 960 0
DWIDTH 10 0
BBX 10 10 0 -2
BITMAP
1200
1500
2F80
3240
6F80
2A80
2F80
2500
2880
0000
ENDCHAR
STARTCHAR 5070
ENCODING 20547
SWIDTH 960 0
DWIDTH 10 0
BBX 10 10 0 -2
BITMAP
2FC0
2A80
2B80
6900
2FC0
2A80
2980
2A40
2FC0
0000
ENDCHAR
STARTCHAR 5071
ENCODING 20551
SWIDTH 960 0
DWIDTH 10 0
BBX 10 10 0 -2
BITMAP
2EC0
2A40
4EC0
4800
CDC0
4940
4D40
4880
4940
0000
ENDCHAR
STARTCHAR 5075
ENCODING 20552
SWIDTH 960 0
DWIDTH 10 0
BBX 10 10 0 -2
BITMAP
1780
1480
2780
2200
67C0
2540
2A40
2340
2080
0000
ENDCHAR
STARTCHAR 304e
ENCODING 20553
SWIDTH 960 0
DWIDTH 10 0
BBX 10 10 0 -2
BITMAP
1400
1F80
2480
3FC0
6500
2F80
2A00
3FC0
2200
0000
ENDCHAR
STARTCHAR 4a50
ENCODING 20559
SWIDTH 960 0
DWIDTH 10 0
BBX 10 10 0 -2
BITMAP
17C0
1000
27C0
27C0
6400
27C0
2D40
27C0
2540
0000
ENDCHAR
STARTCHAR 5074
ENCODING 20560
SWIDTH 960 0
DWIDTH 10 0
BBX 10 10 0 -2
BITMAP
2100
2FC0
4280
4FC0
C900
4A40
4980
4840
5380
0000
ENDCHAR
STARTCHAR 5073
ENCODING 20565
SWIDTH 960 0
DWIDTH 10 0
BBX 10 10 0 -2
BITMAP
1480
16C0
2480
2EC0
6100
27C0
2440
2440
27C0
0000
ENDCHAR
STARTCHAR 5077
ENCODING 20566
SWIDTH 960 0
DWIDTH 10 0
BBX 10 10 0 -2
BITMAP
1200
1780
2300
2FC0
6240
2780
2C80
2480
2780
0000
ENDCHAR
STARTCHAR 5076
ENCODING 20570
SWIDTH 960 0
DWIDTH 10 0
BBX 10 10 0 -2
BITMAP
1500
1500
2FC0
2540
6540
2F40
2A80
2E80
2140
0000
ENDCHAR
STARTCHAR 4464
ENCODING 20572
SWIDTH 960 0
DWIDTH 10 0
BBX 10 10 0 -2
BITMAP
1100
1FC0
2780
2480
6FC0
2840
2780
2100
2300
0000
ENDCHAR
STARTCHAR 3772
ENCODING 20581
SWIDTH 960 0
DWIDTH 10 0
BBX 10 10 0 -2
BITMAP
2080
3DC0
44C0
49C0
DC80
45C0
5480
4880
57C0
0000
ENDCHAR
STARTCHAR 5078
ENCODING 20588
SWIDTH 960 0
DWIDTH 10 0
BBX 10 10 0 -2
BITMAP
1400
17C0
2D40
27C0
6940
22C0
2000
2A40
2B40
0000
ENDCHAR
STARTCHAR 3c45
ENCODING 20594
SWIDTH 960 0
DWIDTH 10 0
BBX 10 10 0 -2
BITMAP
17C0
1540
27C0
2540
67C0
2000
2100
2A40
2B40
0000
ENDCHAR
STARTCHAR 4226
ENCODING 20596
SWIDTH 960 0
DWIDTH 10 0
BBX 10 10 0 -2
BITMAP
3C40
3540
5D40
5540
DD40
5540
5D40
4040
54C0
0000
ENDCHAR
STARTCHAR 4465
ENCODING 20597
SWIDTH 960 0
DWIDTH 10 0
BBX 10 10 0 -2
BITMAP
1200
13C0
2200
2780
6480
2780
2480
2780
2840
0000
ENDCHAR
STARTCHAR 3676
ENCODING 20598
SWIDTH 960 0
DWIDTH 10 0
BBX 10 10 0 -2
BITMAP
1780
1580
2680
2780
6200
2FC0
2A40
2B40
28C0
0000
ENDCHAR
STARTCHAR 5079
ENCODING 20600
SWIDTH 960 0
DWIDTH 10 0
BBX 10 10 0 -2
BITMAP
1700
1280
25C0
2000
6740
2540
2780
2540
2540
0000
ENDCHAR
STARTCHAR 3536
ENCODING 20605
SWIDTH 960 0
DWIDTH 10 0
BBX 10 10 0 -2
BITMAP
1500
1780
2280
2380
6480
27C0
2840
3540
2080
0000
ENDCHAR
STARTCHAR 507a
ENCODING 20608
SWIDTH 960 0
DWIDTH 10 0
BBX 10 10 0 -2
BITMAP
1400
2F80
2A80
6F80
2A80
2FC0
2280
2640
2BC0
0000
ENDCHAR
STARTCHAR 507c
ENCODING 20613
SWIDTH 960 0
DWIDTH 10 0
BBX 10 10 0 -2
BITMAP
1140
17C0
2100
27C0
6540
2080
27C0
2280
2080
0000
ENDCHAR
STARTCHAR 4b35
ENCODING 20621
SWIDTH 960 0
DWIDTH 10 0
BBX 10 10 0 -2
BITMAP
1200
1FC0
2500
2FC0
6A40
2780
2300
2480
2980
0000
ENDCHAR
STARTCHAR 3766
ENCODING 20625
SWIDTH 960 0
DWIDTH 10 0
BBX 10 10 0 -2
BITMAP
1680
15C0
2A80
63C0
2480
2100
2FC0
2580
2940
0000
ENDCHAR
STARTCHAR 3b31
ENCODING 20632
SWIDTH 960 0
DWIDTH 10 0
BBX 10 10 0 -2
BITMAP
0400
1B00
64C0
2480
5540
2480
5540
7FC0
0400
0000
ENDCHAR
STARTCHAR 4877
ENCODING 20633
SWIDTH 960 0
DWIDTH 10 0
BBX 10 10 0 -2
BITMAP
2480
2FC0
4480
5FC0
D000
57C0
5540
57C0
5540
0000
ENDCHAR
STARTCHAR 507b
ENCODING 20634
SWIDTH 960 0
DWIDTH 10 0
BBX 10 10 0 -2
BITMAP
1480
1E80
21C0
6B40
2140
2B40
2480
2A80
2140
0000
ENDCHAR
STARTCHAR 3a45
ENCODING 20652
SWIDTH 960 0
DWIDTH 10 0
BBX 10 10 0 -2
BITMAP
1540
1540
27C0
2280
67C0
2D00
2780
2500
27C0
0000
ENDCHAR
STARTCHAR 4d43
ENCODING 20653
SWIDTH 960 0
DWIDTH 10 0
BBX 10 10 0 -2
BITMAP
1200
1FC0
2900
2B80
6CC0
2B80
2D40
2FC0
2540
0000
ENDCHAR
STARTCHAR 507e
ENCODING 20658
SWIDTH 960 0
DWIDTH 10 0
BBX 10 10 0 -2
BITMAP
2880
3E80
49C0
5F40
C940
4F40
4A80
4A80
5740
0000
ENDCHAR
STARTCHAR 5123
ENCODING 20659
SWIDTH 960 0
DWIDTH 10 0
BBX 10 10 0 -2
BITMAP
1200
1FC0
2580
2680
6F40
2080
2FC0
2480
2180
0000
ENDCHAR
STARTCHAR 507d
ENCODING 20660
SWIDTH 960 0
DWIDTH 10 0
BBX 10 10 0 -2
BITMAP
1FC0
2800
2B80
6A80
2FC0
2D40
2FC0
2800
2FC0
0000
ENDCHAR
STARTCHAR 3a44
ENCODING 20661
SWIDTH 960 0
DWIDTH 10 0
BBX 10 10 0 -2
BITMAP
1200
1780
2200
2FC0
6480
2780
2480
2780
2840
0000
ENDCHAR
STARTCHAR 3d7d
ENCODING 20663
SWIDTH 960 0
DWIDTH 10 0
BBX 10 10 0 -2
BITMAP
1400
17C0
2A80
2280
6FC0
2400
27C0
2940
22C0
0000
ENDCHAR
STARTCHAR 3739
ENCODING 20670
SWIDTH 960 0
DWIDTH 10 0
BBX 10 10 0 -2
BITMAP
13C0
1080
29C0
2D40
69C0
2940
2DC0
2000
2140
0000
ENDCHAR
STARTCHAR 5124
ENCODING 20674
SWIDTH 960 0
DWIDTH 10 0
BBX 10 10 0 -2
BITMAP
2200
2F80
4A80
5FC0
CA80
5FC0
4500
4300
5CC0
0000
ENDCHAR
STARTCHAR 364f
ENCODING 20677
SWIDTH 960 0
DWIDTH 10 0
BBX 10 10 0 -2
BITMAP
1500
1FC0
2F80
2A80
6F80
2200
2F80
2200
2FC0
0000
ENDCHAR
STARTCHAR 5121
ENCODING 20681
SWIDTH 960 0
DWIDTH 10 0
BBX 10 10 0 -2
BITMAP
0400
1B00
6EC0
0000
7BC0
4A40
7BC0
2100
4A40
0000
ENDCHAR
STARTCHAR 5122
ENCODING 20682
SWIDTH 960 0
DWIDTH 10 0
BBX 10 10 0 -2
BITMAP
2F80
2500
4F80
4A80
CF80
4700
4980
5640
4780
0000
ENDCHAR
STARTCHAR 462f
ENCODING 20685
SWIDTH 960 0
DWIDTH 10 0
BBX 10 10 0 -2
BITMAP
2F00
2500
5FC0
5540
DF40
5540
5F40
4540
5EC0
0000
ENDCHAR
STARTCHAR 417c
ENCODING 20687
SWIDTH 960 0
DWIDTH 10 0
BBX 10 10 0 -2
BITMAP
1300
1500
2FC0
2540
67C0
2300
2DC0
2280
2D40
0000
ENDCHAR
STARTCHAR 3623
ENCODING 20689
SWIDTH 960 0
DWIDTH 10 0
BBX 10 10 0 -2
BITMAP
1780
1200
2FC0
2480
6B40
2000
2FC0
2B40
28C0
0000
ENDCHAR
STARTCHAR 4b4d
ENCODING 20693
SWIDTH 960 0
DWIDTH 10 0
BBX 10 10 0 -2
BITMAP
1540
1100
27C0
2280
67C0
2100
27C0
2280
2440
0000
ENDCHAR
STARTCHAR 5125
ENCODING 20694
SWIDTH 960 0
DWIDTH 10 0
BBX 10 10 0 -2
BITMAP
1200
1FC0
2780
2480
6780
2300
2FC0
2480
2780
0000
ENDCHAR
STARTCHAR 4e3d
ENCODING 20698
SWIDTH 960 0
DWIDTH 10 0
BBX 10 10 0 -2
BITMAP
1200
1FC0
2B40
2780
6CC0
2780
2200
2A80
2640
0000
ENDCHAR
STARTCHAR 5126
ENCODING 20702
SWIDTH 960 0
DWIDTH 10 0
BBX 10 10 0 -2
BITMAP
1780
1280
2700
2500
6780
2480
2FC0
2840
2540
0000
ENDCHAR
STARTCHAR 5129
ENCODING 20707
SWIDTH 960 0
DWIDTH 10 0
BBX 10 10 0 -2
BITMAP
1480
1DC0
2480
2DC0
6480
2F40
2480
2480
2780
0000
ENDCHAR
STARTCHAR 5127
ENCODING 20709
SWIDTH 960 0
DWIDTH 10 0
BBX 10 10 0 -2
BITMAP
1200
1780
2FC0
2480
6FC0
2480
2FC0
2500
29C0
0000
ENDCHAR
STARTCHAR 414e
ENCODING 20711
SWIDTH 960 0
DWIDTH 10 0
BBX 10 10 0 -2
BITMAP
1280
17C0
2540
27C0
6540
27C0
2280
2280
2380
0000
ENDCHAR
STARTCHAR 5128
ENCODING 20717
SWIDTH 960 0
DWIDTH 10 0
BBX 10 10 0 -2
BITMAP
1480
1D80
2FC0
2480
6940
2780
2480
2480
2780
0000
ENDCHAR
STARTCHAR 512a
ENCODING 20718
SWIDTH 960 0
DWIDTH 10 0
BBX 10 10 0 -2
BITMAP
1200
1FC0
2480
2FC0
6680
2780
2780
2200
2FC0
0000
ENDCHAR
STARTCHAR 512c
ENCODING 20725
SWIDTH 960 0
DWIDTH 10 0
BBX 10 10 0 -2
BITMAP
17C0
1680
2780
2000
6FC0
2680
2780
2000
2FC0
0000
ENDCHAR
STARTCHAR 512b
ENCODING 20729
SWIDTH 960 0
DWIDTH 10 0
BBX 10 10 0 -2
BITMAP
17C0
1280
27C0
27C0
6280
2380
2280
2380
2440
0000
ENDCHAR
STARTCHAR 4a48
ENCODING 20731
SWIDTH 960 0
DWIDTH 10 0
BBX 10 10 0 -2
BITMAP
1080
1E80
2BC0
2F40
69C0
3E80
2A80
2FC0
2080
0000
ENDCHAR
STARTCHAR 3537
ENCODING 20736
SWIDTH 960 0
DWIDTH 10 0
BBX 10 10 0 -2
BITMAP
1280
17C0
2100
27C0
6100
2FC0
2540
2E80
2540
0000
ENDCHAR
STARTCHAR 512e
ENCODING 20737
SWIDTH 960 0
DWIDTH 10 0
BBX 10 10 0 -2
BITMAP
1280
17C0
2D00
27C0
6000
26C0
27C0
2440
24C0
0000
ENDCHAR
STARTCHAR 512f
ENCODING 20738
SWIDTH 960 0
DWIDTH 10 0
BBX 10 10 0 -2
BITMAP
1280
17C0
2540
27C0
6400
27C0
2540
2580
2940
0000
ENDCHAR
STARTCHAR 322f
ENCODING 20740
SWIDTH 960 0
DWIDTH 10 0
BBX 10 10 0 -2
BITMAP
1100
17C0
2280
2FC0
6480
2780
2100
2A40
2B40
0000
ENDCHAR
STARTCHAR 512d
ENCODING 20745
SWIDTH 960 0
DWIDTH 10 0
BBX 10 10 0 -2
BITMAP
1300
1480
2B40
2000
67C0
2540
27C0
2280
2540
0000
ENDCHAR
STARTCHAR 3c74
ENCODING 20754
SWIDTH 960 0
DWIDTH 10 0
BBX 10 10 0 -2
BITMAP
3FC0
2200
5FC0
5240
C000
5FC0
4400
5FC0
5540
0000
ENDCHAR
STARTCHAR 5132
ENCODING 20756
SWIDTH 960 0
DWIDTH 10 0
BBX 10 10 0 -2
BITMAP
1200
1780
2FC0
2040
6780
2200
2FC0
2680
2180
0000
ENDCHAR
STARTCHAR 5131
ENCODING 20757
SWIDTH 960 0
DWIDTH 10 0
BBX 10 10 0 -2
BITMAP
1200
1FC0
2680
2940
6480
2780
2480
2780
2880
0000
ENDCHAR
STARTCHAR 5130
ENCODING 20758
SWIDTH 960 0
DWIDTH 10 0
BBX 10 10 0 -2
BITMAP
1680
14C0
2600
24C0
6600
2000
27C0
2540
2FC0
0000
ENDCHAR
STARTCHAR 5056
ENCODING 20760
SWIDTH 960 0
DWIDTH 10 0
BBX 10 10 0 -2
BITMAP
2200
2780
5AC0
4780
CA80
5540
4F80
4A80
5FC0
0000
ENDCHAR
STARTCHAR 5133
ENCODING 20762
SWIDTH 960 0
DWIDTH 10 0
BBX 10 10 0 -2
BITMAP
2500
2FC0
4A80
5FC0
D440
4780
4C80
4380
4E00
0000
ENDCHAR
STARTCHAR 3d7e
ENCODING 20767
SWIDTH 960 0
DWIDTH 10 0
BBX 10 10 0 -2
BITMAP
1480
1FC0
2B40
2000
6780
2480
2480
2780
2840
0000
ENDCHAR
STARTCHAR 5134
ENCODING 20769
SWIDTH 960 0
DWIDTH 10 0
BBX 10 10 0 -2
BITMAP
1780
1680
2580
2780
6000
2FC0
2B40
2EC0
2FC0
0000
ENDCHAR
STARTCHAR 4d25
ENCODING 20778
SWIDTH 960 0
DWIDTH 10 0
BBX 10 10 0 -2
BITMAP
1780
1200
2780
2480
6FC0
2B40
2480
2300
2CC0
0000
ENDCHAR
STARTCHAR 4c59
ENCODING 20786
SWIDTH 960 0
DWIDTH 10 0
BBX 10 10 0 -2
BITMAP
2C80
21C0
5C80
43C0
DD00
41C0
5F40
5540
5DC0
0000
ENDCHAR
STARTCHAR 5136
ENCODING 20791
SWIDTH 960 0
DWIDTH 10 0
BBX 10 10 0 -2
BITMAP
2EC0
2000
4EC0
4100
CFC0
4A80
4FC0
4C80
56C0
0000
ENDCHAR
STARTCHAR 5135
ENCODING 20794
SWIDTH 960 0
DWIDTH 10 0
BBX 10 10 0 -2
BITMAP
1540
2E80
6FC0
2A80
2FC0
2280
2FC0
2680
2BC0
0000
ENDCHAR
STARTCHAR 5138
ENCODING 20795
SWIDTH 960 0
DWIDTH 10 0
BBX 10 10 0 -2
BITMAP
2A80
3FC0
5540
4F80
CA80
4F80
4200
5FC0
5540
0000
ENDCHAR
STARTCHAR 5137
ENCODING 20796
SWIDTH 960 0
DWIDTH 10 0
BBX 10 10 0 -2
BITMAP
2EC0
2AC0
4EC0
4100
CFC0
48C0
4F40
4A80
5540
0000
ENDCHAR
STARTCHAR 5139
ENCODING 20799
SWIDTH 960 0
DWIDTH 10 0
BBX 10 10 0 -2
BITMAP
1200
1200
1200
1200
1200
1200
2200
2240
43C0
0000
ENDCHAR
STARTCHAR 513a
ENCODING 20800
SWIDTH 960 0
DWIDTH 10 0
BBX 10 10 0 -2
BITMAP
0000
7FC0
1200
1200
1200
1200
2200
2240
43C0
0000
ENDCHAR
STARTCHAR 3074
ENCODING 20801
SWIDTH 960 0
DWIDTH 10 0
BBX 10 10 0 -2
BITMAP
0800
0800
1100
7F80
1280
1200
1200
2240
43C0
0000
ENDCHAR
STARTCHAR 3835
ENCODING 20803
SWIDTH 960 0
DWIDTH 10 0
BBX 10 10 0 -2
BITMAP
3F80
0000
0000
7FC0
0A00
0A00
1200
2240
43C0
0000
ENDCHAR
STARTCHAR 373b
ENCODING 20804
SWIDTH 960 0
DWIDTH 10 0
BBX 10 10 0 -2
BITMAP
3F80
2080
2080
2080
3F80
0A00
0A00
1240
63C0
0000
ENDCHAR
STARTCHAR 3d3c
ENCODING 20805
SWIDTH 960 0
DWIDTH 10 0
BBX 10 10 0 -2
BITMAP
0400
7FC0
0800
1100
7F80
0A40
0A00
1240
63C0
0000
ENDCHAR
STARTCHAR 437b
ENCODING 20806
SWIDTH 960 0
DWIDTH 10 0
BBX 10 10 0 -2
BITMAP
0A00
2A80
1B00
0A00
1B00
2A80
0A00
1240
63C0
0000
ENDCHAR
STARTCHAR 3624
ENCODING 20807
SWIDTH 960 0
DWIDTH 10 0
BBX 10 10 0 -2
BITMAP
2080
2A80
2480
2A80
2080
3F80
0A00
1240
63C0
0000
ENDCHAR
STARTCHAR 4068
ENCODING 20808
SWIDTH 960 0
DWIDTH 10 0
BBX 10 10 0 -2
BITMAP
0400
1400
3F80
0400
7FC0
0A00
0A00
1240
63C0
0000
ENDCHAR
STARTCHAR 3877
ENCODING 20809
SWIDTH 960 0
DWIDTH 10 0
BBX 10 10 0 -2
BITMAP
0400
2480
1500
7FC0
0A00
0A00
1200
2240
43C0
0000
ENDCHAR
STARTCHAR 396e
ENCODING 20811
SWIDTH 960 0
DWIDTH 10 0
BBX 10 10 0 -2
BITMAP
0400
7FC0
0400
1F00
1100
1F00
0A00
1240
63C0
0000
ENDCHAR
STARTCHAR 513c
ENCODING 20812
SWIDTH 960 0
DWIDTH 10 0
BBX 10 10 0 -2
BITMAP
1100
2080
5F40
1100
1100
1F00
0A00
1240
63C0
0000
ENDCHAR
STARTCHAR 4c48
ENCODING 20813
SWIDTH 960 0
DWIDTH 10 0
BBX 10 10 0 -2
BITMAP
1E00
2200
4400
3F80
2480
3F80
0A00
1240
63C0
0000
ENDCHAR
STARTCHAR 4546
ENCODING 20814
SWIDTH 960 0
DWIDTH 10 0
BBX 10 10 0 -2
BITMAP
0300
3C00
0400
3F80
2480
3F80
0A00
1280
63C0
0000
ENDCHAR
STARTCHAR 3b79
ENCODING 20816
SWIDTH 960 0
DWIDTH 10 0
BBX 10 10 0 -2
BITMAP
2F00
2900
2F00
2900
2F00
1200
1200
2240
43C0
0000
ENDCHAR
STARTCHAR 513b
ENCODING 20818
SWIDTH 960 0
DWIDTH 10 0
BBX 10 10 0 -2
BITMAP
0800
3380
2080
3B80
2080
3F80
0A00
1240
63C0
0000
ENDCHAR
STARTCHAR 513d
ENCODING 20820
SWIDTH 960 0
DWIDTH 10 0
BBX 10 10 0 -2
BITMAP
1E00
2200
7F80
2480
3F80
0B00
0A80
1240
63C0
0000
ENDCHAR
STARTCHAR 455e
ENCODING 20826
SWIDTH 960 0
DWIDTH 10 0
BBX 10 10 0 -2
BITMAP
2480
1500
7FC0
4040
1F00
1100
1F00
0A40
73C0
0000
ENDCHAR
STARTCHAR 3375
ENCODING 20828
SWIDTH 960 0
DWIDTH 10 0
BBX 10 10 0 -2
BITMAP
0400
2EC0
4A40
4E40
4A40
6EC0
0000
1240
63C0
0000
ENDCHAR
STARTCHAR 513e
ENCODING 20834
SWIDTH 960 0
DWIDTH 10 0
BBX 10 10 0 -2
BITMAP
2100
73C0
2100
73C0
5240
73C0
2180
5280
44C0
0000
ENDCHAR
STARTCHAR 467e
ENCODING 20837
SWIDTH 960 0
DWIDTH 10 0
BBX 10 10 0 -2
BITMAP
3C00
0400
0400
0A00
0A00
1100
1100
2080
4040
0000
ENDCHAR
STARTCHAR 4134
ENCODING 20840
SWIDTH 960 0
DWIDTH 10 0
BBX 10 10 0 -2
BITMAP
0400
0A00
1100
60C0
1F00
0400
1F00
0400
3F80
0000
ENDCHAR
STARTCHAR 5140
ENCODING 20841
SWIDTH 960 0
DWIDTH 10 0
BBX 10 10 0 -2
BITMAP
7FC0
0400
7FC0
4440
7740
5540
6EC0
4440
44C0
0000
ENDCHAR
STARTCHAR 5141
ENCODING 20842
SWIDTH 960 0
DWIDTH 10 0
BBX 10 10 0 -2
BITMAP
3E00
1100
6EC0
0000
7940
5940
6A80
5940
4940
0000
ENDCHAR
STARTCHAR 482c
ENCODING 20843
SWIDTH 960 0
DWIDTH 10 0
BBX 10 10 0 -2
BITMAP
0200
1200
1200
1100
1100
2100
2080
2080
4040
0000
ENDCHAR
STARTCHAR 3878
ENCODING 20844
SWIDTH 960 0
DWIDTH 10 0
BBX 10 10 0 -2
BITMAP
0600
1100
1100
2480
4440
0800
0900
1380
3C80
0000
ENDCHAR
STARTCHAR 4f3b
ENCODING 20845
SWIDTH 960 0
DWIDTH 10 0
BBX 10 10 0 -2
BITMAP
0400
0400
7FC0
0000
1100
1100
2080
2080
4040
0000
ENDCHAR
STARTCHAR 5142
ENCODING 20846
SWIDTH 960 0
DWIDTH 10 0
BBX 10 10 0 -2
BITMAP
1300
1100
2080
5F40
0800
0F00
1100
0100
0600
0000
ENDCHAR
STARTCHAR 3626
ENCODING 20849
SWIDTH 960 0
DWIDTH 10 0
BBX 10 10 0 -2
BITMAP
1100
1100
3F80
1100
1100
7FC0
0000
1100
60C0
0000
ENDCHAR
STARTCHAR 4a3c
ENCODING 20853
SWIDTH 960 0
DWIDTH 10 0
BBX 10 10 0 -2
BITMAP
0300
1C00
1000
1F80
1200
1200
7FC0
1100
2080
0000
ENDCHAR
STARTCHAR 4236
ENCODING 20854
SWIDTH 960 0
DWIDTH 10 0
BBX 10 10 0 -2
BITMAP
1100
3F80
1100
1F00
1100
1100
7FC0
2080
4040
0000
ENDCHAR
STARTCHAR 3671
ENCODING 20855
SWIDTH 960 0
DWIDTH 10 0
BBX 10 10 0 -2
BITMAP
3F00
2100
3F00
2100
3F00
2100
7F80
2100
4080
0000
ENDCHAR
STARTCHAR 4535
ENCODING 20856
SWIDTH 960 0
DWIDTH 10 0
BBX 10 10 0 -2
BITMAP
0A00
0A00
3F80
2A80
3F80
2A80
7FC0
1100
60C0
0000
ENDCHAR
STARTCHAR 3773
ENCODING 20860
SWIDTH 960 0
DWIDTH 10 0
BBX 10 10 0 -2
BITMAP
1100
7FC0
0A00
3F80
4AC0
3F80
0A00
1B00
6AC0
0000
ENDCHAR
STARTCHAR 5143
ENCODING 20864
SWIDTH 960 0
DWIDTH 10 0
BBX 10 10 0 -2
BITMAP
0A40
7B80
0A00
7FC0
1500
3F80
0A00
7FC0
2080
0000
ENDCHAR
STARTCHAR 5144
ENCODING 20866
SWIDTH 960 0
DWIDTH 10 0
BBX 10 10 0 -2
BITMAP
7FC0
4040
4040
4040
4040
4040
4040
4040
40C0
0000
ENDCHAR
STARTCHAR 4662
ENCODING 20869
SWIDTH 960 0
DWIDTH 10 0
BBX 10 10 0 -2
BITMAP
0400
0400
7FC0
4440
4A40
5140
60C0
4040
40C0
0000
ENDCHAR
STARTCHAR 315f
ENCODING 20870
SWIDTH 960 0
DWIDTH 10 0
BBX 10 10 0 -2
BITMAP
7FC0
4440
4440
4440
7FC0
4040
4040
4040
40C0
0000
ENDCHAR
STARTCHAR 5147
ENCODING 20873
SWIDTH 960 0
DWIDTH 10 0
BBX 10 10 0 -2
BITMAP
0400
3F80
2480
3F80
2480
7FC0
2080
2080
2180
0000
ENDCHAR
STARTCHAR 3a7d
ENCODING 20874
SWIDTH 960 0
DWIDTH 10 0
BBX 10 10 0 -2
BITMAP
3F80
2A80
2A80
2A80
7FC0
2A80
2A80
2A80
2180
0000
ENDCHAR
STARTCHAR 5146
ENCODING 20876
SWIDTH 960 0
DWIDTH 10 0
BBX 10 10 0 -2
BITMAP
3B80
2A80
2A80
2A80
7FC0
2A80
2A80
2A80
5580
0000
ENDCHAR
STARTCHAR 3a46
ENCODING 20877
SWIDTH 960 0
DWIDTH 10 0
BBX 10 10 0 -2
BITMAP
7FC0
0400
3F80
2480
3F80
2480
7FC0
2080
2180
0000
ENDCHAR
STARTCHAR 5148
ENCODING 20879
SWIDTH 960 0
DWIDTH 10 0
BBX 10 10 0 -2
BITMAP
7FC0
4A40
5240
6340
4040
5F40
5140
5F40
40C0
0000
ENDCHAR
STARTCHAR 666e
ENCODING 20880
SWIDTH 960 0
DWIDTH 10 0
BBX 10 10 0 -2
BITMAP
7F80
4080
5E80
0000
3F00
2100
3F00
2100
2300
0000
ENDCHAR
STARTCHAR 5149
ENCODING 20881
SWIDTH 960 0
DWIDTH 10 0
BBX 10 10 0 -2
BITMAP
0400
7FC0
4440
7FC0
0000
3F80
2080
2E80
2180
0000
ENDCHAR
STARTCHAR 4b41
ENCODING 20882
SWIDTH 960 0
DWIDTH 10 0
BBX 10 10 0 -2
BITMAP
7FC0
4040
7FC0
0000
3F80
2080
3F80
2080
3F80
0000
ENDCHAR
STARTCHAR 514a
ENCODING 20883
SWIDTH 960 0
DWIDTH 10 0
BBX 10 10 0 -2
BITMAP
1100
3F80
1100
7FC0
0400
1F00
1500
7FC0
1100
0000
ENDCHAR
STARTCHAR 514b
ENCODING 20885
SWIDTH 960 0
DWIDTH 10 0
BBX 10 10 0 -2
BITMAP
7FC0
4040
1F00
2400
7F80
2480
3F80
0A40
73C0
0000
ENDCHAR
STARTCHAR 514c
ENCODING 20886
SWIDTH 960 0
DWIDTH 10 0
BBX 10 10 0 -2
BITMAP
0000
0000
0000
7FC0
4040
4040
0000
0000
0000
0000
ENDCHAR
STARTCHAR 3e69
ENCODING 20887
SWIDTH 960 0
DWIDTH 10 0
BBX 10 10 0 -2
BITMAP
7FC0
4040
1E00
1200
1200
1200
1200
2240
43C0
0000
ENDCHAR
STARTCHAR 3c4c
ENCODING 20889
SWIDTH 960 0
DWIDTH 10 0
BBX 10 10 0 -2
BITMAP
7FC0
4840
0F00
1000
1F00
0100
7FC0
0100
0600
0000
ENDCHAR
STARTCHAR 3427
ENCODING 20896
SWIDTH 960 0
DWIDTH 10 0
BBX 10 10 0 -2
BITMAP
7FC0
4040
3880
03C0
7C80
2A80
2980
2840
4FC0
0000
ENDCHAR
STARTCHAR 514f
ENCODING 20898
SWIDTH 960 0
DWIDTH 10 0
BBX 10 10 0 -2
BITMAP
7FC0
4040
3F00
0C00
7640
2A80
1B00
66C0
0C00
0000
ENDCHAR
STARTCHAR 514d
ENCODING 20900
SWIDTH 960 0
DWIDTH 10 0
BBX 10 10 0 -2
BITMAP
7FC0
5E40
2200
7F80
2480
3F80
0500
1C80
67C0
0000
ENDCHAR
STARTCHAR 4c3d
ENCODING 20901
SWIDTH 960 0
DWIDTH 10 0
BBX 10 10 0 -2
BITMAP
7FC0
5140
1F00
1100
1F00
0400
7FC0
1100
2080
0000
ENDCHAR
STARTCHAR 514e
ENCODING 20902
SWIDTH 960 0
DWIDTH 10 0
BBX 10 10 0 -2
BITMAP
7FC0
4040
3980
0100
7F80
2A80
2900
2A80
47C0
0000
ENDCHAR
STARTCHAR 495a
ENCODING 20904
SWIDTH 960 0
DWIDTH 10 0
BBX 10 10 0 -2
BITMAP
7FC0
4040
3F80
1100
3F80
2480
3F80
2480
3F80
0000
ENDCHAR
STARTCHAR 5150
ENCODING 20905
SWIDTH 960 0
DWIDTH 10 0
BBX 10 10 0 -2
BITMAP
7FC0
4840
3380
2080
3B80
2080
3FC0
2040
5540
0000
ENDCHAR
STARTCHAR 5151
ENCODING 20906
SWIDTH 960 0
DWIDTH 10 0
BBX 10 10 0 -2
BITMAP
7FC0
4A40
3F80
1100
7FC0
2480
5F40
1500
1500
0000
ENDCHAR
STARTCHAR 5152
ENCODING 20907
SWIDTH 960 0
DWIDTH 10 0
BBX 10 10 0 -2
BITMAP
0000
1000
0800
0000
0200
0400
0400
0800
1000
0000
ENDCHAR
STARTCHAR 455f
ENCODING 20908
SWIDTH 960 0
DWIDTH 10 0
BBX 10 10 0 -2
BITMAP
0F00
1100
6A00
0400
1B00
64C0
0200
0C00
0200
0000
ENDCHAR
STARTCHAR 5156
ENCODING 20912
SWIDTH 960 0
DWIDTH 10 0
BBX 10 10 0 -2
BITMAP
0100
4100
2140
0F80
0300
2580
2580
4940
4300
0000
ENDCHAR
STARTCHAR 5154
ENCODING 20913
SWIDTH 960 0
DWIDTH 10 0
BBX 10 10 0 -2
BITMAP
0000
4FC0
2200
0780
0480
2480
2F00
4100
4FC0
0000
ENDCHAR
STARTCHAR 5155
ENCODING 20914
SWIDTH 960 0
DWIDTH 10 0
BBX 10 10 0 -2
BITMAP
0200
4200
2F80
0A80
0A80
2F80
2200
4200
4200
0000
ENDCHAR
STARTCHAR 5153
ENCODING 20915
SWIDTH 960 0
DWIDTH 10 0
BBX 10 10 0 -2
BITMAP
0200
4200
2F80
0280
0FC0
2200
2200
4500
58C0
0000
ENDCHAR
STARTCHAR 3a63
ENCODING 20916
SWIDTH 960 0
DWIDTH 10 0
BBX 10 10 0 -2
BITMAP
4F80
2500
0500
1FC0
0300
0500
2500
4900
5300
0000
ENDCHAR
STARTCHAR 5157
ENCODING 20917
SWIDTH 960 0
DWIDTH 10 0
BBX 10 10 0 -2
BITMAP
0000
4F80
2880
0880
0F80
2500
2500
4940
51C0
0000
ENDCHAR
STARTCHAR 4c6a
ENCODING 20918
SWIDTH 960 0
DWIDTH 10 0
BBX 10 10 0 -2
BITMAP
0200
4400
2880
0F40
0000
2F80
2880
4880
4F80
0000
ENDCHAR
STARTCHAR 4e64
ENCODING 20919
SWIDTH 960 0
DWIDTH 10 0
BBX 10 10 0 -2
BITMAP
0300
4480
2B40
0000
0F80
2280
2280
4380
4200
0000
ENDCHAR
STARTCHAR 5158
ENCODING 20925
SWIDTH 960 0
DWIDTH 10 0
BBX 10 10 0 -2
BITMAP
9E40
4940
0F40
0B40
0B40
5740
4540
4840
90C0
0000
ENDCHAR
STARTCHAR 4028
ENCODING 20932
SWIDTH 960 0
DWIDTH 10 0
BBX 10 10 0 -2
BITMAP
0200
4F80
52C0
0F80
0200
2FC0
2480
4380
4C40
0000
ENDCHAR
STARTCHAR 5159
ENCODING 20933
SWIDTH 960 0
DWIDTH 10 0
BBX 10 10 0 -2
BITMAP
9FC0
5240
1FC0
1240
1740
5540
5740
5040
9FC0
0000
ENDCHAR
STARTCHAR 3d5a
ENCODING 20934
SWIDTH 960 0
DWIDTH 10 0
BBX 10 10 0 -2
BITMAP
0280
4500
2FC0
0500
0780
2500
2780
4500
47C0
0000
ENDCHAR
STARTCHAR 515a
ENCODING 20937
SWIDTH 960 0
DWIDTH 10 0
BBX 10 10 0 -2
BITMAP
4200
5FC0
0000
0F80
0880
2F80
2200
4A80
5240
0000
ENDCHAR
STARTCHAR 437c
ENCODING 20939
SWIDTH 960 0
DWIDTH 10 0
BBX 10 10 0 -2
BITMAP
4FC0
2A40
0F40
0A40
0F40
2840
2F40
4D40
5740
0000
ENDCHAR
STARTCHAR 4e3f
ENCODING 20940
SWIDTH 960 0
DWIDTH 10 0
BBX 10 10 0 -2
BITMAP
0200
4780
2200
0FC0
0500
2BC0
2480
4300
4CC0
0000
ENDCHAR
STARTCHAR 4560
ENCODING 20941
SWIDTH 960 0
DWIDTH 10 0
BBX 10 10 0 -2
BITMAP
0200
5FC0
2A80
0F80
0A80
2F80
2700
4A80
5240
0000
ENDCHAR
STARTCHAR 5245
ENCODING 20950
SWIDTH 960 0
DWIDTH 10 0
BBX 10 10 0 -2
BITMAP
4280
27C0
0D00
2500
47C0
0000
0400
7FC0
0400
0000
ENDCHAR
STARTCHAR 515b
ENCODING 20955
SWIDTH 960 0
DWIDTH 10 0
BBX 10 10 0 -2
BITMAP
0200
9FC0
4A80
0880
0F80
0000
5FC0
4A80
9640
0000
ENDCHAR
STARTCHAR 3645
ENCODING 20957
SWIDTH 960 0
DWIDTH 10 0
BBX 10 10 0 -2
BITMAP
49C0
2E40
0880
05C0
0640
2C80
26C0
4480
4940
0000
ENDCHAR
STARTCHAR 515c
ENCODING 20960
SWIDTH 960 0
DWIDTH 10 0
BBX 10 10 0 -2
BITMAP
0000
1E00
1200
1200
1200
1200
1200
2240
43C0
0000
ENDCHAR
STARTCHAR 4b5e
ENCODING 20961
SWIDTH 960 0
DWIDTH 10 0
BBX 10 10 0 -2
BITMAP
3F00
2100
2100
2900
2500
2100
2100
4140
41C0
0000
ENDCHAR
STARTCHAR 3d68
ENCODING 20966
SWIDTH 960 0
DWIDTH 10 0
BBX 10 10 0 -2
BITMAP
2000
3B80
2A80
2A80
6A80
1280
14C0
2800
47C0
0000
ENDCHAR
STARTCHAR 427c
ENCODING 20967
SWIDTH 960 0
DWIDTH 10 0
BBX 10 10 0 -2
BITMAP
7FC0
4040
4440
5F40
5540
5540
5540
5540
4440
0000
ENDCHAR
STARTCHAR 515e
ENCODING 20969
SWIDTH 960 0
DWIDTH 10 0
BBX 10 10 0 -2
BITMAP
3F80
2080
2480
3F80
2480
2E80
3580
4480
4040
0000
ENDCHAR
STARTCHAR 4664
ENCODING 20970
SWIDTH 960 0
DWIDTH 10 0
BBX 10 10 0 -2
BITMAP
3F80
2080
2280
2280
2B80
2A80
2A80
4F40
4040
0000
ENDCHAR
STARTCHAR 515f
ENCODING 20973
SWIDTH 960 0
DWIDTH 10 0
BBX 10 10 0 -2
BITMAP
1780
2200
6FC0
2200
2780
0000
1E00
1240
63C0
0000
ENDCHAR
STARTCHAR 5160
ENCODING 20976
SWIDTH 960 0
DWIDTH 10 0
BBX 10 10 0 -2
BITMAP
7F80
4880
5E80
5280
5E80
4080
5E80
4880
5E40
0000
ENDCHAR
STARTCHAR 332e
ENCODING 20977
SWIDTH 960 0
DWIDTH 10 0
BBX 10 10 0 -2
BITMAP
5B80
5A80
7A80
0280
7A80
4A80
7A80
3280
7AC0
0000
ENDCHAR
STARTCHAR 5161
ENCODING 20981
SWIDTH 960 0
DWIDTH 10 0
BBX 10 10 0 -2
BITMAP
0000
4080
4080
4080
4080
4080
4080
4080
7F80
0000
ENDCHAR
STARTCHAR 3627
ENCODING 20982
SWIDTH 960 0
DWIDTH 10 0
BBX 10 10 0 -2
BITMAP
0000
4140
5140
4A40
4440
4A40
5140
4040
7FC0
0000
ENDCHAR
STARTCHAR 464c
ENCODING 20984
SWIDTH 960 0
DWIDTH 10 0
BBX 10 10 0 -2
BITMAP
1F00
1100
1100
71C0
4040
4040
4040
4040
7FC0
0000
ENDCHAR
STARTCHAR 317a
ENCODING 20985
SWIDTH 960 0
DWIDTH 10 0
BBX 10 10 0 -2
BITMAP
7BC0
4A40
4A40
4A40
4E40
4040
4040
4040
7FC0
0000
ENDCHAR
STARTCHAR 3d50
ENCODING 20986
SWIDTH 960 0
DWIDTH 10 0
BBX 10 10 0 -2
BITMAP
0400
2480
2480
3F80
0400
0400
4440
4440
7FC0
0000
ENDCHAR
STARTCHAR 4821
ENCODING 20989
SWIDTH 960 0
DWIDTH 10 0
BBX 10 10 0 -2
BITMAP
7FC0
0800
4C40
5540
4440
4E40
5540
4C40
7FC0
0000
ENDCHAR
STARTCHAR 5162
ENCODING 20990
SWIDTH 960 0
DWIDTH 10 0
BBX 10 10 0 -2
BITMAP
1F00
0200
4440
77C0
54C0
5540
76C0
4C40
7FC0
0000
ENDCHAR
STARTCHAR 4561
ENCODING 20992
SWIDTH 960 0
DWIDTH 10 0
BBX 10 10 0 -2
BITMAP
0000
7F80
0880
0880
0880
1080
1080
2080
4300
0000
ENDCHAR
STARTCHAR 3f4f
ENCODING 20995
SWIDTH 960 0
DWIDTH 10 0
BBX 10 10 0 -2
BITMAP
0000
7F80
0880
4880
2880
1080
1880
2080
4300
0000
ENDCHAR
STARTCHAR 5163
ENCODING 20996
SWIDTH 960 0
DWIDTH 10 0
BBX 10 10 0 -2
BITMAP
0000
7F00
0900
4900
2900
1900
17C0
2100
4700
0000
ENDCHAR
STARTCHAR 4a2c
ENCODING 20998
SWIDTH 960 0
DWIDTH 10 0
BBX 10 10 0 -2
BITMAP
0A00
1100
2080
4040
3F00
0900
0900
1100
2300
0000
ENDCHAR
STARTCHAR 405a
ENCODING 20999
SWIDTH 960 0
DWIDTH 10 0
BBX 10 10 0 -2
BITMAP
0000
27C0
2240
7A40
2240
2240
2A40
3240
04C0
0000
ENDCHAR
STARTCHAR 3422
ENCODING 21000
SWIDTH 960 0
DWIDTH 10 0
BBX 10 10 0 -2
BITMAP
0840
0A40
4A40
3240
1240
1240
2840
2840
40C0
0000
ENDCHAR
STARTCHAR 3429
ENCODING 21002
SWIDTH 960 0
DWIDTH 10 0
BBX 10 10 0 -2
BITMAP
0040
7D40
1140
1140
7D40
1140
1140
1040
10C0
0000
ENDCHAR
STARTCHAR 5164
ENCODING 21003
SWIDTH 960 0
DWIDTH 10 0
BBX 10 10 0 -2
BITMAP
0840
7240
1240
7A40
1240
1240
1240
2040
40C0
0000
ENDCHAR
STARTCHAR 5166
ENCODING 21006
SWIDTH 960 0
DWIDTH 10 0
BBX 10 10 0 -2
BITMAP
4040
4140
7D40
D540
5540
5540
9540
2440
0CC0
0000
ENDCHAR
STARTCHAR 373a
ENCODING 21009
SWIDTH 960 0
DWIDTH 10 0
BBX 10 10 0 -2
BITMAP
7C40
2940
2940
7D40
2940
2940
2840
2840
28C0
0000
ENDCHAR
STARTCHAR 5165
ENCODING 21012
SWIDTH 960 0
DWIDTH 10 0
BBX 10 10 0 -2
BITMAP
1040
1140
7D40
1540
7F40
1140
1840
2440
40C0
0000
ENDCHAR
STARTCHAR 4e73
ENCODING 21015
SWIDTH 960 0
DWIDTH 10 0
BBX 10 10 0 -2
BITMAP
7C40
2240
3A40
2A40
3A40
4A40
0840
1040
20C0
0000
ENDCHAR
STARTCHAR 3d69
ENCODING 21021
SWIDTH 960 0
DWIDTH 10 0
BBX 10 10 0 -2
BITMAP
2000
27C0
7940
1140
2940
3140
6A40
2240
24C0
0000
ENDCHAR
STARTCHAR 483d
ENCODING 21028
SWIDTH 960 0
DWIDTH 10 0
BBX 10 10 0 -2
BITMAP
5440
5540
1140
7D40
1140
7D40
1040
1040
10C0
0000
ENDCHAR
STARTCHAR 4a4c
ENCODING 21029
SWIDTH 960 0
DWIDTH 10 0
BBX 10 10 0 -2
BITMAP
7840
4A40
7A40
2240
2240
3A40
2A40
4840
58C0
0000
ENDCHAR
STARTCHAR 5167
ENCODING 21031
SWIDTH 960 0
DWIDTH 10 0
BBX 10 10 0 -2
BITMAP
1000
13C0
7D40
1140
7D40
1140
2940
7A40
04C0
0000
ENDCHAR
STARTCHAR 4d78
ENCODING 21033
SWIDTH 960 0
DWIDTH 10 0
BBX 10 10 0 -2
BITMAP
1C40
7140
1140
7D40
1140
3940
3440
5040
10C0
0000
ENDCHAR
STARTCHAR 5168
ENCODING 21034
SWIDTH 960 0
DWIDTH 10 0
BBX 10 10 0 -2
BITMAP
7C40
5540
5540
FF40
5540
5540
5540
5440
44C0
0000
ENDCHAR
STARTCHAR 5169
ENCODING 21038
SWIDTH 960 0
DWIDTH 10 0
BBX 10 10 0 -2
BITMAP
0C40
7140
1140
7F40
1140
1140
7D40
4440
7CC0
0000
ENDCHAR
STARTCHAR 457e
ENCODING 21040
SWIDTH 960 0
DWIDTH 10 0
BBX 10 10 0 -2
BITMAP
7C40
1140
2540
7D40
0140
1140
7D40
1040
7CC0
0000
ENDCHAR
STARTCHAR 516a
ENCODING 21043
SWIDTH 960 0
DWIDTH 10 0
BBX 10 10 0 -2
BITMAP
1040
7D40
2940
7540
0140
7F40
2140
3C40
08C0
0000
ENDCHAR
STARTCHAR 4029
ENCODING 21046
SWIDTH 960 0
DWIDTH 10 0
BBX 10 10 0 -2
BITMAP
5040
7D40
1140
7D40
1140
7D40
5540
5440
10C0
0000
ENDCHAR
STARTCHAR 3a7e
ENCODING 21047
SWIDTH 960 0
DWIDTH 10 0
BBX 10 10 0 -2
BITMAP
7C40
4540
7D40
5140
7D40
5540
5540
5440
10C0
0000
ENDCHAR
STARTCHAR 3774
ENCODING 21048
SWIDTH 960 0
DWIDTH 10 0
BBX 10 10 0 -2
BITMAP
2480
1500
3F80
0A00
7FC0
2080
5F40
0900
3300
0000
ENDCHAR
STARTCHAR 516b
ENCODING 21049
SWIDTH 960 0
DWIDTH 10 0
BBX 10 10 0 -2
BITMAP
2440
1940
1540
6140
1140
7D40
3840
5440
10C0
0000
ENDCHAR
STARTCHAR 3b49
ENCODING 21050
SWIDTH 960 0
DWIDTH 10 0
BBX 10 10 0 -2
BITMAP
1040
7D40
1140
7D40
5540
5540
3940
5440
10C0
0000
ENDCHAR
STARTCHAR 396f
ENCODING 21051
SWIDTH 960 0
DWIDTH 10 0
BBX 10 10 0 -2
BITMAP
1040
7D40
1140
2540
1940
1140
6540
0840
74C0
0000
ENDCHAR
STARTCHAR 4466
ENCODING 21059
SWIDTH 960 0
DWIDTH 10 0
BBX 10 10 0 -2
BITMAP
4440
2940
7D40
1540
7D40
5140
7D40
3440
54C0
0000
ENDCHAR
STARTCHAR 516d
ENCODING 21060
SWIDTH 960 0
DWIDTH 10 0
BBX 10 10 0 -2
BITMAP
7C40
0140
2540
4940
2540
0140
7D40
1040
7CC0
0000
ENDCHAR
STARTCHAR 4227
ENCODING 21063
SWIDTH 960 0
DWIDTH 10 0
BBX 10 10 0 -2
BITMAP
7840
4A40
7A40
4A40
7A40
4A40
7A40
1040
48C0
0000
ENDCHAR
STARTCHAR 3a6f
ENCODING 21066
SWIDTH 960 0
DWIDTH 10 0
BBX 10 10 0 -2
BITMAP
5440
1140
7D40
4540
7D40
4540
7D40
4440
4CC0
0000
ENDCHAR
STARTCHAR 516e
ENCODING 21067
SWIDTH 960 0
DWIDTH 10 0
BBX 10 10 0 -2
BITMAP
1040
7D40
1140
7D40
4540
7C40
28C0
2800
47C0
0000
ENDCHAR
STARTCHAR 516f
ENCODING 21068
SWIDTH 960 0
DWIDTH 10 0
BBX 10 10 0 -2
BITMAP
1040
7D40
1140
7D40
5540
7D40
1140
3840
54C0
0000
ENDCHAR
STARTCHAR 4130
ENCODING 21069
SWIDTH 960 0
DWIDTH 10 0
BBX 10 10 0 -2
BITMAP
1100
7FC0
0000
3880
2A80
3A80
2A80
3880
2980
0000
ENDCHAR
STARTCHAR 516c
ENCODING 21071
SWIDTH 960 0
DWIDTH 10 0
BBX 10 10 0 -2
BITMAP
8800
5780
FA80
5680
FA80
5380
52C0
5480
5580
0000
ENDCHAR
STARTCHAR 5171
ENCODING 21076
SWIDTH 960 0
DWIDTH 10 0
BBX 10 10 0 -2
BITMAP
7C40
4540
7D40
4540
7D40
2140
7D40
AC40
54C0
0000
ENDCHAR
STARTCHAR 4b36
ENCODING 21078
SWIDTH 960 0
DWIDTH 10 0
BBX 10 10 0 -2
BITMAP
1040
7D40
2940
7F40
0140
3D40
2540
2440
3CC0
0000
ENDCHAR
STARTCHAR 3964
ENCODING 21083
SWIDTH 960 0
DWIDTH 10 0
BBX 10 10 0 -2
BITMAP
7C40
4540
6D40
7D40
5540
5540
5440
7C40
44C0
0000
ENDCHAR
STARTCHAR 5170
ENCODING 21086
SWIDTH 960 0
DWIDTH 10 0
BBX 10 10 0 -2
BITMAP
1040
7D40
2940
4540
7D40
0940
6940
6840
18C0
0000
ENDCHAR
STARTCHAR 3775
ENCODING 21091
SWIDTH 960 0
DWIDTH 10 0
BBX 10 10 0 -2
BITMAP
1040
2940
7D40
1140
7D40
5540
7D40
2840
44C0
0000
ENDCHAR
STARTCHAR 3a5e
ENCODING 21092
SWIDTH 960 0
DWIDTH 10 0
BBX 10 10 0 -2
BITMAP
1040
7D40
2940
1140
6D40
3940
2940
3840
48C0
0000
ENDCHAR
STARTCHAR 476d
ENCODING 21093
SWIDTH 960 0
DWIDTH 10 0
BBX 10 10 0 -2
BITMAP
7840
0940
7940
0940
7D40
1140
5540
3840
54C0
0000
ENDCHAR
STARTCHAR 5174
ENCODING 21097
SWIDTH 960 0
DWIDTH 10 0
BBX 10 10 0 -2
BITMAP
3C40
1140
7F40
1540
5540
5740
1140
3840
54C0
0000
ENDCHAR
STARTCHAR 5172
ENCODING 21098
SWIDTH 960 0
DWIDTH 10 0
BBX 10 10 0 -2
BITMAP
1100
7FC0
2A80
3A80
2880
0000
7FC0
1840
6180
0000
ENDCHAR
STARTCHAR 497b
ENCODING 21103
SWIDTH 960 0
DWIDTH 10 0
BBX 10 10 0 -2
BITMAP
7C40
0140
3940
2940
7D40
5540
7C40
5440
7CC0
0000
ENDCHAR
STARTCHAR 3e6a
ENCODING 21104
SWIDTH 960 0
DWIDTH 10 0
BBX 10 10 0 -2
BITMAP
7C40
1140
7D40
5540
7D40
5540
7D40
3840
54C0
0000
ENDCHAR
STARTCHAR 517b
ENCODING 21105
SWIDTH 960 0
DWIDTH 10 0
BBX 10 10 0 -2
BITMAP
1000
2BC0
7D40
1340
7D40
55C0
7D40
2A40
44C0
0000
ENDCHAR
STARTCHAR 3364
ENCODING 21106
SWIDTH 960 0
DWIDTH 10 0
BBX 10 10 0 -2
BITMAP
1040
7D40
5540
3940
1140
7D40
0140
3840
38C0
0000
ENDCHAR
STARTCHAR 5175
ENCODING 21107
SWIDTH 960 0
DWIDTH 10 0
BBX 10 10 0 -2
BITMAP
2840
7F40
2940
4540
3940
0140
7D40
4440
7CC0
0000
ENDCHAR
STARTCHAR 5173
ENCODING 21108
SWIDTH 960 0
DWIDTH 10 0
BBX 10 10 0 -2
BITMAP
5440
7D40
0140
7D40
2940
3940
2940
1040
7CC0
0000
ENDCHAR
STARTCHAR 414f
ENCODING 21109
SWIDTH 960 0
DWIDTH 10 0
BBX 10 10 0 -2
BITMAP
1040
2940
7D40
2940
3940
2940
3C40
6440
3CC0
0000
ENDCHAR
STARTCHAR 5177
ENCODING 21117
SWIDTH 960 0
DWIDTH 10 0
BBX 10 10 0 -2
BITMAP
7C40
2940
7D40
5540
7D40
0140
7D40
1040
54C0
0000
ENDCHAR
STARTCHAR 5176
ENCODING 21119
SWIDTH 960 0
DWIDTH 10 0
BBX 10 10 0 -2
BITMAP
2840
5540
7D40
5540
7D40
1140
7D40
3840
54C0
0000
ENDCHAR
STARTCHAR 3344
ENCODING 21123
SWIDTH 960 0
DWIDTH 10 0
BBX 10 10 0 -2
BITMAP
1040
7D40
1540
7D40
7D40
5540
7D40
0040
7CC0
0000
ENDCHAR
STARTCHAR 3760
ENCODING 21127
SWIDTH 960 0
DWIDTH 10 0
BBX 10 10 0 -2
BITMAP
1C40
1140
7F40
5140
5D40
6840
5C40
6A40
58C0
0000
ENDCHAR
STARTCHAR 517c
ENCODING 21128
SWIDTH 960 0
DWIDTH 10 0
BBX 10 10 0 -2
BITMAP
3900
23C0
3A80
6BC0
3900
0000
7FC0
0840
7180
0000
ENDCHAR
STARTCHAR 4e2d
ENCODING 21129
SWIDTH 960 0
DWIDTH 10 0
BBX 10 10 0 -2
BITMAP
2C40
5540
7540
1140
2940
5D40
3140
1D40
70C0
0000
ENDCHAR
STARTCHAR 5178
ENCODING 21133
SWIDTH 960 0
DWIDTH 10 0
BBX 10 10 0 -2
BITMAP
1040
2940
7D40
0140
7D40
5540
7D40
2840
54C0
0000
ENDCHAR
STARTCHAR 517d
ENCODING 21137
SWIDTH 960 0
DWIDTH 10 0
BBX 10 10 0 -2
BITMAP
1040
7D40
2940
5540
2540
3D40
2540
3C40
44C0
0000
ENDCHAR
STARTCHAR 517a
ENCODING 21138
SWIDTH 960 0
DWIDTH 10 0
BBX 10 10 0 -2
BITMAP
1000
2BC0
7540
0140
7F40
5540
7D40
2A40
52C0
0000
ENDCHAR
STARTCHAR 5179
ENCODING 21140
SWIDTH 960 0
DWIDTH 10 0
BBX 10 10 0 -2
BITMAP
1000
2BC0
7D40
0340
7D40
55C0
7D40
2A40
52C0
0000
ENDCHAR
STARTCHAR 4e4f
ENCODING 21147
SWIDTH 960 0
DWIDTH 10 0
BBX 10 10 0 -2
BITMAP
0800
0800
7F80
0880
0880
1080
1080
2080
4380
0000
ENDCHAR
STARTCHAR 3879
ENCODING 21151
SWIDTH 960 0
DWIDTH 10 0
BBX 10 10 0 -2
BITMAP
0200
0200
77C0
2240
2240
2240
3440
6440
09C0
0000
ENDCHAR
STARTCHAR 3243
ENCODING 21152
SWIDTH 960 0
DWIDTH 10 0
BBX 10 10 0 -2
BITMAP
1000
1000
7DC0
1540
1540
1540
2540
2540
4DC0
0000
ENDCHAR
STARTCHAR 4e74
ENCODING 21155
SWIDTH 960 0
DWIDTH 10 0
BBX 10 10 0 -2
BITMAP
0400
2500
4CC0
0300
1C00
6400
3F80
0880
3380
0000
ENDCHAR
STARTCHAR 3d75
ENCODING 21161
SWIDTH 960 0
DWIDTH 10 0
BBX 10 10 0 -2
BITMAP
0100
3900
2BC0
3940
2940
3940
2D40
7240
02C0
0000
ENDCHAR
STARTCHAR 4558
ENCODING 21162
SWIDTH 960 0
DWIDTH 10 0
BBX 10 10 0 -2
BITMAP
1000
7DC0
2940
1880
6540
0400
3FC0
0840
3180
0000
ENDCHAR
STARTCHAR 3965
ENCODING 21163
SWIDTH 960 0
DWIDTH 10 0
BBX 10 10 0 -2
BITMAP
2100
2100
7BC0
2140
7940
2140
4940
7A40
02C0
0000
ENDCHAR
STARTCHAR 5222
ENCODING 21164
SWIDTH 960 0
DWIDTH 10 0
BBX 10 10 0 -2
BITMAP
4100
7D00
87C0
7540
5540
5540
7540
0A40
32C0
0000
ENDCHAR
STARTCHAR 5223
ENCODING 21165
SWIDTH 960 0
DWIDTH 10 0
BBX 10 10 0 -2
BITMAP
0100
7900
2BC0
2940
5940
0140
7940
4A40
7AC0
0000
ENDCHAR
STARTCHAR 4e65
ENCODING 21169
SWIDTH 960 0
DWIDTH 10 0
BBX 10 10 0 -2
BITMAP
0100
7D00
43C0
7D40
5140
5D40
5540
5540
6A80
0000
ENDCHAR
STARTCHAR 4f2b
ENCODING 21172
SWIDTH 960 0
DWIDTH 10 0
BBX 10 10 0 -2
BITMAP
2880
1500
7FC0
4040
0800
7F80
0880
1080
6300
0000
ENDCHAR
STARTCHAR 5225
ENCODING 21173
SWIDTH 960 0
DWIDTH 10 0
BBX 10 10 0 -2
BITMAP
2480
5F40
0A00
7FC0
2880
5F40
0900
1100
2300
0000
ENDCHAR
STARTCHAR 387a
ENCODING 21177
SWIDTH 960 0
DWIDTH 10 0
BBX 10 10 0 -2
BITMAP
1100
1100
7FC0
2940
4540
2940
1140
2A40
4AC0
0000
ENDCHAR
STARTCHAR 5224
ENCODING 21180
SWIDTH 960 0
DWIDTH 10 0
BBX 10 10 0 -2
BITMAP
2100
7900
23C0
2140
7940
0140
7940
4A40
7AC0
0000
ENDCHAR
STARTCHAR 332f
ENCODING 21182
SWIDTH 960 0
DWIDTH 10 0
BBX 10 10 0 -2
BITMAP
2100
7900
23C0
4940
3140
2940
5140
3240
4AC0
0000
ENDCHAR
STARTCHAR 5226
ENCODING 21185
SWIDTH 960 0
DWIDTH 10 0
BBX 10 10 0 -2
BITMAP
7900
0100
2BC0
5140
2940
0140
7940
2240
7AC0
0000
ENDCHAR
STARTCHAR 4b56
ENCODING 21187
SWIDTH 960 0
DWIDTH 10 0
BBX 10 10 0 -2
BITMAP
1100
7D00
13C0
7D40
4540
1940
7D40
1240
32C0
0000
ENDCHAR
STARTCHAR 443c
ENCODING 21189
SWIDTH 960 0
DWIDTH 10 0
BBX 10 10 0 -2
BITMAP
1100
7D00
13C0
7D40
5540
7D40
1140
3940
56C0
0000
ENDCHAR
STARTCHAR 4d26
ENCODING 21191
SWIDTH 960 0
DWIDTH 10 0
BBX 10 10 0 -2
BITMAP
3F00
0A00
3F80
2480
3F80
2480
7FC0
0840
7180
0000
ENDCHAR
STARTCHAR 4a59
ENCODING 21193
SWIDTH 960 0
DWIDTH 10 0
BBX 10 10 0 -2
BITMAP
3900
4900
13C0
7D40
5540
7D40
2AC0
2800
4FC0
0000
ENDCHAR
STARTCHAR 5227
ENCODING 21197
SWIDTH 960 0
DWIDTH 10 0
BBX 10 10 0 -2
BITMAP
1100
7900
07C0
7940
4940
7940
1140
5A40
52C0
0000
ENDCHAR
STARTCHAR 7055
ENCODING 21202
SWIDTH 960 0
DWIDTH 10 0
BBX 10 10 0 -2
BITMAP
2900
7D00
3BC0
1140
7D40
7D40
1140
7A40
12C0
0000
ENDCHAR
STARTCHAR 4630
ENCODING 21205
SWIDTH 960 0
DWIDTH 10 0
BBX 10 10 0 -2
BITMAP
7D00
1100
7FC0
5540
7D40
5540
7D40
1140
7AC0
0000
ENDCHAR
STARTCHAR 5228
ENCODING 21207
SWIDTH 960 0
DWIDTH 10 0
BBX 10 10 0 -2
BITMAP
3F80
2080
3F80
0000
3900
2BC0
3940
2D40
72C0
0000
ENDCHAR
STARTCHAR 342a
ENCODING 21208
SWIDTH 960 0
DWIDTH 10 0
BBX 10 10 0 -2
BITMAP
2900
7D00
2BC0
3940
2940
7D40
2940
2240
3AC0
0000
ENDCHAR
STARTCHAR 4c33
ENCODING 21209
SWIDTH 960 0
DWIDTH 10 0
BBX 10 10 0 -2
BITMAP
7200
17C0
2A80
7100
16C0
2200
67C0
2240
6CC0
0000
ENDCHAR
STARTCHAR 3e21
ENCODING 21213
SWIDTH 960 0
DWIDTH 10 0
BBX 10 10 0 -2
BITMAP
7280
57C0
7100
5780
7A40
5780
5280
5280
5580
0000
ENDCHAR
STARTCHAR 5229
ENCODING 21214
SWIDTH 960 0
DWIDTH 10 0
BBX 10 10 0 -2
BITMAP
5540
1100
6AC0
0000
7FC0
4440
3F80
0880
3180
0000
ENDCHAR
STARTCHAR 4a67
ENCODING 21215
SWIDTH 960 0
DWIDTH 10 0
BBX 10 10 0 -2
BITMAP
0A00
7FC0
1F00
1100
7FC0
1500
3F80
4940
1300
0000
ENDCHAR
STARTCHAR 522d
ENCODING 21216
SWIDTH 960 0
DWIDTH 10 0
BBX 10 10 0 -2
BITMAP
6D00
2500
6FC0
1140
2940
4540
3140
0A40
32C0
0000
ENDCHAR
STARTCHAR 402a
ENCODING 21218
SWIDTH 960 0
DWIDTH 10 0
BBX 10 10 0 -2
BITMAP
1200
7B80
5680
2B80
74C0
0800
7F80
1080
6380
0000
ENDCHAR
STARTCHAR 522a
ENCODING 21219
SWIDTH 960 0
DWIDTH 10 0
BBX 10 10 0 -2
BITMAP
1100
3900
13C0
7D40
2940
3940
2940
3A40
46C0
0000
ENDCHAR
STARTCHAR 3650
ENCODING 21220
SWIDTH 960 0
DWIDTH 10 0
BBX 10 10 0 -2
BITMAP
2900
7D00
3BC0
2940
3940
1140
3940
1240
7AC0
0000
ENDCHAR
STARTCHAR 522b
ENCODING 21222
SWIDTH 960 0
DWIDTH 10 0
BBX 10 10 0 -2
BITMAP
2500
4900
7FC0
5540
7D40
1140
7D40
3A40
54C0
0000
ENDCHAR
STARTCHAR 342b
ENCODING 21223
SWIDTH 960 0
DWIDTH 10 0
BBX 10 10 0 -2
BITMAP
2100
3D00
53C0
3940
3D40
6940
3D40
2A40
3EC0
0000
ENDCHAR
STARTCHAR 372e
ENCODING 21234
SWIDTH 960 0
DWIDTH 10 0
BBX 10 10 0 -2
BITMAP
1D00
7100
3FC0
5540
7D40
1240
7AC0
0000
4A40
0000
ENDCHAR
STARTCHAR 522e
ENCODING 21235
SWIDTH 960 0
DWIDTH 10 0
BBX 10 10 0 -2
BITMAP
7900
2100
7BC0
6940
7940
2140
7940
0240
5AC0
0000
ENDCHAR
STARTCHAR 522f
ENCODING 21237
SWIDTH 960 0
DWIDTH 10 0
BBX 10 10 0 -2
BITMAP
7D00
5500
7FC0
5540
5D40
4940
7F40
AA40
A2C0
0000
ENDCHAR
STARTCHAR 5230
ENCODING 21240
SWIDTH 960 0
DWIDTH 10 0
BBX 10 10 0 -2
BITMAP
2900
7D00
2BC0
6D40
6D40
5140
F940
5240
7AC0
0000
ENDCHAR
STARTCHAR 5231
ENCODING 21241
SWIDTH 960 0
DWIDTH 10 0
BBX 10 10 0 -2
BITMAP
1000
1000
1FC0
2040
4040
0040
0040
0040
0180
0000
ENDCHAR
STARTCHAR 3c5b
ENCODING 21242
SWIDTH 960 0
DWIDTH 10 0
BBX 10 10 0 -2
BITMAP
1000
1000
1FC0
2040
4840
0440
0440
0040
0180
0000
ENDCHAR
STARTCHAR 387b
ENCODING 21246
SWIDTH 960 0
DWIDTH 10 0
BBX 10 10 0 -2
BITMAP
1000
1000
3FC0
2040
4840
0840
1240
3E40
0180
0000
ENDCHAR
STARTCHAR 4c5e
ENCODING 21247
SWIDTH 960 0
DWIDTH 10 0
BBX 10 10 0 -2
BITMAP
1000
1000
3FC0
2A40
4A40
1240
1440
2440
0980
0000
ENDCHAR
STARTCHAR 4c68
ENCODING 21249
SWIDTH 960 0
DWIDTH 10 0
BBX 10 10 0 -2
BITMAP
1000
1000
3F80
4480
1480
0C80
0A80
11C0
6300
0000
ENDCHAR
STARTCHAR 4677
ENCODING 21250
SWIDTH 960 0
DWIDTH 10 0
BBX 10 10 0 -2
BITMAP
1000
1FC0
2040
5040
1E40
1040
1140
1E40
0180
0000
ENDCHAR
STARTCHAR 4a71
ENCODING 21253
SWIDTH 960 0
DWIDTH 10 0
BBX 10 10 0 -2
BITMAP
1000
3FC0
4040
1E40
0240
3E80
2000
2040
3FC0
0000
ENDCHAR
STARTCHAR 5232
ENCODING 21254
SWIDTH 960 0
DWIDTH 10 0
BBX 10 10 0 -2
BITMAP
1000
1000
3FC0
4A40
3240
1A40
2440
4A40
10C0
0000
ENDCHAR
STARTCHAR 5233
ENCODING 21256
SWIDTH 960 0
DWIDTH 10 0
BBX 10 10 0 -2
BITMAP
2000
3FC0
4040
1440
4940
5540
4140
7F40
0080
0000
ENDCHAR
STARTCHAR 5235
ENCODING 21261
SWIDTH 960 0
DWIDTH 10 0
BBX 10 10 0 -2
BITMAP
2000
3FC0
4940
3E40
0840
3E40
2A40
3E40
2A80
0000
ENDCHAR
STARTCHAR 5237
ENCODING 21263
SWIDTH 960 0
DWIDTH 10 0
BBX 10 10 0 -2
BITMAP
1200
7E00
2BC0
7440
0340
7B40
2280
3A40
13C0
0000
ENDCHAR
STARTCHAR 5236
ENCODING 21264
SWIDTH 960 0
DWIDTH 10 0
BBX 10 10 0 -2
BITMAP
2000
3FC0
4040
3E40
1440
3E40
2A40
3640
3E80
0000
ENDCHAR
STARTCHAR 5238
ENCODING 21269
SWIDTH 960 0
DWIDTH 10 0
BBX 10 10 0 -2
BITMAP
1000
1000
1080
1300
1C00
7000
1000
1040
1FC0
0000
ENDCHAR
STARTCHAR 323d
ENCODING 21270
SWIDTH 960 0
DWIDTH 10 0
BBX 10 10 0 -2
BITMAP
1400
1400
2480
2700
6400
2400
2400
2440
23C0
0000
ENDCHAR
STARTCHAR 4b4c
ENCODING 21271
SWIDTH 960 0
DWIDTH 10 0
BBX 10 10 0 -2
BITMAP
1200
1200
7380
1200
1200
1200
3200
5240
13C0
0000
ENDCHAR
STARTCHAR 3a7c
ENCODING 21273
SWIDTH 960 0
DWIDTH 10 0
BBX 10 10 0 -2
BITMAP
7A00
4A00
7BC0
0200
7A00
1240
5BC0
7000
4FC0
0000
ENDCHAR
STARTCHAR 5239
ENCODING 21274
SWIDTH 960 0
DWIDTH 10 0
BBX 10 10 0 -2
BITMAP
7FC0
4000
4000
4000
4000
4000
4000
4000
7FC0
0000
ENDCHAR
STARTCHAR 4159
ENCODING 21277
SWIDTH 960 0
DWIDTH 10 0
BBX 10 10 0 -2
BITMAP
7FC0
4000
4200
5FC0
5240
5240
52C0
4200
7FC0
0000
ENDCHAR
STARTCHAR 3e22
ENCODING 21280
SWIDTH 960 0
DWIDTH 10 0
BBX 10 10 0 -2
BITMAP
7F80
4000
4F00
4800
4F80
5200
5200
4000
7FC0
0000
ENDCHAR
STARTCHAR 3629
ENCODING 21281
SWIDTH 960 0
DWIDTH 10 0
BBX 10 10 0 -2
BITMAP
7F80
4000
5F00
4400
5F00
4400
5F00
4000
7FC0
0000
ENDCHAR
STARTCHAR 523a
ENCODING 21283
SWIDTH 960 0
DWIDTH 10 0
BBX 10 10 0 -2
BITMAP
7FC0
4000
5F00
5500
5F00
5500
5F00
4400
7FC0
0000
ENDCHAR
STARTCHAR 485b
ENCODING 21290
SWIDTH 960 0
DWIDTH 10 0
BBX 10 10 0 -2
BITMAP
7FC0
4000
4500
5DC0
4500
5DC0
4500
4900
7FC0
0000
ENDCHAR
STARTCHAR 523b
ENCODING 21295
SWIDTH 960 0
DWIDTH 10 0
BBX 10 10 0 -2
BITMAP
7FC0
5100
43C0
5680
43C0
4A80
53C0
4000
7FC0
0000
ENDCHAR
STARTCHAR 523c
ENCODING 21297
SWIDTH 960 0
DWIDTH 10 0
BBX 10 10 0 -2
BITMAP
7FC0
4200
4F80
5FC0
4880
4880
4F80
5040
7FC0
0000
ENDCHAR
STARTCHAR 523d
ENCODING 21299
SWIDTH 960 0
DWIDTH 10 0
BBX 10 10 0 -2
BITMAP
7FC0
4200
4D80
5740
4A80
4F80
4500
4A80
7FC0
0000
ENDCHAR
STARTCHAR 523e
ENCODING 21304
SWIDTH 960 0
DWIDTH 10 0
BBX 10 10 0 -2
BITMAP
7FC0
2000
2000
2000
2000
2000
2000
2000
1FC0
0000
ENDCHAR
STARTCHAR 4924
ENCODING 21305
SWIDTH 960 0
DWIDTH 10 0
BBX 10 10 0 -2
BITMAP
0000
7FC0
4A00
4A00
5200
6380
4000
4000
7FC0
0000
ENDCHAR
STARTCHAR 3668
ENCODING 21306
SWIDTH 960 0
DWIDTH 10 0
BBX 10 10 0 -2
BITMAP
7F80
4100
5100
4A00
4400
4A00
5100
4000
7FC0
0000
ENDCHAR
STARTCHAR 3065
ENCODING 21307
SWIDTH 960 0
DWIDTH 10 0
BBX 10 10 0 -2
BITMAP
7FC0
4800
4F80
5200
5FC0
4200
4500
58C0
7FC0
0000
ENDCHAR
STARTCHAR 463f
ENCODING 21311
SWIDTH 960 0
DWIDTH 10 0
BBX 10 10 0 -2
BITMAP
7FC0
4500
5FC0
4200
5FC0
4400
4F80
5480
7FC0
0000
ENDCHAR
STARTCHAR 523f
ENCODING 21312
SWIDTH 960 0
DWIDTH 10 0
BBX 10 10 0 -2
BITMAP
7FC0
4700
4500
4700
4000
5DC0
5540
5DC0
7FC0
0000
ENDCHAR
STARTCHAR 3d3d
ENCODING 21313
SWIDTH 960 0
DWIDTH 10 0
BBX 10 10 0 -2
BITMAP
0400
0400
0480
7FC0
0400
0400
0400
0400
0400
0000
ENDCHAR
STARTCHAR 4069
ENCODING 21315
SWIDTH 960 0
DWIDTH 10 0
BBX 10 10 0 -2
BITMAP
0300
3C00
0400
0400
7FC0
0400
0400
0400
0400
0000
ENDCHAR
STARTCHAR 5241
ENCODING 21317
SWIDTH 960 0
DWIDTH 10 0
BBX 10 10 0 -2
BITMAP
1500
1500
1500
7FC0
1500
1500
2500
2500
4100
0000
ENDCHAR
STARTCHAR 5240
ENCODING 21318
SWIDTH 960 0
DWIDTH 10 0
BBX 10 10 0 -2
BITMAP
0800
7E00
1240
63C0
0400
0400
7FC0
0400
0400
0000
ENDCHAR
STARTCHAR 3e23
ENCODING 21319
SWIDTH 960 0
DWIDTH 10 0
BBX 10 10 0 -2
BITMAP
0A00
3200
1200
1200
7FC0
1200
1200
2200
4200
0000
ENDCHAR
STARTCHAR 3861
ENCODING 21320
SWIDTH 960 0
DWIDTH 10 0
BBX 10 10 0 -2
BITMAP
1000
1000
3F80
4400
0400
7FC0
0400
0400
0400
0000
ENDCHAR
STARTCHAR 5243
ENCODING 21321
SWIDTH 960 0
DWIDTH 10 0
BBX 10 10 0 -2
BITMAP
0400
0400
7FC0
0400
1500
1100
7FC0
2100
4100
0000
ENDCHAR
STARTCHAR 483e
ENCODING 21322
SWIDTH 960 0
DWIDTH 10 0
BBX 10 10 0 -2
BITMAP
0400
2480
1500
3F80
0400
0400
7FC0
0400
0400
0000
ENDCHAR
STARTCHAR 5244
ENCODING 21325
SWIDTH 960 0
DWIDTH 10 0
BBX 10 10 0 -2
BITMAP
7C40
0440
0440
0440
7FC0
4400
4400
4400
47C0
0000
ENDCHAR
STARTCHAR 485c
ENCODING 21329
SWIDTH 960 0
DWIDTH 10 0
BBX 10 10 0 -2
BITMAP
0800
3F80
2480
3F80
2480
3F80
1200
7FC0
0200
0000
ENDCHAR
STARTCHAR 4234
ENCODING 21330
SWIDTH 960 0
DWIDTH 10 0
BBX 10 10 0 -2
BITMAP
0400
7FC0
1100
1100
2A80
0400
7FC0
0400
0400
0000
ENDCHAR
STARTCHAR 426e
ENCODING 21331
SWIDTH 960 0
DWIDTH 10 0
BBX 10 10 0 -2
BITMAP
0400
0780
0400
3F80
2080
3F80
0400
7FC0
0400
0000
ENDCHAR
STARTCHAR 3628
ENCODING 21332
SWIDTH 960 0
DWIDTH 10 0
BBX 10 10 0 -2
BITMAP
2200
2780
7280
2280
2500
2FC0
2540
2540
2AC0
0000
ENDCHAR
STARTCHAR 466e
ENCODING 21335
SWIDTH 960 0
DWIDTH 10 0
BBX 10 10 0 -2
BITMAP
0400
7FC0
0400
7FC0
4A40
5F40
4440
5F40
44C0
0000
ENDCHAR
STARTCHAR 4331
ENCODING 21336
SWIDTH 960 0
DWIDTH 10 0
BBX 10 10 0 -2
BITMAP
1500
3F80
2480
3F80
2480
3F80
0400
7FC0
0400
0000
ENDCHAR
STARTCHAR 476e
ENCODING 21338
SWIDTH 960 0
DWIDTH 10 0
BBX 10 10 0 -2
BITMAP
4280
5FC0
EA80
4F80
4A80
5FC0
4100
4900
4300
0000
ENDCHAR
STARTCHAR 4b4e
ENCODING 21340
SWIDTH 960 0
DWIDTH 10 0
BBX 10 10 0 -2
BITMAP
0800
0800
0800
0C00
0A00
0900
0800
0800
0800
0000
ENDCHAR
STARTCHAR 5246
ENCODING 21342
SWIDTH 960 0
DWIDTH 10 0
BBX 10 10 0 -2
BITMAP
0400
0400
7FC0
0400
0600
0500
0400
0400
0400
0000
ENDCHAR
STARTCHAR 406a
ENCODING 21344
SWIDTH 960 0
DWIDTH 10 0
BBX 10 10 0 -2
BITMAP
0400
0400
0780
0400
0400
3F80
2080
2080
3F80
0000
ENDCHAR
STARTCHAR 3735
ENCODING 21350
SWIDTH 960 0
DWIDTH 10 0
BBX 10 10 0 -2
BITMAP
1100
7D00
1100
7D80
0140
1100
7D00
1100
7D00
0000
ENDCHAR
STARTCHAR 5247
ENCODING 21353
SWIDTH 960 0
DWIDTH 10 0
BBX 10 10 0 -2
BITMAP
1F00
1100
1100
1100
1100
1100
1300
1000
1000
0000
ENDCHAR
STARTCHAR 5248
ENCODING 21358
SWIDTH 960 0
DWIDTH 10 0
BBX 10 10 0 -2
BITMAP
3F80
2000
3FC0
2000
2F00
2900
2B00
4840
4FC0
0000
ENDCHAR
STARTCHAR 312c
ENCODING 21359
SWIDTH 960 0
DWIDTH 10 0
BBX 10 10 0 -2
BITMAP
1800
63C0
4A40
4A40
4A40
7A40
4AC0
1200
2200
0000
ENDCHAR
STARTCHAR 3075
ENCODING 21360
SWIDTH 960 0
DWIDTH 10 0
BBX 10 10 0 -2
BITMAP
1800
63C0
4240
7A40
4240
4240
7AC0
4200
0200
0000
ENDCHAR
STARTCHAR 346d
ENCODING 21361
SWIDTH 960 0
DWIDTH 10 0
BBX 10 10 0 -2
BITMAP
1E00
2200
7F80
2000
2F00
2900
2B00
4840
4FC0
0000
ENDCHAR
STARTCHAR 4228
ENCODING 21363
SWIDTH 960 0
DWIDTH 10 0
BBX 10 10 0 -2
BITMAP
7BC0
4A40
7A40
4A40
7A40
4240
52C0
6A00
0200
0000
ENDCHAR
STARTCHAR 3551
ENCODING 21364
SWIDTH 960 0
DWIDTH 10 0
BBX 10 10 0 -2
BITMAP
1000
13C0
7A40
1240
7A40
2240
2A40
7AC0
0200
0000
ENDCHAR
STARTCHAR 4d71
ENCODING 21365
SWIDTH 960 0
DWIDTH 10 0
BBX 10 10 0 -2
BITMAP
0800
73C0
4A40
6A40
5B40
4A40
7A40
4AC0
1200
0000
ENDCHAR
STARTCHAR 524b
ENCODING 21367
SWIDTH 960 0
DWIDTH 10 0
BBX 10 10 0 -2
BITMAP
2480
5F40
0A00
7FC0
1100
3E80
5240
1080
1F80
0000
ENDCHAR
STARTCHAR 3237
ENCODING 21368
SWIDTH 960 0
DWIDTH 10 0
BBX 10 10 0 -2
BITMAP
4000
7BC0
1240
7A40
1240
5A40
5240
5AC0
7200
0000
ENDCHAR
STARTCHAR 524a
ENCODING 21371
SWIDTH 960 0
DWIDTH 10 0
BBX 10 10 0 -2
BITMAP
5000
4BC0
0240
3240
4A40
0240
7AC0
4A00
7A00
0000
ENDCHAR
STARTCHAR 362a
ENCODING 21375
SWIDTH 960 0
DWIDTH 10 0
BBX 10 10 0 -2
BITMAP
2000
4EC0
6AC0
6EC0
68C0
6AC0
2EC0
2280
4080
0000
ENDCHAR
STARTCHAR 524c
ENCODING 21378
SWIDTH 960 0
DWIDTH 10 0
BBX 10 10 0 -2
BITMAP
3FC0
2000
2000
2000
2000
2000
2000
4000
4000
0000
ENDCHAR
STARTCHAR 4c71
ENCODING 21380
SWIDTH 960 0
DWIDTH 10 0
BBX 10 10 0 -2
BITMAP
3FC0
2000
2F80
2880
2880
2980
2800
4840
4FC0
0000
ENDCHAR
STARTCHAR 524d
ENCODING 21398
SWIDTH 960 0
DWIDTH 10 0
BBX 10 10 0 -2
BITMAP
7FC0
4A40
4980
5C40
4980
4840
4980
5400
57C0
0000
ENDCHAR
STARTCHAR 4e52
ENCODING 21400
SWIDTH 960 0
DWIDTH 10 0
BBX 10 10 0 -2
BITMAP
3FC0
2A80
2F80
2A80
2F80
2200
2F80
4200
5FC0
0000
ENDCHAR
STARTCHAR 387c
ENCODING 21402
SWIDTH 960 0
DWIDTH 10 0
BBX 10 10 0 -2
BITMAP
3FC0
2880
2F80
2880
2F80
2100
2FC0
4200
4600
0000
ENDCHAR
STARTCHAR 3836
ENCODING 21407
SWIDTH 960 0
DWIDTH 10 0
BBX 10 10 0 -2
BITMAP
3FC0
2200
2F80
2880
2880
2F80
2200
5240
5640
0000
ENDCHAR
STARTCHAR 524e
ENCODING 21408
SWIDTH 960 0
DWIDTH 10 0
BBX 10 10 0 -2
BITMAP
7FC0
4000
5C40
5540
5D40
5540
5D40
4040
54C0
0000
ENDCHAR
STARTCHAR 5250
ENCODING 21413
SWIDTH 960 0
DWIDTH 10 0
BBX 10 10 0 -2
BITMAP
7FC0
4000
5500
5FC0
4940
5A00
5E80
4880
5140
0000
ENDCHAR
STARTCHAR 524f
ENCODING 21414
SWIDTH 960 0
DWIDTH 10 0
BBX 10 10 0 -2
BITMAP
7FC0
4F80
4200
4F80
4F80
4300
4D00
4200
5DC0
0000
ENDCHAR
STARTCHAR 3f5f
ENCODING 21416
SWIDTH 960 0
DWIDTH 10 0
BBX 10 10 0 -2
BITMAP
7FC0
4000
5C80
43C0
5C80
5580
5C80
5480
B980
0000
ENDCHAR
STARTCHAR 3139
ENCODING 21417
SWIDTH 960 0
DWIDTH 10 0
BBX 10 10 0 -2
BITMAP
7FC0
4000
5DC0
5580
5DC0
5080
5580
5D80
56C0
0000
ENDCHAR
STARTCHAR 315e
ENCODING 21421
SWIDTH 960 0
DWIDTH 10 0
BBX 10 10 0 -2
BITMAP
7FC0
4000
5CC0
5480
5DC0
5480
5C80
5540
5540
0000
ENDCHAR
STARTCHAR 5251
ENCODING 21422
SWIDTH 960 0
DWIDTH 10 0
BBX 10 10 0 -2
BITMAP
7FC0
4000
55C0
7F00
55C0
5D40
5540
7F40
5440
0000
ENDCHAR
STARTCHAR 5252
ENCODING 21424
SWIDTH 960 0
DWIDTH 10 0
BBX 10 10 0 -2
BITMAP
7FC0
4800
5A80
49C0
5F40
5340
5A80
5A80
5340
0000
ENDCHAR
STARTCHAR 3837
ENCODING 21427
SWIDTH 960 0
DWIDTH 10 0
BBX 10 10 0 -2
BITMAP
2480
7FC0
4000
5D00
49C0
7F40
5480
7CC0
4540
0000
ENDCHAR
STARTCHAR 5253
ENCODING 21430
SWIDTH 960 0
DWIDTH 10 0
BBX 10 10 0 -2
BITMAP
0400
0400
0400
0800
0800
1100
1080
2740
7840
0000
ENDCHAR
STARTCHAR 356e
ENCODING 21435
SWIDTH 960 0
DWIDTH 10 0
BBX 10 10 0 -2
BITMAP
0400
0400
3F80
0400
7FC0
0400
0800
1100
3E80
0000
ENDCHAR
STARTCHAR 3b32
ENCODING 21442
SWIDTH 960 0
DWIDTH 10 0
BBX 10 10 0 -2
BITMAP
0800
1100
3F80
0400
7FC0
1100
6CC0
0300
1C00
0000
ENDCHAR
STARTCHAR 5254
ENCODING 21443
SWIDTH 960 0
DWIDTH 10 0
BBX 10 10 0 -2
BITMAP
0A00
1F00
2080
75C0
0A00
1300
6CC0
0300
3C00
0000
ENDCHAR
STARTCHAR 4b74
ENCODING 21448
SWIDTH 960 0
DWIDTH 10 0
BBX 10 10 0 -2
BITMAP
0000
3F00
1100
1100
0A00
0A00
0400
1B00
60C0
0000
ENDCHAR
STARTCHAR 3a35
ENCODING 21449
SWIDTH 960 0
DWIDTH 10 0
BBX 10 10 0 -2
BITMAP
3F80
0880
2480
1500
1100
0A00
0400
1B00
60C0
0000
ENDCHAR
STARTCHAR 355a
ENCODING 21450
SWIDTH 960 0
DWIDTH 10 0
BBX 10 10 0 -2
BITMAP
7E00
1200
1200
1380
1080
2880
2500
2600
59C0
0000
ENDCHAR
STARTCHAR 4d27
ENCODING 21451
SWIDTH 960 0
DWIDTH 10 0
BBX 10 10 0 -2
BITMAP
0800
0800
7FC0
0800
0F80
1480
1500
2200
4DC0
0000
ENDCHAR
STARTCHAR 4150
ENCODING 21452
SWIDTH 960 0
DWIDTH 10 0
BBX 10 10 0 -2
BITMAP
7FC0
0840
0A40
2A80
1280
2900
2900
4280
0440
0000
ENDCHAR
STARTCHAR 483f
ENCODING 21453
SWIDTH 960 0
DWIDTH 10 0
BBX 10 10 0 -2
BITMAP
3FC0
2000
3F80
2880
2880
2500
2200
4500
58C0
0000
ENDCHAR
STARTCHAR 3c7d
ENCODING 21454
SWIDTH 960 0
DWIDTH 10 0
BBX 10 10 0 -2
BITMAP
1000
17C0
5040
5280
5280
5900
7100
5280
1440
0000
ENDCHAR
STARTCHAR 3d47
ENCODING 21460
SWIDTH 960 0
DWIDTH 10 0
BBX 10 10 0 -2
BITMAP
1000
1BC0
1140
7D40
1140
5480
5480
1140
3240
0000
ENDCHAR
STARTCHAR 3c68
ENCODING 21462
SWIDTH 960 0
DWIDTH 10 0
BBX 10 10 0 -2
BITMAP
7C00
2BC0
3940
2940
3940
2880
7880
0940
0A40
0000
ENDCHAR
STARTCHAR 3c75
ENCODING 21463
SWIDTH 960 0
DWIDTH 10 0
BBX 10 10 0 -2
BITMAP
0380
3C80
1500
7FC0
4040
1F00
1100
0E00
71C0
0000
ENDCHAR
STARTCHAR 3d76
ENCODING 21465
SWIDTH 960 0
DWIDTH 10 0
BBX 10 10 0 -2
BITMAP
1000
2BC0
7D40
1140
7D40
1140
5480
5480
3140
0000
ENDCHAR
STARTCHAR 4840
ENCODING 21467
SWIDTH 960 0
DWIDTH 10 0
BBX 10 10 0 -2
BITMAP
2BC0
7200
23C0
7B40
2340
7AC0
2280
2480
4540
0000
ENDCHAR
STARTCHAR 5257
ENCODING 21471
SWIDTH 960 0
DWIDTH 10 0
BBX 10 10 0 -2
BITMAP
1400
2580
3580
3F80
0400
3F80
1100
0E00
71C0
0000
ENDCHAR
STARTCHAR 3143
ENCODING 21473
SWIDTH 960 0
DWIDTH 10 0
BBX 10 10 0 -2
BITMAP
1C00
11C0
7D40
5540
3940
6C80
3880
2940
3A40
0000
ENDCHAR
STARTCHAR 4151
ENCODING 21474
SWIDTH 960 0
DWIDTH 10 0
BBX 10 10 0 -2
BITMAP
2A80
7FC0
1100
7FC0
2800
3B80
2A80
7900
0AC0
0000
ENDCHAR
STARTCHAR 387d
ENCODING 21475
SWIDTH 960 0
DWIDTH 10 0
BBX 10 10 0 -2
BITMAP
0000
7F80
4080
4080
4080
4080
4080
4080
7F80
0000
ENDCHAR
STARTCHAR 3845
ENCODING 21476
SWIDTH 960 0
DWIDTH 10 0
BBX 10 10 0 -2
BITMAP
0400
0400
7FC0
0400
0400
3F80
2080
2080
3F80
0000
ENDCHAR
STARTCHAR 3667
ENCODING 21477
SWIDTH 960 0
DWIDTH 10 0
BBX 10 10 0 -2
BITMAP
1000
1000
3FC0
2040
5E40
1240
1240
1E40
0180
0000
ENDCHAR
STARTCHAR 525b
ENCODING 21480
SWIDTH 960 0
DWIDTH 10 0
BBX 10 10 0 -2
BITMAP
0000
77C0
5140
5140
5140
5140
7240
0240
04C0
0000
ENDCHAR
STARTCHAR 4321
ENCODING 21481
SWIDTH 960 0
DWIDTH 10 0
BBX 10 10 0 -2
BITMAP
7BC0
4A40
4A40
4A40
4A40
4A40
7AC0
0200
0200
0000
ENDCHAR
STARTCHAR 427e
ENCODING 21482
SWIDTH 960 0
DWIDTH 10 0
BBX 10 10 0 -2
BITMAP
3F80
2080
2080
2080
2080
3F80
0000
2080
4040
0000
ENDCHAR
STARTCHAR 362b
ENCODING 21483
SWIDTH 960 0
DWIDTH 10 0
BBX 10 10 0 -2
BITMAP
0080
7280
5280
5280
5280
52C0
7780
0080
0080
0000
ENDCHAR
STARTCHAR 3e24
ENCODING 21484
SWIDTH 960 0
DWIDTH 10 0
BBX 10 10 0 -2
BITMAP
7F80
0880
1080
6380
0000
7F80
4080
4080
7F80
0000
ENDCHAR
STARTCHAR 525c
ENCODING 21485
SWIDTH 960 0
DWIDTH 10 0
BBX 10 10 0 -2
BITMAP
0100
7500
5500
5500
5480
5480
7480
0840
0840
0000
ENDCHAR
STARTCHAR 525a
ENCODING 21486
SWIDTH 960 0
DWIDTH 10 0
BBX 10 10 0 -2
BITMAP
0000
77C0
5100
5100
5100
5100
7100
0100
0300
0000
ENDCHAR
STARTCHAR 3244
ENCODING 21487
SWIDTH 960 0
DWIDTH 10 0
BBX 10 10 0 -2
BITMAP
0000
7FC0
0080
3C80
2480
2480
3C80
0080
0180
0000
ENDCHAR
STARTCHAR 4266
ENCODING 21488
SWIDTH 960 0
DWIDTH 10 0
BBX 10 10 0 -2
BITMAP
0800
1000
2080
7F40
0000
3F80
2080
2080
3F80
0000
ENDCHAR
STARTCHAR 3c38
ENCODING 21489
SWIDTH 960 0
DWIDTH 10 0
BBX 10 10 0 -2
BITMAP
0200
7200
5240
5380
5600
5200
7200
0240
03C0
0000
ENDCHAR
STARTCHAR 3b4b
ENCODING 21490
SWIDTH 960 0
DWIDTH 10 0
BBX 10 10 0 -2
BITMAP
0400
0400
3F80
2480
3F80
0400
1400
0C00
73C0
0000
ENDCHAR
STARTCHAR 3126
ENCODING 21491
SWIDTH 960 0
DWIDTH 10 0
BBX 10 10 0 -2
BITMAP
0800
0800
7FC0
1000
1000
3F80
5080
1080
1F80
0000
ENDCHAR
STARTCHAR 3370
ENCODING 21494
SWIDTH 960 0
DWIDTH 10 0
BBX 10 10 0 -2
BITMAP
0100
7100
5100
57C0
5100
5100
7100
0100
0100
0000
ENDCHAR
STARTCHAR 3966
ENCODING 21495
SWIDTH 960 0
DWIDTH 10 0
BBX 10 10 0 -2
BITMAP
1F00
1100
1F00
0000
7FC0
0800
1F80
0080
0300
0000
ENDCHAR
STARTCHAR 3b4a
ENCODING 21496
SWIDTH 960 0
DWIDTH 10 0
BBX 10 10 0 -2
BITMAP
7FC0
0040
3E40
0040
3E40
2240
2240
3E40
00C0
0000
ENDCHAR
STARTCHAR 525d
ENCODING 21498
SWIDTH 960 0
DWIDTH 10 0
BBX 10 10 0 -2
BITMAP
0300
7100
5100
5100
5100
5280
7280
0440
0840
0000
ENDCHAR
STARTCHAR 525e
ENCODING 21505
SWIDTH 960 0
DWIDTH 10 0
BBX 10 10 0 -2
BITMAP
0000
77C0
5100
5100
57C0
5100
7100
0100
0300
0000
ENDCHAR
STARTCHAR 3549
ENCODING 21507
SWIDTH 960 0
DWIDTH 10 0
BBX 10 10 0 -2
BITMAP
0200
73C0
5400
5380
5100
5200
7200
0440
03C0
0000
ENDCHAR
STARTCHAR 3346
ENCODING 21508
SWIDTH 960 0
DWIDTH 10 0
BBX 10 10 0 -2
BITMAP
0F00
1100
6A00
0400
1B00
60C0
1F00
1100
1F00
0000
ENDCHAR
STARTCHAR 3967
ENCODING 21512
SWIDTH 960 0
DWIDTH 10 0
BBX 10 10 0 -2
BITMAP
0400
0A00
1100
2E80
4040
1F00
1100
1100
1F00
0000
ENDCHAR
STARTCHAR 3548
ENCODING 21513
SWIDTH 960 0
DWIDTH 10 0
BBX 10 10 0 -2
BITMAP
0400
0400
7FC0
0400
3F80
0000
3F80
2080
3F80
0000
ENDCHAR
STARTCHAR 445f
ENCODING 21514
SWIDTH 960 0
DWIDTH 10 0
BBX 10 10 0 -2
BITMAP
3F80
2080
3F80
0400
7FC0
4440
4440
44C0
0400
0000
ENDCHAR
STARTCHAR 3125
ENCODING 21515
SWIDTH 960 0
DWIDTH 10 0
BBX 10 10 0 -2
BITMAP
0080
7080
57C0
5080
5480
5280
5080
7080
0180
0000
ENDCHAR
STARTCHAR 4631
ENCODING 21516
SWIDTH 960 0
DWIDTH 10 0
BBX 10 10 0 -2
BITMAP
7FC0
4040
5F40
4040
5F40
5140
5140
5F40
40C0
0000
ENDCHAR
STARTCHAR 4c3e
ENCODING 21517
SWIDTH 960 0
DWIDTH 10 0
BBX 10 10 0 -2
BITMAP
0800
0F00
1100
6A00
0400
0FC0
1840
6840
0FC0
0000
ENDCHAR
STARTCHAR 3921
ENCODING 21518
SWIDTH 960 0
DWIDTH 10 0
BBX 10 10 0 -2
BITMAP
0380
3C00
2000
3FC0
2000
2F80
4880
4880
0F80
0000
ENDCHAR
STARTCHAR 4d79
ENCODING 21519
SWIDTH 960 0
DWIDTH 10 0
BBX 10 10 0 -2
BITMAP
0400
7FC0
0400
3F80
2480
3F80
1400
0C00
73C0
0000
ENDCHAR
STARTCHAR 4547
ENCODING 21520
SWIDTH 960 0
DWIDTH 10 0
BBX 10 10 0 -2
BITMAP
0100
7100
5100
57C0
5100
5100
7100
0100
07C0
0000
ENDCHAR
STARTCHAR 387e
ENCODING 21521
SWIDTH 960 0
DWIDTH 10 0
BBX 10 10 0 -2
BITMAP
0800
1000
7FC0
4040
5F40
5140
5140
5F40
40C0
0000
ENDCHAR
STARTCHAR 372f
ENCODING 21531
SWIDTH 960 0
DWIDTH 10 0
BBX 10 10 0 -2
BITMAP
3F00
0900
7FC0
0900
3F00
1000
3F80
5080
1F80
0000
ENDCHAR
STARTCHAR 5267
ENCODING 21533
SWIDTH 960 0
DWIDTH 10 0
BBX 10 10 0 -2
BITMAP
0400
7FC0
1100
0E00
71C0
0000
3F80
2080
3F80
0000
ENDCHAR
STARTCHAR 3663
ENCODING 21535
SWIDTH 960 0
DWIDTH 10 0
BBX 10 10 0 -2
BITMAP
0300
7480
5840
5300
5000
5780
7080
0100
0200
0000
ENDCHAR
STARTCHAR 4b4a
ENCODING 21536
SWIDTH 960 0
DWIDTH 10 0
BBX 10 10 0 -2
BITMAP
0140
7100
57C0
5100
5100
5100
7280
0280
0440
0000
ENDCHAR
STARTCHAR 485d
ENCODING 21542
SWIDTH 960 0
DWIDTH 10 0
BBX 10 10 0 -2
BITMAP
7FC0
0C00
1500
2480
4440
0000
3F80
2080
3F80
0000
ENDCHAR
STARTCHAR 5266
ENCODING 21545
SWIDTH 960 0
DWIDTH 10 0
BBX 10 10 0 -2
BITMAP
0100
7480
5480
5840
5780
5280
7280
0480
0980
0000
ENDCHAR
STARTCHAR 345e
ENCODING 21547
SWIDTH 960 0
DWIDTH 10 0
BBX 10 10 0 -2
BITMAP
0E00
1100
2E80
4040
1F00
0200
3F80
2080
3F80
0000
ENDCHAR
STARTCHAR 5261
ENCODING 21548
SWIDTH 960 0
DWIDTH 10 0
BBX 10 10 0 -2
BITMAP
0180
7600
5400
57C0
5500
5500
7500
0900
1100
0000
ENDCHAR
STARTCHAR 5262
ENCODING 21549
SWIDTH 960 0
DWIDTH 10 0
BBX 10 10 0 -2
BITMAP
0100
77C0
5000
5380
5280
5280
7280
0480
08C0
0000
ENDCHAR
STARTCHAR 5264
ENCODING 21550
SWIDTH 960 0
DWIDTH 10 0
BBX 10 10 0 -2
BITMAP
0100
77C0
5000
5380
5280
5280
7280
0480
08C0
0000
ENDCHAR
STARTCHAR 5265
ENCODING 21558
SWIDTH 960 0
DWIDTH 10 0
BBX 10 10 0 -2
BITMAP
0300
7100
57C0
5540
5540
56C0
7440
0440
04C0
0000
ENDCHAR
STARTCHAR 355b
ENCODING 21560
SWIDTH 960 0
DWIDTH 10 0
BBX 10 10 0 -2
BITMAP
0F00
7500
5500
5780
5480
5680
7500
0900
12C0
0000
ENDCHAR
STARTCHAR 3f61
ENCODING 21561
SWIDTH 960 0
DWIDTH 10 0
BBX 10 10 0 -2
BITMAP
0200
7200
53C0
5440
5100
5100
7100
0280
0440
0000
ENDCHAR
STARTCHAR 4a2d
ENCODING 21563
SWIDTH 960 0
DWIDTH 10 0
BBX 10 10 0 -2
BITMAP
0200
7200
57C0
5AC0
52C0
5540
7940
0240
00C0
0000
ENDCHAR
STARTCHAR 5263
ENCODING 21564
SWIDTH 960 0
DWIDTH 10 0
BBX 10 10 0 -2
BITMAP
0F00
7300
5500
5500
5F00
5500
7500
0540
0DC0
0000
ENDCHAR
STARTCHAR 525f
ENCODING 21565
SWIDTH 960 0
DWIDTH 10 0
BBX 10 10 0 -2
BITMAP
0100
7500
57C0
5500
5100
57C0
7100
0100
0100
0000
ENDCHAR
STARTCHAR 3863
ENCODING 21566
SWIDTH 960 0
DWIDTH 10 0
BBX 10 10 0 -2
BITMAP
3F80
0800
3F00
1100
7FC0
0000
3F80
2080
3F80
0000
ENDCHAR
STARTCHAR 5260
ENCODING 21568
SWIDTH 960 0
DWIDTH 10 0
BBX 10 10 0 -2
BITMAP
07C0
7280
5280
5280
57C0
5180
7280
0480
0980
0000
ENDCHAR
STARTCHAR 4f24
ENCODING 21570
SWIDTH 960 0
DWIDTH 10 0
BBX 10 10 0 -2
BITMAP
3F00
2100
2100
3F00
1000
7F80
4080
4080
7F80
0000
ENDCHAR
STARTCHAR 4a72
ENCODING 21574
SWIDTH 960 0
DWIDTH 10 0
BBX 10 10 0 -2
BITMAP
3F80
2080
2080
3F80
0400
7FC0
1500
2480
4440
0000
ENDCHAR
STARTCHAR 4468
ENCODING 21576
SWIDTH 960 0
DWIDTH 10 0
BBX 10 10 0 -2
BITMAP
1F00
1100
1F00
0000
3F80
0400
1F00
0400
7FC0
0000
ENDCHAR
STARTCHAR 3862
ENCODING 21577
SWIDTH 960 0
DWIDTH 10 0
BBX 10 10 0 -2
BITMAP
0F00
2900
2F00
2000
3F00
0100
7FC0
2080
4040
0000
ENDCHAR
STARTCHAR 3970
ENCODING 21578
SWIDTH 960 0
DWIDTH 10 0
BBX 10 10 0 -2
BITMAP
0400
1400
3F80
0400
7FC0
0000
1F00
1100
1F00
0000
ENDCHAR
STARTCHAR 5268
ENCODING 21582
SWIDTH 960 0
DWIDTH 10 0
BBX 10 10 0 -2
BITMAP
0780
7480
5480
5780
5500
5500
7480
0480
0840
0000
ENDCHAR
STARTCHAR 465d
ENCODING 21585
SWIDTH 960 0
DWIDTH 10 0
BBX 10 10 0 -2
BITMAP
1F00
0400
7FC0
0A00
1100
7FC0
1100
1100
1F00
0000
ENDCHAR
STARTCHAR 526c
ENCODING 21599
SWIDTH 960 0
DWIDTH 10 0
BBX 10 10 0 -2
BITMAP
0100
7100
57C0
5100
5240
5180
7100
0240
07C0
0000
ENDCHAR
STARTCHAR 3c7e
ENCODING 21608
SWIDTH 960 0
DWIDTH 10 0
BBX 10 10 0 -2
BITMAP
3FC0
2440
2E40
2440
3F40
2440
2E40
4A40
4EC0
0000
ENDCHAR
STARTCHAR 3c76
ENCODING 21610
SWIDTH 960 0
DWIDTH 10 0
BBX 10 10 0 -2
BITMAP
0F80
7880
5880
5F80
5500
5500
7500
0940
11C0
0000
ENDCHAR
STARTCHAR 526f
ENCODING 21616
SWIDTH 960 0
DWIDTH 10 0
BBX 10 10 0 -2
BITMAP
1200
1A80
5300
5A40
63C0
0000
3F80
2080
3F80
0000
ENDCHAR
STARTCHAR 526d
ENCODING 21617
SWIDTH 960 0
DWIDTH 10 0
BBX 10 10 0 -2
BITMAP
01C0
EE80
AA80
AA80
AA80
AA80
EA80
0B40
1740
0000
ENDCHAR
STARTCHAR 4c23
ENCODING 21619
SWIDTH 960 0
DWIDTH 10 0
BBX 10 10 0 -2
BITMAP
0200
7200
5780
5200
5FC0
5200
7700
0A80
1240
0000
ENDCHAR
STARTCHAR 526a
ENCODING 21621
SWIDTH 960 0
DWIDTH 10 0
BBX 10 10 0 -2
BITMAP
0FC0
7080
5780
5580
5580
5780
7080
0080
0180
0000
ENDCHAR
STARTCHAR 5273
ENCODING 21622
SWIDTH 960 0
DWIDTH 10 0
BBX 10 10 0 -2
BITMAP
0200
73C0
5F40
5540
5540
5540
7680
0340
0540
0000
ENDCHAR
STARTCHAR 526e
ENCODING 21623
SWIDTH 960 0
DWIDTH 10 0
BBX 10 10 0 -2
BITMAP
07C0
7540
57C0
5540
5540
57C0
7100
0100
0100
0000
ENDCHAR
STARTCHAR 5271
ENCODING 21627
SWIDTH 960 0
DWIDTH 10 0
BBX 10 10 0 -2
BITMAP
0100
77C0
5540
57C0
5540
5540
77C0
0100
0100
0000
ENDCHAR
STARTCHAR 3846
ENCODING 21628
SWIDTH 960 0
DWIDTH 10 0
BBX 10 10 0 -2
BITMAP
0180
7700
5100
5540
5380
5FC0
5100
7100
0300
0000
ENDCHAR
STARTCHAR 4c3f
ENCODING 21629
SWIDTH 960 0
DWIDTH 10 0
BBX 10 10 0 -2
BITMAP
0400
1B00
60C0
1F00
0000
3B80
2A80
3B80
0200
0000
ENDCHAR
STARTCHAR 5272
ENCODING 21632
SWIDTH 960 0
DWIDTH 10 0
BBX 10 10 0 -2
BITMAP
0780
7480
5780
5480
5480
5780
7480
0480
0FC0
0000
ENDCHAR
STARTCHAR 5274
ENCODING 21636
SWIDTH 960 0
DWIDTH 10 0
BBX 10 10 0 -2
BITMAP
0100
7540
5540
57C0
5100
5100
7540
0540
07C0
0000
ENDCHAR
STARTCHAR 5276
ENCODING 21638
SWIDTH 960 0
DWIDTH 10 0
BBX 10 10 0 -2
BITMAP
0400
77C0
5840
5740
5540
5740
7480
0440
07C0
0000
ENDCHAR
STARTCHAR 3a70
ENCODING 21643
SWIDTH 960 0
DWIDTH 10 0
BBX 10 10 0 -2
BITMAP
0200
7200
57C0
5A00
53C0
5200
53C0
7200
0200
0000
ENDCHAR
STARTCHAR 4f42
ENCODING 21644
SWIDTH 960 0
DWIDTH 10 0
BBX 10 10 0 -2
BITMAP
1800
73C0
1240
7A40
1240
3A40
3240
5240
13C0
0000
ENDCHAR
STARTCHAR 526b
ENCODING 21646
SWIDTH 960 0
DWIDTH 10 0
BBX 10 10 0 -2
BITMAP
2100
3900
6AC0
1000
6FC0
0000
3F80
2080
3F80
0000
ENDCHAR
STARTCHAR 5269
ENCODING 21647
SWIDTH 960 0
DWIDTH 10 0
BBX 10 10 0 -2
BITMAP
0300
7000
5700
5140
5780
5300
7580
0940
0300
0000
ENDCHAR
STARTCHAR 5275
ENCODING 21648
SWIDTH 960 0
DWIDTH 10 0
BBX 10 10 0 -2
BITMAP
0280
7280
57C0
5C80
5680
5580
7480
0480
0580
0000
ENDCHAR
STARTCHAR 5270
ENCODING 21650
SWIDTH 960 0
DWIDTH 10 0
BBX 10 10 0 -2
BITMAP
7BC0
4A40
7BC0
0000
1E00
1200
1240
2240
43C0
0000
ENDCHAR
STARTCHAR 5278
ENCODING 21666
SWIDTH 960 0
DWIDTH 10 0
BBX 10 10 0 -2
BITMAP
3B80
2A80
3B80
0E00
7FC0
1000
3F80
0080
0300
0000
ENDCHAR
STARTCHAR 5323
ENCODING 21668
SWIDTH 960 0
DWIDTH 10 0
BBX 10 10 0 -2
BITMAP
0100
77C0
5440
5380
5100
57C0
7100
0140
01C0
0000
ENDCHAR
STARTCHAR 527a
ENCODING 21669
SWIDTH 960 0
DWIDTH 10 0
BBX 10 10 0 -2
BITMAP
07C0
7100
5280
5740
5000
5100
77C0
0100
07C0
0000
ENDCHAR
STARTCHAR 527e
ENCODING 21672
SWIDTH 960 0
DWIDTH 10 0
BBX 10 10 0 -2
BITMAP
0200
67C0
0940
2280
4C40
0000
3F80
2080
3F80
0000
ENDCHAR
STARTCHAR 5321
ENCODING 21675
SWIDTH 960 0
DWIDTH 10 0
BBX 10 10 0 -2
BITMAP
3DC0
2540
3D40
29C0
2800
2540
2400
4300
40C0
0000
ENDCHAR
STARTCHAR 527b
ENCODING 21676
SWIDTH 960 0
DWIDTH 10 0
BBX 10 10 0 -2
BITMAP
0100
77C0
5280
5440
5280
5280
7100
0280
0440
0000
ENDCHAR
STARTCHAR 533e
ENCODING 21679
SWIDTH 960 0
DWIDTH 10 0
BBX 10 10 0 -2
BITMAP
0200
7380
5280
5500
5280
5440
7380
0280
0380
0000
ENDCHAR
STARTCHAR 3a69
ENCODING 21682
SWIDTH 960 0
DWIDTH 10 0
BBX 10 10 0 -2
BITMAP
0440
7280
57C0
5100
57C0
5100
7280
0280
0440
0000
ENDCHAR
STARTCHAR 3331
ENCODING 21683
SWIDTH 960 0
DWIDTH 10 0
BBX 10 10 0 -2
BITMAP
0100
77C0
5100
5280
5100
5240
7480
0180
0640
0000
ENDCHAR
STARTCHAR 5279
ENCODING 21688
SWIDTH 960 0
DWIDTH 10 0
BBX 10 10 0 -2
BITMAP
0280
0240
7FC0
4200
5D40
4140
5C80
5480
5D40
0000
ENDCHAR
STARTCHAR 5325
ENCODING 21692
SWIDTH 960 0
DWIDTH 10 0
BBX 10 10 0 -2
BITMAP
3F00
2100
2700
7F80
4080
5E80
5280
5E80
4180
0000
ENDCHAR
STARTCHAR 3076
ENCODING 21693
SWIDTH 960 0
DWIDTH 10 0
BBX 10 10 0 -2
BITMAP
07C0
7440
5540
57C0
5540
5540
76C0
0440
07C0
0000
ENDCHAR
STARTCHAR 5324
ENCODING 21694
SWIDTH 960 0
DWIDTH 10 0
BBX 10 10 0 -2
BITMAP
0140
77C0
5180
5FC0
5200
56C0
7B00
0240
03C0
0000
ENDCHAR
STARTCHAR 3025
ENCODING 21696
SWIDTH 960 0
DWIDTH 10 0
BBX 10 10 0 -2
BITMAP
0400
7FC0
0000
1F00
1100
1F00
0A80
3100
5CC0
0000
ENDCHAR
STARTCHAR 494a
ENCODING 21697
SWIDTH 960 0
DWIDTH 10 0
BBX 10 10 0 -2
BITMAP
1F00
1100
1100
1F00
0000
7BC0
4A40
4A40
7BC0
0000
ENDCHAR
STARTCHAR 5322
ENCODING 21698
SWIDTH 960 0
DWIDTH 10 0
BBX 10 10 0 -2
BITMAP
07C0
7100
57C0
5540
5540
56C0
7440
0440
07C0
0000
ENDCHAR
STARTCHAR 527c
ENCODING 21700
SWIDTH 960 0
DWIDTH 10 0
BBX 10 10 0 -2
BITMAP
0280
7280
57C0
5280
5280
5280
77C0
0280
0440
0000
ENDCHAR
STARTCHAR 5277
ENCODING 21703
SWIDTH 960 0
DWIDTH 10 0
BBX 10 10 0 -2
BITMAP
0100
7380
5100
57C0
5000
5100
7380
0100
07C0
0000
ENDCHAR
STARTCHAR 527d
ENCODING 21704
SWIDTH 960 0
DWIDTH 10 0
BBX 10 10 0 -2
BITMAP
0300
7480
5840
5300
5000
5780
7480
0480
0780
0000
ENDCHAR
STARTCHAR 3a48
ENCODING 21705
SWIDTH 960 0
DWIDTH 10 0
BBX 10 10 0 -2
BITMAP
1200
7E80
1200
7FC0
0100
7940
4880
7980
0640
0000
ENDCHAR
STARTCHAR 5326
ENCODING 21720
SWIDTH 960 0
DWIDTH 10 0
BBX 10 10 0 -2
BITMAP
0400
79C0
5000
55C0
5C80
5480
7480
0480
0580
0000
ENDCHAR
STARTCHAR 3077
ENCODING 21729
SWIDTH 960 0
DWIDTH 10 0
BBX 10 10 0 -2
BITMAP
1F00
1100
3F80
2080
3F80
2080
3F80
1100
2080
0000
ENDCHAR
STARTCHAR 532f
ENCODING 21730
SWIDTH 960 0
DWIDTH 10 0
BBX 10 10 0 -2
BITMAP
07C0
7100
5380
5100
57C0
5280
77C0
0280
0480
0000
ENDCHAR
STARTCHAR 5327
ENCODING 21733
SWIDTH 960 0
DWIDTH 10 0
BBX 10 10 0 -2
BITMAP
7FC0
2480
3D80
0000
7FC0
3C80
2480
3C80
0380
0000
ENDCHAR
STARTCHAR 5328
ENCODING 21734
SWIDTH 960 0
DWIDTH 10 0
BBX 10 10 0 -2
BITMAP
0300
7D40
5500
5FC0
5500
5740
7C80
0480
0D40
0000
ENDCHAR
STARTCHAR 3e25
ENCODING 21736
SWIDTH 960 0
DWIDTH 10 0
BBX 10 10 0 -2
BITMAP
0540
7100
57C0
5440
57C0
5440
77C0
0440
04C0
0000
ENDCHAR
STARTCHAR 4b69
ENCODING 21737
SWIDTH 960 0
DWIDTH 10 0
BBX 10 10 0 -2
BITMAP
07C0
7540
57C0
5540
57C0
5100
77C0
0100
07C0
0000
ENDCHAR
STARTCHAR 532d
ENCODING 21741
SWIDTH 960 0
DWIDTH 10 0
BBX 10 10 0 -2
BITMAP
7BC0
4A40
7BC0
0500
0480
7FC0
0A00
1100
60C0
0000
ENDCHAR
STARTCHAR 532c
ENCODING 21742
SWIDTH 960 0
DWIDTH 10 0
BBX 10 10 0 -2
BITMAP
0140
77C0
5100
57C0
5280
5500
7BC0
0100
0300
0000
ENDCHAR
STARTCHAR 452f
ENCODING 21746
SWIDTH 960 0
DWIDTH 10 0
BBX 10 10 0 -2
BITMAP
2380
7200
23C0
7280
2480
0000
3F80
2080
3F80
0000
ENDCHAR
STARTCHAR 532e
ENCODING 21754
SWIDTH 960 0
DWIDTH 10 0
BBX 10 10 0 -2
BITMAP
0140
77C0
5100
57C0
5540
57C0
7540
07C0
0540
0000
ENDCHAR
STARTCHAR 532b
ENCODING 21757
SWIDTH 960 0
DWIDTH 10 0
BBX 10 10 0 -2
BITMAP
07C0
7100
57C0
57C0
5540
57C0
7500
0300
0CC0
0000
ENDCHAR
STARTCHAR 3134
ENCODING 21764
SWIDTH 960 0
DWIDTH 10 0
BBX 10 10 0 -2
BITMAP
0780
7480
5780
5480
5780
5480
7780
0480
0840
0000
ENDCHAR
STARTCHAR 3a36
ENCODING 21766
SWIDTH 960 0
DWIDTH 10 0
BBX 10 10 0 -2
BITMAP
0200
0480
77C0
5280
54C0
5380
5480
7300
0CC0
0000
ENDCHAR
STARTCHAR 3f30
ENCODING 21767
SWIDTH 960 0
DWIDTH 10 0
BBX 10 10 0 -2
BITMAP
3FC0
2000
3FC0
2900
4CC0
0000
1F80
1080
1F80
0000
ENDCHAR
STARTCHAR 5329
ENCODING 21775
SWIDTH 960 0
DWIDTH 10 0
BBX 10 10 0 -2
BITMAP
0240
7180
5640
5200
5FC0
5500
7FC0
1540
0100
0000
ENDCHAR
STARTCHAR 4562
ENCODING 21776
SWIDTH 960 0
DWIDTH 10 0
BBX 10 10 0 -2
BITMAP
0200
3FC0
2200
2F80
3FC0
2280
2F80
4880
4F80
0000
ENDCHAR
STARTCHAR 532a
ENCODING 21780
SWIDTH 960 0
DWIDTH 10 0
BBX 10 10 0 -2
BITMAP
07C0
7100
5780
5280
57C0
5000
7780
0480
0780
0000
ENDCHAR
STARTCHAR 3022
ENCODING 21782
SWIDTH 960 0
DWIDTH 10 0
BBX 10 10 0 -2
BITMAP
1FC0
0500
7500
5FC0
5540
5FC0
7500
0500
1FC0
0000
ENDCHAR
STARTCHAR 5334
ENCODING 21806
SWIDTH 960 0
DWIDTH 10 0
BBX 10 10 0 -2
BITMAP
1100
3FC0
7F80
2200
3FC0
0000
1F80
1080
1F80
0000
ENDCHAR
STARTCHAR 4d23
ENCODING 21807
SWIDTH 960 0
DWIDTH 10 0
BBX 10 10 0 -2
BITMAP
0280
7500
57C0
5500
57C0
5500
77C0
0500
07C0
0000
ENDCHAR
STARTCHAR 3e27
ENCODING 21809
SWIDTH 960 0
DWIDTH 10 0
BBX 10 10 0 -2
BITMAP
0380
7280
5380
5280
57C0
5440
77C0
0440
07C0
0000
ENDCHAR
STARTCHAR 533a
ENCODING 21811
SWIDTH 960 0
DWIDTH 10 0
BBX 10 10 0 -2
BITMAP
07C0
7000
57C0
5440
57C0
5500
77C0
0A80
1440
0000
ENDCHAR
STARTCHAR 5339
ENCODING 21816
SWIDTH 960 0
DWIDTH 10 0
BBX 10 10 0 -2
BITMAP
0300
7480
5B40
5000
5780
5100
7000
0A40
0B40
0000
ENDCHAR
STARTCHAR 5330
ENCODING 21817
SWIDTH 960 0
DWIDTH 10 0
BBX 10 10 0 -2
BITMAP
0480
7540
5E00
5400
5680
5A40
7A00
1280
0640
0000
ENDCHAR
STARTCHAR 4243
ENCODING 21822
SWIDTH 960 0
DWIDTH 10 0
BBX 10 10 0 -2
BITMAP
0F80
E200
BFC0
AA80
BFC0
AA80
FFC0
0200
0F80
0000
ENDCHAR
STARTCHAR 5331
ENCODING 21824
SWIDTH 960 0
DWIDTH 10 0
BBX 10 10 0 -2
BITMAP
07C0
7480
55C0
5480
57C0
5480
75C0
0880
13C0
0000
ENDCHAR
STARTCHAR 426f
ENCODING 21828
SWIDTH 960 0
DWIDTH 10 0
BBX 10 10 0 -2
BITMAP
0FC0
7200
5340
5D80
5300
5D80
7340
0D40
0200
0000
ENDCHAR
STARTCHAR 5336
ENCODING 21829
SWIDTH 960 0
DWIDTH 10 0
BBX 10 10 0 -2
BITMAP
0100
71C0
5100
57C0
5440
57C0
7100
07C0
0100
0000
ENDCHAR
STARTCHAR 3e26
ENCODING 21830
SWIDTH 960 0
DWIDTH 10 0
BBX 10 10 0 -2
BITMAP
0400
7FC0
1100
7FC0
4A40
73C0
4E40
4A40
4EC0
0000
ENDCHAR
STARTCHAR 5333
ENCODING 21836
SWIDTH 960 0
DWIDTH 10 0
BBX 10 10 0 -2
BITMAP
0100
77C0
5440
5280
54C0
5000
7380
0100
07C0
0000
ENDCHAR
STARTCHAR 4c64
ENCODING 21839
SWIDTH 960 0
DWIDTH 10 0
BBX 10 10 0 -2
BITMAP
7BC0
4A40
7BC0
4040
5F40
5140
5140
5F40
40C0
0000
ENDCHAR
STARTCHAR 373c
ENCODING 21843
SWIDTH 960 0
DWIDTH 10 0
BBX 10 10 0 -2
BITMAP
7A00
03C0
3A80
2900
3AC0
4000
3F80
2080
3F80
0000
ENDCHAR
STARTCHAR 5337
ENCODING 21846
SWIDTH 960 0
DWIDTH 10 0
BBX 10 10 0 -2
BITMAP
0100
7540
5300
54C0
5000
5100
7540
0300
04C0
0000
ENDCHAR
STARTCHAR 5338
ENCODING 21847
SWIDTH 960 0
DWIDTH 10 0
BBX 10 10 0 -2
BITMAP
03C0
7440
5080
5200
54C0
5440
76C0
0440
07C0
0000
ENDCHAR
STARTCHAR 5335
ENCODING 21852
SWIDTH 960 0
DWIDTH 10 0
BBX 10 10 0 -2
BITMAP
0FC0
7240
5480
5B40
5000
5FC0
7240
0480
0B40
0000
ENDCHAR
STARTCHAR 533b
ENCODING 21853
SWIDTH 960 0
DWIDTH 10 0
BBX 10 10 0 -2
BITMAP
0200
EDC0
A540
BF40
A540
A540
EFC0
1500
04C0
0000
ENDCHAR
STARTCHAR 5332
ENCODING 21859
SWIDTH 960 0
DWIDTH 10 0
BBX 10 10 0 -2
BITMAP
1000
DDC0
C940
DD40
C940
CD40
D940
1DC0
0100
0000
ENDCHAR
STARTCHAR 5341
ENCODING 21883
SWIDTH 960 0
DWIDTH 10 0
BBX 10 10 0 -2
BITMAP
0400
3F80
0A00
7FC0
5540
0400
3F80
2080
3F80
0000
ENDCHAR
STARTCHAR 5346
ENCODING 21884
SWIDTH 960 0
DWIDTH 10 0
BBX 10 10 0 -2
BITMAP
0100
77C0
5280
5FC0
5940
57C0
7540
0540
0100
0000
ENDCHAR
STARTCHAR 5342
ENCODING 21886
SWIDTH 960 0
DWIDTH 10 0
BBX 10 10 0 -2
BITMAP
0280
7C80
55C0
5E80
5480
5680
7C80
0540
0540
0000
ENDCHAR
STARTCHAR 533d
ENCODING 21888
SWIDTH 960 0
DWIDTH 10 0
BBX 10 10 0 -2
BITMAP
0100
77C0
5440
5180
5280
5100
7380
06C0
0380
0000
ENDCHAR
STARTCHAR 5347
ENCODING 21891
SWIDTH 960 0
DWIDTH 10 0
BBX 10 10 0 -2
BITMAP
0200
EFC0
A200
AFC0
AD40
AF40
EA40
0F40
0AC0
0000
ENDCHAR
STARTCHAR 4131
ENCODING 21892
SWIDTH 960 0
DWIDTH 10 0
BBX 10 10 0 -2
BITMAP
1100
7FC0
0400
1F00
7FC0
1500
7FC0
2080
3F80
0000
ENDCHAR
STARTCHAR 5349
ENCODING 21895
SWIDTH 960 0
DWIDTH 10 0
BBX 10 10 0 -2
BITMAP
0440
7F40
5540
5F40
5D40
5F40
7440
0E40
14C0
0000
ENDCHAR
STARTCHAR 3922
ENCODING 21897
SWIDTH 960 0
DWIDTH 10 0
BBX 10 10 0 -2
BITMAP
02C0
7240
55C0
5C00
55C0
5680
55C0
7480
0540
0000
ENDCHAR
STARTCHAR 533f
ENCODING 21898
SWIDTH 960 0
DWIDTH 10 0
BBX 10 10 0 -2
BITMAP
0140
E100
AFC0
A900
AD40
A940
AE80
EA80
1740
0000
ENDCHAR
STARTCHAR 437d
ENCODING 21899
SWIDTH 960 0
DWIDTH 10 0
BBX 10 10 0 -2
BITMAP
0580
7FC0
5580
5400
57C0
5100
77C0
0380
0540
0000
ENDCHAR
STARTCHAR 5343
ENCODING 21912
SWIDTH 960 0
DWIDTH 10 0
BBX 10 10 0 -2
BITMAP
0540
77C0
5000
57C0
5200
57C0
7540
0540
0540
0000
ENDCHAR
STARTCHAR 533c
ENCODING 21913
SWIDTH 960 0
DWIDTH 10 0
BBX 10 10 0 -2
BITMAP
0380
7480
5FC0
5200
5540
5280
7D80
02C0
0D00
0000
ENDCHAR
STARTCHAR 342d
ENCODING 21914
SWIDTH 960 0
DWIDTH 10 0
BBX 10 10 0 -2
BITMAP
0300
7500
5F80
5580
5480
5FC0
5200
7500
08C0
0000
ENDCHAR
STARTCHAR 346e
ENCODING 21916
SWIDTH 960 0
DWIDTH 10 0
BBX 10 10 0 -2
BITMAP
0400
7FC0
3F80
1100
1F00
0A00
7FC0
1100
1F00
0000
ENDCHAR
STARTCHAR 3365
ENCODING 21917
SWIDTH 960 0
DWIDTH 10 0
BBX 10 10 0 -2
BITMAP
0780
7480
5780
5780
5200
57C0
5A40
7340
0080
0000
ENDCHAR
STARTCHAR 5344
ENCODING 21918
SWIDTH 960 0
DWIDTH 10 0
BBX 10 10 0 -2
BITMAP
0400
6FC0
6B40
6F40
6940
6F40
6940
0DC0
0900
0000
ENDCHAR
STARTCHAR 5340
ENCODING 21919
SWIDTH 960 0
DWIDTH 10 0
BBX 10 10 0 -2
BITMAP
0FC0
7A40
5FC0
5480
5780
5480
7780
0480
0580
0000
ENDCHAR
STARTCHAR 3776
ENCODING 21927
SWIDTH 960 0
DWIDTH 10 0
BBX 10 10 0 -2
BITMAP
0200
7FC0
5840
5780
5480
5780
7480
0480
0FC0
0000
ENDCHAR
STARTCHAR 534a
ENCODING 21928
SWIDTH 960 0
DWIDTH 10 0
BBX 10 10 0 -2
BITMAP
0100
77C0
5380
5000
57C0
5440
7280
0280
04C0
0000
ENDCHAR
STARTCHAR 5348
ENCODING 21929
SWIDTH 960 0
DWIDTH 10 0
BBX 10 10 0 -2
BITMAP
0700
7280
5540
5000
5740
5540
7780
0540
0540
0000
ENDCHAR
STARTCHAR 4153
ENCODING 21930
SWIDTH 960 0
DWIDTH 10 0
BBX 10 10 0 -2
BITMAP
0400
7FC0
0400
3580
0400
7FC0
2280
2D00
70C0
0000
ENDCHAR
STARTCHAR 354a
ENCODING 21931
SWIDTH 960 0
DWIDTH 10 0
BBX 10 10 0 -2
BITMAP
05C0
7EC0
5540
5EC0
5000
5200
7FC0
0500
18C0
0000
ENDCHAR
STARTCHAR 362c
ENCODING 21932
SWIDTH 960 0
DWIDTH 10 0
BBX 10 10 0 -2
BITMAP
1F00
0400
7FC0
1100
6EC0
0000
3F80
2E80
2180
0000
ENDCHAR
STARTCHAR 5345
ENCODING 21934
SWIDTH 960 0
DWIDTH 10 0
BBX 10 10 0 -2
BITMAP
7BC0
4A40
7BC0
3F80
2480
3F80
0400
7FC0
0400
0000
ENDCHAR
STARTCHAR 3674
ENCODING 21936
SWIDTH 960 0
DWIDTH 10 0
BBX 10 10 0 -2
BITMAP
0300
7480
5A40
5780
5480
5780
5540
7480
0E40
0000
ENDCHAR
STARTCHAR 3144
ENCODING 21942
SWIDTH 960 0
DWIDTH 10 0
BBX 10 10 0 -2
BITMAP
2880
1500
7FC0
5140
1F00
0800
3F80
2080
3F80
0000
ENDCHAR
STARTCHAR 534e
ENCODING 21956
SWIDTH 960 0
DWIDTH 10 0
BBX 10 10 0 -2
BITMAP
0FC0
7100
57C0
5440
57C0
5380
7680
0100
0EC0
0000
ENDCHAR
STARTCHAR 534c
ENCODING 21957
SWIDTH 960 0
DWIDTH 10 0
BBX 10 10 0 -2
BITMAP
0200
7780
5480
5780
5280
5FC0
7200
0500
08C0
0000
ENDCHAR
STARTCHAR 5427
ENCODING 21959
SWIDTH 960 0
DWIDTH 10 0
BBX 10 10 0 -2
BITMAP
0400
7FC0
2480
5540
7FC0
5140
5F40
4040
7FC0
0000
ENDCHAR
STARTCHAR 5351
ENCODING 21972
SWIDTH 960 0
DWIDTH 10 0
BBX 10 10 0 -2
BITMAP
0580
7600
57C0
5280
5B80
5A80
5FC0
7280
0440
0000
ENDCHAR
STARTCHAR 534b
ENCODING 21978
SWIDTH 960 0
DWIDTH 10 0
BBX 10 10 0 -2
BITMAP
0200
7780
5480
57C0
5400
57C0
7040
1540
00C0
0000
ENDCHAR
STARTCHAR 534f
ENCODING 21980
SWIDTH 960 0
DWIDTH 10 0
BBX 10 10 0 -2
BITMAP
0280
7780
5FC0
5600
5B80
5000
7780
0480
0780
0000
ENDCHAR
STARTCHAR 534d
ENCODING 21983
SWIDTH 960 0
DWIDTH 10 0
BBX 10 10 0 -2
BITMAP
0440
7280
57C0
5100
57C0
5200
7780
0900
07C0
0000
ENDCHAR
STARTCHAR 3b4c
ENCODING 21987
SWIDTH 960 0
DWIDTH 10 0
BBX 10 10 0 -2
BITMAP
77C0
5040
7740
0040
7740
5540
7740
5040
50C0
0000
ENDCHAR
STARTCHAR 5350
ENCODING 21988
SWIDTH 960 0
DWIDTH 10 0
BBX 10 10 0 -2
BITMAP
0540
77C0
5200
5FC0
5540
57C0
7100
01C0
0740
0000
ENDCHAR
STARTCHAR 5353
ENCODING 22007
SWIDTH 960 0
DWIDTH 10 0
BBX 10 10 0 -2
BITMAP
0480
7E80
55C0
5F40
5540
5740
7580
0940
0B40
0000
ENDCHAR
STARTCHAR 5358
ENCODING 22009
SWIDTH 960 0
DWIDTH 10 0
BBX 10 10 0 -2
BITMAP
0880
75C0
5880
55C0
51C0
5C80
75C0
0480
0BC0
0000
ENDCHAR
STARTCHAR 5356
ENCODING 22013
SWIDTH 960 0
DWIDTH 10 0
BBX 10 10 0 -2
BITMAP
0500
EFC0
A540
AE00
AA80
AE80
E480
0F40
1540
0000
ENDCHAR
STARTCHAR 5355
ENCODING 22014
SWIDTH 960 0
DWIDTH 10 0
BBX 10 10 0 -2
BITMAP
0500
75C0
5E00
5500
57C0
5A80
5BC0
7280
0540
0000
ENDCHAR
STARTCHAR 4332
ENCODING 22022
SWIDTH 960 0
DWIDTH 10 0
BBX 10 10 0 -2
BITMAP
0500
7FC0
5A80
5F80
5200
5F80
7200
0500
18C0
0000
ENDCHAR
STARTCHAR 3245
ENCODING 22025
SWIDTH 960 0
DWIDTH 10 0
BBX 10 10 0 -2
BITMAP
0400
7FC0
0400
3F80
1100
7FC0
1080
7BC0
2BC0
0000
ENDCHAR
STARTCHAR 5352
ENCODING 22036
SWIDTH 960 0
DWIDTH 10 0
BBX 10 10 0 -2
BITMAP
0FC0
E800
AB80
AA80
AFC0
AD40
EFC0
0800
0FC0
0000
ENDCHAR
STARTCHAR 5354
ENCODING 22038
SWIDTH 960 0
DWIDTH 10 0
BBX 10 10 0 -2
BITMAP
0100
77C0
5100
57C0
5280
5380
7280
0380
0440
0000
ENDCHAR
STARTCHAR 3e28
ENCODING 22039
SWIDTH 960 0
DWIDTH 10 0
BBX 10 10 0 -2
BITMAP
2480
7FC0
4E40
2000
3F00
2040
3FC0
1100
1F00
0000
ENDCHAR
STARTCHAR 3133
ENCODING 22040
SWIDTH 960 0
DWIDTH 10 0
BBX 10 10 0 -2
BITMAP
0180
7100
57C0
5500
55C0
5400
7540
0580
0BC0
0000
ENDCHAR
STARTCHAR 5357
ENCODING 22043
SWIDTH 960 0
DWIDTH 10 0
BBX 10 10 0 -2
BITMAP
0200
3FC0
E000
A480
AFC0
A480
EEC0
2CC0
4480
0000
ENDCHAR
STARTCHAR 325e
ENCODING 22057
SWIDTH 960 0
DWIDTH 10 0
BBX 10 10 0 -2
BITMAP
0500
7FC0
6500
7FC0
6A80
7FC0
6A80
1FC0
0200
0000
ENDCHAR
STARTCHAR 5362
ENCODING 22063
SWIDTH 960 0
DWIDTH 10 0
BBX 10 10 0 -2
BITMAP
0100
7380
54C0
5380
5540
5540
77C0
0540
0940
0000
ENDCHAR
STARTCHAR 3e7c
ENCODING 22065
SWIDTH 960 0
DWIDTH 10 0
BBX 10 10 0 -2
BITMAP
1FC0
7040
5FC0
5540
57C0
7100
1FC0
2B40
4840
0000
ENDCHAR
STARTCHAR 535e
ENCODING 22066
SWIDTH 960 0
DWIDTH 10 0
BBX 10 10 0 -2
BITMAP
05C0
7F40
55C0
5F40
5B40
5FC0
7540
0F40
0540
0000
ENDCHAR
STARTCHAR 535c
ENCODING 22068
SWIDTH 960 0
DWIDTH 10 0
BBX 10 10 0 -2
BITMAP
0540
7F80
5DC0
5300
5D00
57C0
7540
07C0
0840
0000
ENDCHAR
STARTCHAR 535d
ENCODING 22070
SWIDTH 960 0
DWIDTH 10 0
BBX 10 10 0 -2
BITMAP
0A40
FF80
AB00
AFC0
AB40
AB40
BF40
EA40
1140
0000
ENDCHAR
STARTCHAR 535f
ENCODING 22072
SWIDTH 960 0
DWIDTH 10 0
BBX 10 10 0 -2
BITMAP
0800
EFC0
BA80
AFC0
AA80
AA80
FFC0
0000
1540
0000
ENDCHAR
STARTCHAR 313d
ENCODING 22082
SWIDTH 960 0
DWIDTH 10 0
BBX 10 10 0 -2
BITMAP
0480
7FC0
5780
5480
5780
5100
7FC0
0500
0300
0000
ENDCHAR
STARTCHAR 4139
ENCODING 22092
SWIDTH 960 0
DWIDTH 10 0
BBX 10 10 0 -2
BITMAP
0280
77C0
5540
57C0
5540
57C0
7280
0280
0380
0000
ENDCHAR
STARTCHAR 5359
ENCODING 22094
SWIDTH 960 0
DWIDTH 10 0
BBX 10 10 0 -2
BITMAP
0100
77C0
5100
57C0
5440
5380
7380
0100
07C0
0000
ENDCHAR
STARTCHAR 535a
ENCODING 22096
SWIDTH 960 0
DWIDTH 10 0
BBX 10 10 0 -2
BITMAP
3B80
3B80
0000
3F80
0400
7FC0
0000
3B80
3B80
0000
ENDCHAR
STARTCHAR 337a
ENCODING 22107
SWIDTH 960 0
DWIDTH 10 0
BBX 10 10 0 -2
BITMAP
01C0
0500
77C0
5000
57C0
5540
56C0
7540
07C0
0000
ENDCHAR
STARTCHAR 5361
ENCODING 22116
SWIDTH 960 0
DWIDTH 10 0
BBX 10 10 0 -2
BITMAP
0280
77C0
5280
5540
5380
5000
77C0
0100
0540
0000
ENDCHAR
STARTCHAR 346f
ENCODING 22120
SWIDTH 960 0
DWIDTH 10 0
BBX 10 10 0 -2
BITMAP
3B80
2A80
3B80
0400
7FC0
2080
7BC0
2A80
3B80
0000
ENDCHAR
STARTCHAR 5364
ENCODING 22122
SWIDTH 960 0
DWIDTH 10 0
BBX 10 10 0 -2
BITMAP
0380
7280
57C0
5540
57C0
5100
77C0
0380
0540
0000
ENDCHAR
STARTCHAR 5360
ENCODING 22123
SWIDTH 960 0
DWIDTH 10 0
BBX 10 10 0 -2
BITMAP
0100
77C0
5280
57C0
5280
5380
7000
0A40
0B40
0000
ENDCHAR
STARTCHAR 5363
ENCODING 22124
SWIDTH 960 0
DWIDTH 10 0
BBX 10 10 0 -2
BITMAP
0500
E7C0
AA80
A000
AFC0
A680
AB40
E200
0FC0
0000
ENDCHAR
STARTCHAR 4a2e
ENCODING 22132
SWIDTH 960 0
DWIDTH 10 0
BBX 10 10 0 -2
BITMAP
0200
FFC0
AA80
BFC0
A880
AF80
E880
0F80
1040
0000
ENDCHAR
STARTCHAR 4655
ENCODING 22136
SWIDTH 960 0
DWIDTH 10 0
BBX 10 10 0 -2
BITMAP
05C0
0E80
75C0
5B40
5BC0
5F40
55C0
7400
0740
0000
ENDCHAR
STARTCHAR 4838
ENCODING 22138
SWIDTH 960 0
DWIDTH 10 0
BBX 10 10 0 -2
BITMAP
05C0
7F00
5BC0
5F40
5540
5F40
7540
0F40
0440
0000
ENDCHAR
STARTCHAR 5366
ENCODING 22144
SWIDTH 960 0
DWIDTH 10 0
BBX 10 10 0 -2
BITMAP
0200
FFC0
B540
AA80
A000
AF80
EA80
1FC0
0200
0600
ENDCHAR
STARTCHAR 5365
ENCODING 22150
SWIDTH 960 0
DWIDTH 10 0
BBX 10 10 0 -2
BITMAP
0280
77C0
5100
57C0
5380
5000
77C0
0540
04C0
0000
ENDCHAR
STARTCHAR 3345
ENCODING 22151
SWIDTH 960 0
DWIDTH 10 0
BBX 10 10 0 -2
BITMAP
0480
7FC0
6480
7FC0
6D80
7B40
6D80
6D80
1680
0000
ENDCHAR
STARTCHAR 5367
ENCODING 22154
SWIDTH 960 0
DWIDTH 10 0
BBX 10 10 0 -2
BITMAP
0100
7380
5280
57C0
5540
57C0
7000
0FC0
0280
0000
ENDCHAR
STARTCHAR 536a
ENCODING 22159
SWIDTH 960 0
DWIDTH 10 0
BBX 10 10 0 -2
BITMAP
0780
E200
AFC0
A300
A7C0
A240
AB80
EE00
0BC0
0000
ENDCHAR
STARTCHAR 5369
ENCODING 22164
SWIDTH 960 0
DWIDTH 10 0
BBX 10 10 0 -2
BITMAP
0780
E200
AFC0
AB40
A780
A200
AB80
EE00
0BC0
0000
ENDCHAR
STARTCHAR 5368
ENCODING 22176
SWIDTH 960 0
DWIDTH 10 0
BBX 10 10 0 -2
BITMAP
0640
EA40
A540
AF40
A540
AD40
EB40
0440
0EC0
0000
ENDCHAR
STARTCHAR 4739
ENCODING 22178
SWIDTH 960 0
DWIDTH 10 0
BBX 10 10 0 -2
BITMAP
0400
7FC0
1100
7FC0
4A40
3580
7FC0
3300
5DC0
0000
ENDCHAR
STARTCHAR 536b
ENCODING 22181
SWIDTH 960 0
DWIDTH 10 0
BBX 10 10 0 -2
BITMAP
0280
77C0
5280
5380
57C0
5280
77C0
0000
0540
0000
ENDCHAR
STARTCHAR 536c
ENCODING 22190
SWIDTH 960 0
DWIDTH 10 0
BBX 10 10 0 -2
BITMAP
2EC0
4480
6EC0
28C0
4E80
0400
7FC0
4A40
4EC0
0000
ENDCHAR
STARTCHAR 536e
ENCODING 22196
SWIDTH 960 0
DWIDTH 10 0
BBX 10 10 0 -2
BITMAP
3B80
2A80
7FC0
5C00
4900
7DC0
5540
7C80
4540
0000
ENDCHAR
STARTCHAR 536d
ENCODING 22198
SWIDTH 960 0
DWIDTH 10 0
BBX 10 10 0 -2
BITMAP
06C0
76C0
5000
5540
5000
5100
77C0
0280
0740
0000
ENDCHAR
STARTCHAR 5370
ENCODING 22204
SWIDTH 960 0
DWIDTH 10 0
BBX 10 10 0 -2
BITMAP
0F80
E500
AF80
AA80
AF80
A080
EDC0
0880
0C80
0000
ENDCHAR
STARTCHAR 5373
ENCODING 22208
SWIDTH 960 0
DWIDTH 10 0
BBX 10 10 0 -2
BITMAP
0900
1FC0
EA80
BF80
B500
BFC0
E880
1D80
0880
0000
ENDCHAR
STARTCHAR 5371
ENCODING 22209
SWIDTH 960 0
DWIDTH 10 0
BBX 10 10 0 -2
BITMAP
0F80
E500
A500
AF80
A100
BFC0
EA80
1FC0
0280
0000
ENDCHAR
STARTCHAR 536f
ENCODING 22210
SWIDTH 960 0
DWIDTH 10 0
BBX 10 10 0 -2
BITMAP
3B80
2A80
7FC0
1100
1F00
2080
7BC0
4A40
7BC0
0000
ENDCHAR
STARTCHAR 5372
ENCODING 22211
SWIDTH 960 0
DWIDTH 10 0
BBX 10 10 0 -2
BITMAP
0940
FE80
B7C0
AE80
ABC0
BE80
EBC0
3E80
0BC0
0000
ENDCHAR
STARTCHAR 5374
ENCODING 22216
SWIDTH 960 0
DWIDTH 10 0
BBX 10 10 0 -2
BITMAP
0500
EFC0
A480
AAC0
A740
A000
EFC0
0480
0FC0
0000
ENDCHAR
STARTCHAR 5375
ENCODING 22222
SWIDTH 960 0
DWIDTH 10 0
BBX 10 10 0 -2
BITMAP
3A80
EC40
BB80
AA80
BB80
A800
FB80
0280
2B80
0000
ENDCHAR
STARTCHAR 5376
ENCODING 22225
SWIDTH 960 0
DWIDTH 10 0
BBX 10 10 0 -2
BITMAP
0FC0
E840
AFC0
AA80
AFC0
AA00
EFC0
1240
1740
0000
ENDCHAR
STARTCHAR 5377
ENCODING 22227
SWIDTH 960 0
DWIDTH 10 0
BBX 10 10 0 -2
BITMAP
1DC0
E8C0
BD40
A380
AA00
BFC0
FAC0
1540
1FC0
0000
ENDCHAR
STARTCHAR 5378
ENCODING 22231
SWIDTH 960 0
DWIDTH 10 0
BBX 10 10 0 -2
BITMAP
7FC0
4040
4040
4040
4040
4040
4040
4040
7FC0
0000
ENDCHAR
STARTCHAR 5145
ENCODING 22232
SWIDTH 960 0
DWIDTH 10 0
BBX 10 10 0 -2
BITMAP
7FC0
4040
5F40
5140
5F40
5040
5140
5F40
40C0
0000
ENDCHAR
STARTCHAR 3c7c
ENCODING 22234
SWIDTH 960 0
DWIDTH 10 0
BBX 10 10 0 -2
BITMAP
7FC0
4040
4440
4440
4440
4A40
5140
4040
7FC0
0000
ENDCHAR
STARTCHAR 3b4d
ENCODING 22235
SWIDTH 960 0
DWIDTH 10 0
BBX 10 10 0 -2
BITMAP
0000
7FC0
4A40
4A40
5240
63C0
4040
4040
7FC0
0000
ENDCHAR
STARTCHAR 3273
ENCODING 22238
SWIDTH 960 0
DWIDTH 10 0
BBX 10 10 0 -2
BITMAP
7FC0
4040
5F40
5140
5140
5140
5F40
4040
7FC0
0000
ENDCHAR
STARTCHAR 3078
ENCODING 22240
SWIDTH 960 0
DWIDTH 10 0
BBX 10 10 0 -2
BITMAP
7FC0
4040
4440
5F40
4440
4A40
5140
4040
7FC0
0000
ENDCHAR
STARTCHAR 4344
ENCODING 22243
SWIDTH 960 0
DWIDTH 10 0
BBX 10 10 0 -2
BITMAP
7FC0
4040
4240
5F40
4240
4A40
4240
4040
7FC0
0000
ENDCHAR
STARTCHAR 5379
ENCODING 22254
SWIDTH 960 0
DWIDTH 10 0
BBX 10 10 0 -2
BITMAP
7FC0
4040
4A40
5340
7240
5240
5340
4040
7FC0
0000
ENDCHAR
STARTCHAR 3a24
ENCODING 22256
SWIDTH 960 0
DWIDTH 10 0
BBX 10 10 0 -2
BITMAP
7FC0
4040
4440
5F40
4440
4E40
5540
4040
7FC0
0000
ENDCHAR
STARTCHAR 304f
ENCODING 22258
SWIDTH 960 0
DWIDTH 10 0
BBX 10 10 0 -2
BITMAP
7FC0
4040
4A40
5F40
4A40
5F40
4A40
5240
7FC0
0000
ENDCHAR
STARTCHAR 3f5e
ENCODING 22259
SWIDTH 960 0
DWIDTH 10 0
BBX 10 10 0 -2
BITMAP
7FC0
4040
5540
4140
4A40
4440
5A40
4040
7FC0
0000
ENDCHAR
STARTCHAR 537a
ENCODING 22265
SWIDTH 960 0
DWIDTH 10 0
BBX 10 10 0 -2
BITMAP
7FC0
4440
4A40
5F40
60C0
5F40
4540
4440
7FC0
0000
ENDCHAR
STARTCHAR 3847
ENCODING 22266
SWIDTH 960 0
DWIDTH 10 0
BBX 10 10 0 -2
BITMAP
7FC0
4440
5F40
4440
5F40
5140
5F40
4040
7FC0
0000
ENDCHAR
STARTCHAR 3971
ENCODING 22269
SWIDTH 960 0
DWIDTH 10 0
BBX 10 10 0 -2
BITMAP
7FC0
4040
5F40
4440
5E40
4540
5F40
4040
7FC0
0000
ENDCHAR
STARTCHAR 537c
ENCODING 22271
SWIDTH 960 0
DWIDTH 10 0
BBX 10 10 0 -2
BITMAP
7FC0
4440
7FC0
4840
5F40
6940
4F40
4940
7FC0
0000
ENDCHAR
STARTCHAR 537b
ENCODING 22272
SWIDTH 960 0
DWIDTH 10 0
BBX 10 10 0 -2
BITMAP
7FC0
4A40
5340
4440
5F40
4840
4F40
5140
7FC0
0000
ENDCHAR
STARTCHAR 4a60
ENCODING 22275
SWIDTH 960 0
DWIDTH 10 0
BBX 10 10 0 -2
BITMAP
7FC0
4540
5F40
4440
5F40
5540
5F40
5540
7FC0
0000
ENDCHAR
STARTCHAR 537d
ENCODING 22276
SWIDTH 960 0
DWIDTH 10 0
BBX 10 10 0 -2
BITMAP
7FC0
5F40
4840
5E40
4A40
7FC0
5140
5F40
7FC0
0000
ENDCHAR
STARTCHAR 5421
ENCODING 22280
SWIDTH 960 0
DWIDTH 10 0
BBX 10 10 0 -2
BITMAP
7FC0
5540
6EC0
4440
7FC0
5F40
68C0
4F40
7FC0
0000
ENDCHAR
STARTCHAR 537e
ENCODING 22281
SWIDTH 960 0
DWIDTH 10 0
BBX 10 10 0 -2
BITMAP
7FC0
4440
5F40
7FC0
4A40
7FC0
5F40
4440
7FC0
0000
ENDCHAR
STARTCHAR 5422
ENCODING 22283
SWIDTH 960 0
DWIDTH 10 0
BBX 10 10 0 -2
BITMAP
7FC0
4540
7FC0
4440
5A40
5AC0
4140
5AC0
7FC0
0000
ENDCHAR
STARTCHAR 5423
ENCODING 22285
SWIDTH 960 0
DWIDTH 10 0
BBX 10 10 0 -2
BITMAP
7FC0
4440
4F40
4540
5FC0
4A40
5FC0
4240
7FC0
0000
ENDCHAR
STARTCHAR 3777
ENCODING 22287
SWIDTH 960 0
DWIDTH 10 0
BBX 10 10 0 -2
BITMAP
7FC0
5540
4A40
7FC0
5140
7EC0
4A40
5240
7FC0
0000
ENDCHAR
STARTCHAR 3160
ENCODING 22290
SWIDTH 960 0
DWIDTH 10 0
BBX 10 10 0 -2
BITMAP
7FC0
4440
5F40
7FC0
5140
5F40
4E40
5540
7FC0
0000
ENDCHAR
STARTCHAR 5424
ENCODING 22291
SWIDTH 960 0
DWIDTH 10 0
BBX 10 10 0 -2
BITMAP
7FC0
5140
5F40
4A40
4E40
4A40
4E40
5140
7FC0
0000
ENDCHAR
STARTCHAR 5426
ENCODING 22294
SWIDTH 960 0
DWIDTH 10 0
BBX 10 10 0 -2
BITMAP
7FC0
5140
5F40
4440
7FC0
5540
5140
5F40
7FC0
0000
ENDCHAR
STARTCHAR 5425
ENCODING 22296
SWIDTH 960 0
DWIDTH 10 0
BBX 10 10 0 -2
BITMAP
7FC0
4440
5F40
4A40
5F40
4240
5F40
4240
7FC0
0000
ENDCHAR
STARTCHAR 5428
ENCODING 22300
SWIDTH 960 0
DWIDTH 10 0
BBX 10 10 0 -2
BITMAP
7FC0
5540
5F40
4040
7FC0
5540
5A40
6940
7FC0
0000
ENDCHAR
STARTCHAR 455a
ENCODING 22303
SWIDTH 960 0
DWIDTH 10 0
BBX 10 10 0 -2
BITMAP
0400
0400
0400
3F80
0400
0400
0400
0400
7FC0
0000
ENDCHAR
STARTCHAR 5429
ENCODING 22310
SWIDTH 960 0
DWIDTH 10 0
BBX 10 10 0 -2
BITMAP
2600
2200
7200
2200
2200
2500
3500
4880
1040
0000
ENDCHAR
STARTCHAR 3035
ENCODING 22311
SWIDTH 960 0
DWIDTH 10 0
BBX 10 10 0 -2
BITMAP
3FC0
2000
2200
2200
2F80
2200
2200
4200
5FC0
0000
ENDCHAR
STARTCHAR 3a5f
ENCODING 22312
SWIDTH 960 0
DWIDTH 10 0
BBX 10 10 0 -2
BITMAP
0800
0800
7FC0
1100
3100
37C0
5100
1100
17C0
0000
ENDCHAR
STARTCHAR 373d
ENCODING 22317
SWIDTH 960 0
DWIDTH 10 0
BBX 10 10 0 -2
BITMAP
0400
3F80
0400
7FC0
0000
0400
3F80
0400
7FC0
0000
ENDCHAR
STARTCHAR 434f
ENCODING 22320
SWIDTH 960 0
DWIDTH 10 0
BBX 10 10 0 -2
BITMAP
2100
2500
75C0
2740
2D40
25C0
3500
6440
07C0
0000
ENDCHAR
STARTCHAR 542a
ENCODING 22327
SWIDTH 960 0
DWIDTH 10 0
BBX 10 10 0 -2
BITMAP
2000
2FC0
7200
2300
2280
2200
3200
4200
0200
0000
ENDCHAR
STARTCHAR 542b
ENCODING 22328
SWIDTH 960 0
DWIDTH 10 0
BBX 10 10 0 -2
BITMAP
2100
2100
7540
2540
2540
2540
3540
4540
07C0
0000
ENDCHAR
STARTCHAR 542d
ENCODING 22331
SWIDTH 960 0
DWIDTH 10 0
BBX 10 10 0 -2
BITMAP
2180
2600
7400
27C0
2500
2500
3500
4500
0900
0000
ENDCHAR
STARTCHAR 542e
ENCODING 22336
SWIDTH 960 0
DWIDTH 10 0
BBX 10 10 0 -2
BITMAP
2100
2100
7500
25C0
2500
2500
3500
4500
0FC0
0000
ENDCHAR
STARTCHAR 3a64
ENCODING 22338
SWIDTH 960 0
DWIDTH 10 0
BBX 10 10 0 -2
BITMAP
27C0
2400
7400
27C0
2540
2540
3480
6980
0A40
0000
ENDCHAR
STARTCHAR 3651
ENCODING 22343
SWIDTH 960 0
DWIDTH 10 0
BBX 10 10 0 -2
BITMAP
2200
2200
77C0
2840
2340
2040
3140
6640
0180
0000
ENDCHAR
STARTCHAR 4b37
ENCODING 22346
SWIDTH 960 0
DWIDTH 10 0
BBX 10 10 0 -2
BITMAP
2100
2100
77C0
2200
23C0
2240
3240
4440
08C0
0000
ENDCHAR
STARTCHAR 542c
ENCODING 22350
SWIDTH 960 0
DWIDTH 10 0
BBX 10 10 0 -2
BITMAP
2200
23C0
7440
2140
2100
2100
3280
4280
0440
0000
ENDCHAR
STARTCHAR 542f
ENCODING 22351
SWIDTH 960 0
DWIDTH 10 0
BBX 10 10 0 -2
BITMAP
2000
27C0
7100
2100
2380
2540
3100
4100
0100
0000
ENDCHAR
STARTCHAR 3a41
ENCODING 22352
SWIDTH 960 0
DWIDTH 10 0
BBX 10 10 0 -2
BITMAP
0400
2480
2480
5540
5540
0400
3F80
0400
7FC0
0000
ENDCHAR
STARTCHAR 3923
ENCODING 22353
SWIDTH 960 0
DWIDTH 10 0
BBX 10 10 0 -2
BITMAP
2200
2FC0
7000
2700
2500
3500
2500
4940
11C0
0000
ENDCHAR
STARTCHAR 5433
ENCODING 22369
SWIDTH 960 0
DWIDTH 10 0
BBX 10 10 0 -2
BITMAP
4200
4FC0
EA80
4A00
4FC0
4A80
6A80
C900
16C0
0000
ENDCHAR
STARTCHAR 3a25
ENCODING 22372
SWIDTH 960 0
DWIDTH 10 0
BBX 10 10 0 -2
BITMAP
2100
27C0
7540
27C0
2540
27C0
3100
6100
0100
0000
ENDCHAR
STARTCHAR 4333
ENCODING 22374
SWIDTH 960 0
DWIDTH 10 0
BBX 10 10 0 -2
BITMAP
2780
2480
7480
2780
2480
2480
3780
6000
0FC0
0000
ENDCHAR
STARTCHAR 5430
ENCODING 22377
SWIDTH 960 0
DWIDTH 10 0
BBX 10 10 0 -2
BITMAP
2280
2280
77C0
2280
2280
2380
3280
4280
0380
0000
ENDCHAR
STARTCHAR 445a
ENCODING 22378
SWIDTH 960 0
DWIDTH 10 0
BBX 10 10 0 -2
BITMAP
2000
27C0
7100
2540
2100
27C0
3100
6100
0100
0000
ENDCHAR
STARTCHAR 5434
ENCODING 22399
SWIDTH 960 0
DWIDTH 10 0
BBX 10 10 0 -2
BITMAP
2280
2280
77C0
2C80
2680
2580
3480
4480
0580
0000
ENDCHAR
STARTCHAR 3f62
ENCODING 22402
SWIDTH 960 0
DWIDTH 10 0
BBX 10 10 0 -2
BITMAP
1F00
0400
3F80
1500
7FC0
1500
3F80
0400
3F80
0000
ENDCHAR
STARTCHAR 5432
ENCODING 22408
SWIDTH 960 0
DWIDTH 10 0
BBX 10 10 0 -2
BITMAP
1280
2200
6FC0
2100
20C0
0400
3F80
0400
7FC0
0000
ENDCHAR
STARTCHAR 5435
ENCODING 22409
SWIDTH 960 0
DWIDTH 10 0
BBX 10 10 0 -2
BITMAP
2400
27C0
6840
2740
2540
2740
3480
4440
07C0
0000
ENDCHAR
STARTCHAR 373f
ENCODING 22411
SWIDTH 960 0
DWIDTH 10 0
BBX 10 10 0 -2
BITMAP
7D40
2940
7D40
2840
28C0
0400
3F80
0400
7FC0
0000
ENDCHAR
STARTCHAR 5436
ENCODING 22419
SWIDTH 960 0
DWIDTH 10 0
BBX 10 10 0 -2
BITMAP
2200
2FC0
7200
2480
2300
2480
3100
4280
0C40
0000
ENDCHAR
STARTCHAR 5437
ENCODING 22432
SWIDTH 960 0
DWIDTH 10 0
BBX 10 10 0 -2
BITMAP
2780
2480
7780
2480
2780
2400
3680
4500
0EC0
0000
ENDCHAR
STARTCHAR 3924
ENCODING 22434
SWIDTH 960 0
DWIDTH 10 0
BBX 10 10 0 -2
BITMAP
2180
2600
7400
27C0
2400
35C0
2540
4940
09C0
0000
ENDCHAR
STARTCHAR 3340
ENCODING 22435
SWIDTH 960 0
DWIDTH 10 0
BBX 10 10 0 -2
BITMAP
2FC0
2000
7780
2480
2780
2480
3780
6000
0FC0
0000
ENDCHAR
STARTCHAR 5439
ENCODING 22436
SWIDTH 960 0
DWIDTH 10 0
BBX 10 10 0 -2
BITMAP
27C0
2100
7240
27C0
2100
2380
3100
4100
07C0
0000
ENDCHAR
STARTCHAR 543a
ENCODING 22442
SWIDTH 960 0
DWIDTH 10 0
BBX 10 10 0 -2
BITMAP
2440
2280
77C0
2280
2280
27C0
3280
4280
0480
0000
ENDCHAR
STARTCHAR 543b
ENCODING 22448
SWIDTH 960 0
DWIDTH 10 0
BBX 10 10 0 -2
BITMAP
2200
2380
7200
2FC0
2000
2FC0
3300
4280
0200
0000
ENDCHAR
STARTCHAR 5438
ENCODING 22451
SWIDTH 960 0
DWIDTH 10 0
BBX 10 10 0 -2
BITMAP
2400
29C0
7400
2DC0
2480
2480
3480
4480
0580
0000
ENDCHAR
STARTCHAR 5431
ENCODING 22464
SWIDTH 960 0
DWIDTH 10 0
BBX 10 10 0 -2
BITMAP
1F00
0400
7FC0
1500
74C0
0400
3F80
0400
7FC0
0000
ENDCHAR
STARTCHAR 543c
ENCODING 22467
SWIDTH 960 0
DWIDTH 10 0
BBX 10 10 0 -2
BITMAP
2100
2240
77C0
2200
2380
2100
37C0
4280
0440
0000
ENDCHAR
STARTCHAR 543d
ENCODING 22470
SWIDTH 960 0
DWIDTH 10 0
BBX 10 10 0 -2
BITMAP
2300
2500
6FC0
2540
27C0
2540
37C0
4440
08C0
0000
ENDCHAR
STARTCHAR 4b64
ENCODING 22475
SWIDTH 960 0
DWIDTH 10 0
BBX 10 10 0 -2
BITMAP
27C0
2540
77C0
2540
27C0
2100
37C0
6100
07C0
0000
ENDCHAR
STARTCHAR 3e6b
ENCODING 22478
SWIDTH 960 0
DWIDTH 10 0
BBX 10 10 0 -2
BITMAP
2140
2100
6FC0
2900
2940
2F40
6A80
0A80
1740
0000
ENDCHAR
STARTCHAR 543f
ENCODING 22482
SWIDTH 960 0
DWIDTH 10 0
BBX 10 10 0 -2
BITMAP
2180
2740
7540
2080
27C0
2080
3280
4080
0180
0000
ENDCHAR
STARTCHAR 5440
ENCODING 22483
SWIDTH 960 0
DWIDTH 10 0
BBX 10 10 0 -2
BITMAP
2180
2700
72C0
2700
2080
27C0
3080
4280
0180
0000
ENDCHAR
STARTCHAR 543e
ENCODING 22484
SWIDTH 960 0
DWIDTH 10 0
BBX 10 10 0 -2
BITMAP
2140
27C0
7100
27C0
2540
27C0
3540
47C0
0540
0000
ENDCHAR
STARTCHAR 5442
ENCODING 22486
SWIDTH 960 0
DWIDTH 10 0
BBX 10 10 0 -2
BITMAP
2480
2FC0
7480
2300
2540
2D80
2500
6540
05C0
0000
ENDCHAR
STARTCHAR 4738
ENCODING 22492
SWIDTH 960 0
DWIDTH 10 0
BBX 10 10 0 -2
BITMAP
2100
7BC0
3180
6B40
2100
0400
3F80
0400
7FC0
0000
ENDCHAR
STARTCHAR 3068
ENCODING 22495
SWIDTH 960 0
DWIDTH 10 0
BBX 10 10 0 -2
BITMAP
2140
2100
7FC0
2100
2D40
2D40
3080
6D80
0240
0000
ENDCHAR
STARTCHAR 4956
ENCODING 22496
SWIDTH 960 0
DWIDTH 10 0
BBX 10 10 0 -2
BITMAP
2200
27C0
7440
2780
2440
27C0
3100
67C0
0100
0000
ENDCHAR
STARTCHAR 5443
ENCODING 22499
SWIDTH 960 0
DWIDTH 10 0
BBX 10 10 0 -2
BITMAP
2100
27C0
7280
2280
2540
2100
37C0
4100
0100
0000
ENDCHAR
STARTCHAR 3e7d
ENCODING 22516
SWIDTH 960 0
DWIDTH 10 0
BBX 10 10 0 -2
BITMAP
2100
27C0
7100
2B80
2A80
2A80
2B80
6800
0FC0
0000
ENDCHAR
STARTCHAR 3c39
ENCODING 22519
SWIDTH 960 0
DWIDTH 10 0
BBX 10 10 0 -2
BITMAP
2200
7A00
2780
FA80
5680
FB80
2280
7A80
24C0
0000
ENDCHAR
STARTCHAR 475d
ENCODING 22521
SWIDTH 960 0
DWIDTH 10 0
BBX 10 10 0 -2
BITMAP
2100
27C0
7280
2FC0
2000
37C0
6440
0440
07C0
0000
ENDCHAR
STARTCHAR 3470
ENCODING 22522
SWIDTH 960 0
DWIDTH 10 0
BBX 10 10 0 -2
BITMAP
1100
7FC0
1F00
1100
7FC0
1500
2E80
4440
3F80
0000
ENDCHAR
STARTCHAR 3a6b
ENCODING 22524
SWIDTH 960 0
DWIDTH 10 0
BBX 10 10 0 -2
BITMAP
2200
2FC0
7500
2880
2FC0
2080
3680
6680
0180
0000
ENDCHAR
STARTCHAR 4b59
ENCODING 22528
SWIDTH 960 0
DWIDTH 10 0
BBX 10 10 0 -2
BITMAP
2FC0
2840
6FC0
2900
2D40
2FC0
6900
1540
17C0
0000
ENDCHAR
STARTCHAR 4632
ENCODING 22530
SWIDTH 960 0
DWIDTH 10 0
BBX 10 10 0 -2
BITMAP
2480
1500
7FC0
5140
1F00
0400
1F00
0400
7FC0
0000
ENDCHAR
STARTCHAR 3778
ENCODING 22533
SWIDTH 960 0
DWIDTH 10 0
BBX 10 10 0 -2
BITMAP
7BC0
5240
7940
5180
7A40
0400
3F80
0400
7FC0
0000
ENDCHAR
STARTCHAR 424f
ENCODING 22534
SWIDTH 960 0
DWIDTH 10 0
BBX 10 10 0 -2
BITMAP
2280
2500
7FC0
2500
27C0
2500
37C0
4500
07C0
0000
ENDCHAR
STARTCHAR 5441
ENCODING 22538
SWIDTH 960 0
DWIDTH 10 0
BBX 10 10 0 -2
BITMAP
7FC0
0A00
3180
0A00
7FC0
0400
3F80
0400
7FC0
0000
ENDCHAR
STARTCHAR 5444
ENCODING 22539
SWIDTH 960 0
DWIDTH 10 0
BBX 10 10 0 -2
BITMAP
27C0
2540
77C0
2540
2540
27C0
3540
4540
0940
0000
ENDCHAR
STARTCHAR 4244
ENCODING 22549
SWIDTH 960 0
DWIDTH 10 0
BBX 10 10 0 -2
BITMAP
7200
6FC0
5680
6B80
4280
0400
3F80
0400
7FC0
0000
ENDCHAR
STARTCHAR 5445
ENCODING 22553
SWIDTH 960 0
DWIDTH 10 0
BBX 10 10 0 -2
BITMAP
27C0
2280
77C0
2540
27C0
2100
3380
4100
07C0
0000
ENDCHAR
STARTCHAR 5446
ENCODING 22557
SWIDTH 960 0
DWIDTH 10 0
BBX 10 10 0 -2
BITMAP
2780
2480
7580
2FC0
2840
2F40
3D40
4F40
08C0
0000
ENDCHAR
STARTCHAR 5448
ENCODING 22561
SWIDTH 960 0
DWIDTH 10 0
BBX 10 10 0 -2
BITMAP
1780
2480
6FC0
2580
2940
0400
1F00
0400
7FC0
0000
ENDCHAR
STARTCHAR 4469
ENCODING 22564
SWIDTH 960 0
DWIDTH 10 0
BBX 10 10 0 -2
BITMAP
27C0
2440
77C0
2000
2FC0
2100
35C0
6500
0BC0
0000
ENDCHAR
STARTCHAR 342e
ENCODING 22570
SWIDTH 960 0
DWIDTH 10 0
BBX 10 10 0 -2
BITMAP
2480
2FC0
7480
2780
2480
2FC0
3680
6400
07C0
0000
ENDCHAR
STARTCHAR 7421
ENCODING 22575
SWIDTH 960 0
DWIDTH 10 0
BBX 10 10 0 -2
BITMAP
0400
3F80
7FC0
1100
7BC0
1100
7FC0
1200
63C0
0000
ENDCHAR
STARTCHAR 3161
ENCODING 22576
SWIDTH 960 0
DWIDTH 10 0
BBX 10 10 0 -2
BITMAP
2FC0
2A80
7B80
2900
2FC0
2A80
3980
6A40
0FC0
0000
ENDCHAR
STARTCHAR 4a73
ENCODING 22577
SWIDTH 960 0
DWIDTH 10 0
BBX 10 10 0 -2
BITMAP
13C0
3A40
1200
7FC0
2B40
7F40
1280
3A80
1340
0000
ENDCHAR
STARTCHAR 3e6c
ENCODING 22580
SWIDTH 960 0
DWIDTH 10 0
BBX 10 10 0 -2
BITMAP
2780
2480
7780
2480
2FC0
2400
37C0
6940
02C0
0000
ENDCHAR
STARTCHAR 4548
ENCODING 22581
SWIDTH 960 0
DWIDTH 10 0
BBX 10 10 0 -2
BITMAP
2240
2780
7280
2FC0
2200
23C0
3640
6A40
03C0
0000
ENDCHAR
STARTCHAR 3a66
ENCODING 22586
SWIDTH 960 0
DWIDTH 10 0
BBX 10 10 0 -2
BITMAP
2F80
2A80
7F80
2A80
2F80
2500
6D80
1540
0900
0000
ENDCHAR
STARTCHAR 544e
ENCODING 22589
SWIDTH 960 0
DWIDTH 10 0
BBX 10 10 0 -2
BITMAP
27C0
2540
77C0
2000
27C0
2100
35C0
4500
0FC0
0000
ENDCHAR
STARTCHAR 4a3d
ENCODING 22592
SWIDTH 960 0
DWIDTH 10 0
BBX 10 10 0 -2
BITMAP
2FC0
2840
7FC0
2A80
2FC0
2A80
3FC0
4A80
1480
0000
ENDCHAR
STARTCHAR 4e5d
ENCODING 22593
SWIDTH 960 0
DWIDTH 10 0
BBX 10 10 0 -2
BITMAP
1F00
1500
1F00
5540
1F00
2480
5F40
0400
7FC0
0000
ENDCHAR
STARTCHAR 3274
ENCODING 22602
SWIDTH 960 0
DWIDTH 10 0
BBX 10 10 0 -2
BITMAP
2400
2F80
7A80
2F80
2A80
2F80
3280
6640
0BC0
0000
ENDCHAR
STARTCHAR 544a
ENCODING 22603
SWIDTH 960 0
DWIDTH 10 0
BBX 10 10 0 -2
BITMAP
5540
1100
2A80
7FC0
4040
0400
3F80
0400
7FC0
0000
ENDCHAR
STARTCHAR 413a
ENCODING 22609
SWIDTH 960 0
DWIDTH 10 0
BBX 10 10 0 -2
BITMAP
29C0
7D40
55C0
7D40
11C0
6540
1F00
0400
7FC0
0000
ENDCHAR
STARTCHAR 544d
ENCODING 22610
SWIDTH 960 0
DWIDTH 10 0
BBX 10 10 0 -2
BITMAP
4100
5F80
F500
57C0
5C80
57C0
7480
DE80
0180
0000
ENDCHAR
STARTCHAR 4563
ENCODING 22612
SWIDTH 960 0
DWIDTH 10 0
BBX 10 10 0 -2
BITMAP
2480
2FC0
7300
2480
2B40
2000
3780
6480
0780
0000
ENDCHAR
STARTCHAR 4549
ENCODING 22615
SWIDTH 960 0
DWIDTH 10 0
BBX 10 10 0 -2
BITMAP
6300
0480
4B40
2100
4B40
0400
3F80
0400
7FC0
0000
ENDCHAR
STARTCHAR 4564
ENCODING 22616
SWIDTH 960 0
DWIDTH 10 0
BBX 10 10 0 -2
BITMAP
2100
2FC0
7900
2BC0
2FC0
3940
6BC0
0A40
13C0
0000
ENDCHAR
STARTCHAR 4839
ENCODING 22617
SWIDTH 960 0
DWIDTH 10 0
BBX 10 10 0 -2
BITMAP
2200
2FC0
7780
2000
2FC0
2840
3B40
6B40
08C0
0000
ENDCHAR
STARTCHAR 444d
ENCODING 22618
SWIDTH 960 0
DWIDTH 10 0
BBX 10 10 0 -2
BITMAP
2FC0
2840
7780
2240
2D80
2300
2D80
6140
0600
0000
ENDCHAR
STARTCHAR 3a49
ENCODING 22622
SWIDTH 960 0
DWIDTH 10 0
BBX 10 10 0 -2
BITMAP
0400
7FC0
4A40
1F00
0A00
7FC0
2E80
4440
1F00
0000
ENDCHAR
STARTCHAR 5449
ENCODING 22626
SWIDTH 960 0
DWIDTH 10 0
BBX 10 10 0 -2
BITMAP
2200
2780
7480
27C0
2400
27C0
3040
4540
00C0
0000
ENDCHAR
STARTCHAR 3176
ENCODING 22633
SWIDTH 960 0
DWIDTH 10 0
BBX 10 10 0 -2
BITMAP
2400
2F80
7000
2700
2700
3000
6F80
0A80
1FC0
0000
ENDCHAR
STARTCHAR 4536
ENCODING 22635
SWIDTH 960 0
DWIDTH 10 0
BBX 10 10 0 -2
BITMAP
2100
27C0
7100
2380
2280
2280
37C0
6280
0440
0000
ENDCHAR
STARTCHAR 544b
ENCODING 22640
SWIDTH 960 0
DWIDTH 10 0
BBX 10 10 0 -2
BITMAP
4800
1FC0
4A80
2FC0
4080
0400
3F80
0400
7FC0
0000
ENDCHAR
STARTCHAR 5447
ENCODING 22642
SWIDTH 960 0
DWIDTH 10 0
BBX 10 10 0 -2
BITMAP
2400
27C0
6A80
2280
27C0
2200
37C0
4AC0
0540
0000
ENDCHAR
STARTCHAR 3f50
ENCODING 22645
SWIDTH 960 0
DWIDTH 10 0
BBX 10 10 0 -2
BITMAP
0200
3FC0
2A80
3F80
2D40
2980
2DC0
2200
5FC0
0000
ENDCHAR
STARTCHAR 544f
ENCODING 22649
SWIDTH 960 0
DWIDTH 10 0
BBX 10 10 0 -2
BITMAP
1080
7B00
3BC0
7A80
1280
0400
3F80
0400
7FC0
0000
ENDCHAR
STARTCHAR 3d4e
ENCODING 22654
SWIDTH 960 0
DWIDTH 10 0
BBX 10 10 0 -2
BITMAP
1200
7B80
2E80
5380
34C0
0400
3F80
0400
7FC0
0000
ENDCHAR
STARTCHAR 362d
ENCODING 22659
SWIDTH 960 0
DWIDTH 10 0
BBX 10 10 0 -2
BITMAP
2200
2FC0
7500
2FC0
2480
2480
3780
4500
09C0
0000
ENDCHAR
STARTCHAR 5450
ENCODING 22661
SWIDTH 960 0
DWIDTH 10 0
BBX 10 10 0 -2
BITMAP
7BC0
5880
7BC0
1140
7B00
0400
3F80
0400
7FC0
0000
ENDCHAR
STARTCHAR 4a68
ENCODING 22675
SWIDTH 960 0
DWIDTH 10 0
BBX 10 10 0 -2
BITMAP
0A00
7FC0
1F00
1100
7FC0
1500
2E80
4440
1F00
0000
ENDCHAR
STARTCHAR 417d
ENCODING 22679
SWIDTH 960 0
DWIDTH 10 0
BBX 10 10 0 -2
BITMAP
2280
27C0
7540
27C0
2540
27C0
3280
6280
0380
0000
ENDCHAR
STARTCHAR 4446
ENCODING 22684
SWIDTH 960 0
DWIDTH 10 0
BBX 10 10 0 -2
BITMAP
7280
57C0
6340
5580
6740
4400
1F00
0400
7FC0
0000
ENDCHAR
STARTCHAR 5452
ENCODING 22687
SWIDTH 960 0
DWIDTH 10 0
BBX 10 10 0 -2
BITMAP
2180
2100
77C0
2500
27C0
3500
44C0
0580
0BC0
0000
ENDCHAR
STARTCHAR 4b4f
ENCODING 22696
SWIDTH 960 0
DWIDTH 10 0
BBX 10 10 0 -2
BITMAP
3F80
2480
3F80
0400
7FC0
5540
3F80
0400
7FC0
0000
ENDCHAR
STARTCHAR 5453
ENCODING 22699
SWIDTH 960 0
DWIDTH 10 0
BBX 10 10 0 -2
BITMAP
4880
5740
ED80
4880
4F80
4100
6FC0
8100
0500
0000
ENDCHAR
STARTCHAR 5458
ENCODING 22702
SWIDTH 960 0
DWIDTH 10 0
BBX 10 10 0 -2
BITMAP
7200
6FC0
5680
6B80
4280
0400
1F80
0400
7FC0
0000
ENDCHAR
STARTCHAR 4a2f
ENCODING 22707
SWIDTH 960 0
DWIDTH 10 0
BBX 10 10 0 -2
BITMAP
0200
5FC0
4A80
FFC0
4880
4F80
6880
CF80
1040
0000
ENDCHAR
STARTCHAR 5457
ENCODING 22712
SWIDTH 960 0
DWIDTH 10 0
BBX 10 10 0 -2
BITMAP
2480
2FC0
7280
2780
2300
2FC0
3680
4A80
0380
0000
ENDCHAR
STARTCHAR 5451
ENCODING 22713
SWIDTH 960 0
DWIDTH 10 0
BBX 10 10 0 -2
BITMAP
5DC0
5540
FDC0
5040
5740
5540
7740
9540
1740
0000
ENDCHAR
STARTCHAR 5454
ENCODING 22714
SWIDTH 960 0
DWIDTH 10 0
BBX 10 10 0 -2
BITMAP
2200
27C0
75C0
2540
27C0
2540
2FC0
6280
0440
0000
ENDCHAR
STARTCHAR 5456
ENCODING 22715
SWIDTH 960 0
DWIDTH 10 0
BBX 10 10 0 -2
BITMAP
2100
27C0
7280
2540
27C0
2000
37C0
4540
07C0
0000
ENDCHAR
STARTCHAR 3a26
ENCODING 22718
SWIDTH 960 0
DWIDTH 10 0
BBX 10 10 0 -2
BITMAP
3380
6A80
3340
5280
2340
0400
3F80
0400
7FC0
0000
ENDCHAR
STARTCHAR 4a49
ENCODING 22721
SWIDTH 960 0
DWIDTH 10 0
BBX 10 10 0 -2
BITMAP
3900
27C0
3A80
6FC0
3900
0400
1F00
0400
7FC0
0000
ENDCHAR
STARTCHAR 5459
ENCODING 22725
SWIDTH 960 0
DWIDTH 10 0
BBX 10 10 0 -2
BITMAP
0400
7FC0
1200
67C0
3500
47C0
3F80
0400
7FC0
0000
ENDCHAR
STARTCHAR 4345
ENCODING 22727
SWIDTH 960 0
DWIDTH 10 0
BBX 10 10 0 -2
BITMAP
2100
2FC0
7540
2440
27C0
2280
3380
6280
07C0
0000
ENDCHAR
STARTCHAR 3275
ENCODING 22730
SWIDTH 960 0
DWIDTH 10 0
BBX 10 10 0 -2
BITMAP
2200
2FC0
7A80
2F80
2200
2FC0
6540
0C80
1640
0000
ENDCHAR
STARTCHAR 3e6d
ENCODING 22732
SWIDTH 960 0
DWIDTH 10 0
BBX 10 10 0 -2
BITMAP
0200
5FC0
E880
5740
4500
5FC0
4500
EC80
1640
0000
ENDCHAR
STARTCHAR 545b
ENCODING 22737
SWIDTH 960 0
DWIDTH 10 0
BBX 10 10 0 -2
BITMAP
3BC0
2240
7940
4880
3340
0400
1F00
0400
7FC0
0000
ENDCHAR
STARTCHAR 545a
ENCODING 22739
SWIDTH 960 0
DWIDTH 10 0
BBX 10 10 0 -2
BITMAP
7FC0
5D40
57C0
5D80
5640
0400
3F80
0400
7FC0
0000
ENDCHAR
STARTCHAR 3968
ENCODING 22741
SWIDTH 960 0
DWIDTH 10 0
BBX 10 10 0 -2
BITMAP
0100
27C0
2380
7000
2FC0
2300
34C0
6280
0D40
0000
ENDCHAR
STARTCHAR 545c
ENCODING 22743
SWIDTH 960 0
DWIDTH 10 0
BBX 10 10 0 -2
BITMAP
2200
2780
68C0
2780
2B40
2000
2F80
4A80
1FC0
0000
ENDCHAR
STARTCHAR 545e
ENCODING 22744
SWIDTH 960 0
DWIDTH 10 0
BBX 10 10 0 -2
BITMAP
1F00
1500
7FC0
5540
7FC0
0400
1F00
0400
7FC0
0000
ENDCHAR
STARTCHAR 545d
ENCODING 22745
SWIDTH 960 0
DWIDTH 10 0
BBX 10 10 0 -2
BITMAP
2200
2FC0
7A80
2FC0
2A80
2FC0
2A80
4B80
1440
0000
ENDCHAR
STARTCHAR 5460
ENCODING 22748
SWIDTH 960 0
DWIDTH 10 0
BBX 10 10 0 -2
BITMAP
2780
2480
6FC0
2940
2780
2000
2FC0
4280
0780
0000
ENDCHAR
STARTCHAR 5455
ENCODING 22750
SWIDTH 960 0
DWIDTH 10 0
BBX 10 10 0 -2
BITMAP
2200
2FC0
7780
2000
2AC0
2200
2540
4C80
0640
0000
ENDCHAR
STARTCHAR 5462
ENCODING 22751
SWIDTH 960 0
DWIDTH 10 0
BBX 10 10 0 -2
BITMAP
23C0
7200
D980
7240
53C0
0400
3F80
0400
7FC0
0000
ENDCHAR
STARTCHAR 5461
ENCODING 22756
SWIDTH 960 0
DWIDTH 10 0
BBX 10 10 0 -2
BITMAP
2100
2FC0
6680
2FC0
2280
2FC0
2540
4C80
0640
0000
ENDCHAR
STARTCHAR 545f
ENCODING 22757
SWIDTH 960 0
DWIDTH 10 0
BBX 10 10 0 -2
BITMAP
2FC0
2A80
7B80
2B80
2D40
2800
2B80
4900
17C0
0000
ENDCHAR
STARTCHAR 3b4e
ENCODING 22763
SWIDTH 960 0
DWIDTH 10 0
BBX 10 10 0 -2
BITMAP
0400
0400
0400
7FC0
0400
0400
0400
0400
3F80
0000
ENDCHAR
STARTCHAR 3f51
ENCODING 22764
SWIDTH 960 0
DWIDTH 10 0
BBX 10 10 0 -2
BITMAP
0380
3C00
0400
0400
7FC0
0400
0400
0400
3F80
0000
ENDCHAR
STARTCHAR 4154
ENCODING 22766
SWIDTH 960 0
DWIDTH 10 0
BBX 10 10 0 -2
BITMAP
1100
5100
3100
17C0
1100
1100
3100
5100
17C0
0000
ENDCHAR
STARTCHAR 5463
ENCODING 22767
SWIDTH 960 0
DWIDTH 10 0
BBX 10 10 0 -2
BITMAP
5100
5100
7100
17C0
1100
7100
5100
5100
57C0
0000
ENDCHAR
STARTCHAR 403c
ENCODING 22768
SWIDTH 960 0
DWIDTH 10 0
BBX 10 10 0 -2
BITMAP
0400
7FC0
0400
3F80
0000
3F80
2480
3F80
4000
0000
ENDCHAR
STARTCHAR 306d
ENCODING 22769
SWIDTH 960 0
DWIDTH 10 0
BBX 10 10 0 -2
BITMAP
0400
7FC0
0400
7FC0
4040
1300
1C00
1080
1F80
0000
ENDCHAR
STARTCHAR 4764
ENCODING 22770
SWIDTH 960 0
DWIDTH 10 0
BBX 10 10 0 -2
BITMAP
0400
7FC0
0400
3F80
0000
7FC0
4A40
1200
63C0
0000
ENDCHAR
STARTCHAR 445b
ENCODING 22775
SWIDTH 960 0
DWIDTH 10 0
BBX 10 10 0 -2
BITMAP
0400
7FC0
0400
7FC0
4A40
3F80
2A80
1F00
7FC0
0000
ENDCHAR
STARTCHAR 5465
ENCODING 22777
SWIDTH 960 0
DWIDTH 10 0
BBX 10 10 0 -2
BITMAP
0400
7FC0
0400
7FC0
5140
1F00
1100
0A00
7FC0
0000
ENDCHAR
STARTCHAR 5464
ENCODING 22778
SWIDTH 960 0
DWIDTH 10 0
BBX 10 10 0 -2
BITMAP
0400
7FC0
0400
7FC0
4A40
3B80
3180
0A00
7FC0
0000
ENDCHAR
STARTCHAR 5466
ENCODING 22779
SWIDTH 960 0
DWIDTH 10 0
BBX 10 10 0 -2
BITMAP
2FC0
2240
6B00
2FC0
2000
2780
3480
4780
0480
0000
ENDCHAR
STARTCHAR 5467
ENCODING 22780
SWIDTH 960 0
DWIDTH 10 0
BBX 10 10 0 -2
BITMAP
0400
7FC0
0400
7FC0
4040
3F80
0A00
3180
0A00
7FC0
ENDCHAR
STARTCHAR 5468
ENCODING 22781
SWIDTH 960 0
DWIDTH 10 0
BBX 10 10 0 -2
BITMAP
0400
7FC0
0400
7FC0
1F40
0400
7FC0
2880
3A80
0000
ENDCHAR
STARTCHAR 5469
ENCODING 22786
SWIDTH 960 0
DWIDTH 10 0
BBX 10 10 0 -2
BITMAP
0800
0F00
1100
3100
4A00
0A00
0400
1B00
60C0
0000
ENDCHAR
STARTCHAR 4a51
ENCODING 22793
SWIDTH 960 0
DWIDTH 10 0
BBX 10 10 0 -2
BITMAP
0400
7FC0
2A80
5640
0000
0F00
3100
0E00
71C0
0000
ENDCHAR
STARTCHAR 546a
ENCODING 22794
SWIDTH 960 0
DWIDTH 10 0
BBX 10 10 0 -2
BITMAP
2800
2F00
1100
3100
4A00
0A00
0400
1B00
60C0
0000
ENDCHAR
STARTCHAR 3246
ENCODING 22799
SWIDTH 960 0
DWIDTH 10 0
BBX 10 10 0 -2
BITMAP
7FC0
0800
3F80
2080
3F80
0F00
3100
0E00
71C0
0000
ENDCHAR
STARTCHAR 546b
ENCODING 22800
SWIDTH 960 0
DWIDTH 10 0
BBX 10 10 0 -2
BITMAP
1E00
2200
7FC0
1540
3F00
0800
1F00
6600
19C0
0000
ENDCHAR
STARTCHAR 4d3c
ENCODING 22805
SWIDTH 960 0
DWIDTH 10 0
BBX 10 10 0 -2
BITMAP
0800
0F80
0880
1080
2500
0300
0200
0C00
3000
0000
ENDCHAR
STARTCHAR 3330
ENCODING 22806
SWIDTH 960 0
DWIDTH 10 0
BBX 10 10 0 -2
BITMAP
2200
3A00
2A00
6B00
5A80
0A40
1200
2200
4200
0000
ENDCHAR
STARTCHAR 5249
ENCODING 22808
SWIDTH 960 0
DWIDTH 10 0
BBX 10 10 0 -2
BITMAP
2000
3BC0
2A40
2A40
3A40
4A40
12C0
2200
4200
0000
ENDCHAR
STARTCHAR 3d48
ENCODING 22809
SWIDTH 960 0
DWIDTH 10 0
BBX 10 10 0 -2
BITMAP
3F80
2080
2E80
2480
2E80
3A80
2480
5840
4040
0000
ENDCHAR
STARTCHAR 423f
ENCODING 22810
SWIDTH 960 0
DWIDTH 10 0
BBX 10 10 0 -2
BITMAP
1000
1E00
2200
5500
0BC0
7440
0A80
0100
1E00
0000
ENDCHAR
STARTCHAR 546c
ENCODING 22811
SWIDTH 960 0
DWIDTH 10 0
BBX 10 10 0 -2
BITMAP
1F00
0100
7FC0
0400
0F00
1900
2600
0C00
7000
0000
ENDCHAR
STARTCHAR 4c6b
ENCODING 22812
SWIDTH 960 0
DWIDTH 10 0
BBX 10 10 0 -2
BITMAP
0400
7FC0
1200
1380
2480
6680
2900
2300
2CC0
0000
ENDCHAR
STARTCHAR 4c34
ENCODING 22818
SWIDTH 960 0
DWIDTH 10 0
BBX 10 10 0 -2
BITMAP
1100
7FC0
2A80
7FC0
4840
0F00
3900
0600
3800
0000
ENDCHAR
STARTCHAR 546e
ENCODING 22821
SWIDTH 960 0
DWIDTH 10 0
BBX 10 10 0 -2
BITMAP
7900
69C0
5B40
7880
2300
79C0
3340
6880
2300
0000
ENDCHAR
STARTCHAR 4267
ENCODING 22823
SWIDTH 960 0
DWIDTH 10 0
BBX 10 10 0 -2
BITMAP
0400
0400
7FC0
0A00
0A00
1100
1100
2080
4040
0000
ENDCHAR
STARTCHAR 4537
ENCODING 22825
SWIDTH 960 0
DWIDTH 10 0
BBX 10 10 0 -2
BITMAP
0000
7FC0
0400
0400
3F80
0400
0A00
1100
60C0
0000
ENDCHAR
STARTCHAR 4240
ENCODING 22826
SWIDTH 960 0
DWIDTH 10 0
BBX 10 10 0 -2
BITMAP
0400
0400
7FC0
0A00
0A00
1100
1100
2480
4240
0000
ENDCHAR
STARTCHAR 4957
ENCODING 22827
SWIDTH 960 0
DWIDTH 10 0
BBX 10 10 0 -2
BITMAP
0400
0400
3F80
0400
7FC0
0400
0A00
1100
60C0
0000
ENDCHAR
STARTCHAR 546f
ENCODING 22828
SWIDTH 960 0
DWIDTH 10 0
BBX 10 10 0 -2
BITMAP
0400
0400
1F00
0500
7FC0
0400
0A00
1100
60C0
0000
ENDCHAR
STARTCHAR 5470
ENCODING 22829
SWIDTH 960 0
DWIDTH 10 0
BBX 10 10 0 -2
BITMAP
0300
3C00
0400
7FC0
0400
0A00
0A00
1100
60C0
0000
ENDCHAR
STARTCHAR 317b
ENCODING 22830
SWIDTH 960 0
DWIDTH 10 0
BBX 10 10 0 -2
BITMAP
0400
0400
3F80
2480
2480
7FC0
0A00
1100
60C0
0000
ENDCHAR
STARTCHAR 3c3a
ENCODING 22833
SWIDTH 960 0
DWIDTH 10 0
BBX 10 10 0 -2
BITMAP
0400
1400
3F80
0400
7FC0
0400
0A00
1100
60C0
0000
ENDCHAR
STARTCHAR 5471
ENCODING 22834
SWIDTH 960 0
DWIDTH 10 0
BBX 10 10 0 -2
BITMAP
0400
0400
7FC0
0A00
1500
2480
5F40
0400
0400
0000
ENDCHAR
STARTCHAR 3050
ENCODING 22839
SWIDTH 960 0
DWIDTH 10 0
BBX 10 10 0 -2
BITMAP
0400
7FC0
0480
3F80
2400
3FC0
0440
0A80
71C0
0000
ENDCHAR
STARTCHAR 5472
ENCODING 22840
SWIDTH 960 0
DWIDTH 10 0
BBX 10 10 0 -2
BITMAP
0400
7FC0
1100
2E80
4040
3F80
0800
0F00
0200
0000
ENDCHAR
STARTCHAR 5473
ENCODING 22846
SWIDTH 960 0
DWIDTH 10 0
BBX 10 10 0 -2
BITMAP
0400
0400
7FC0
2480
2480
5540
0A00
1100
60C0
0000
ENDCHAR
STARTCHAR 3162
ENCODING 22852
SWIDTH 960 0
DWIDTH 10 0
BBX 10 10 0 -2
BITMAP
0400
7FC0
1F00
3580
5F40
1500
1F00
0440
07C0
0000
ENDCHAR
STARTCHAR 3471
ENCODING 22855
SWIDTH 960 0
DWIDTH 10 0
BBX 10 10 0 -2
BITMAP
0400
7FC0
0A00
1100
7FC0
0100
3900
3900
0300
0000
ENDCHAR
STARTCHAR 4660
ENCODING 22856
SWIDTH 960 0
DWIDTH 10 0
BBX 10 10 0 -2
BITMAP
0400
7FC0
1100
2E80
4040
3F80
0400
2480
4C40
0000
ENDCHAR
STARTCHAR 4a74
ENCODING 22857
SWIDTH 960 0
DWIDTH 10 0
BBX 10 10 0 -2
BITMAP
0400
3F80
0A00
7FC0
1500
2E80
4440
3F80
0400
0000
ENDCHAR
STARTCHAR 5477
ENCODING 22862
SWIDTH 960 0
DWIDTH 10 0
BBX 10 10 0 -2
BITMAP
0400
7FC0
1500
6EC0
3F80
0400
1F00
0400
7FC0
0000
ENDCHAR
STARTCHAR 4155
ENCODING 22863
SWIDTH 960 0
DWIDTH 10 0
BBX 10 10 0 -2
BITMAP
0400
3F80
0800
7FC0
2E80
4440
3F80
0A00
3180
0000
ENDCHAR
STARTCHAR 5476
ENCODING 22864
SWIDTH 960 0
DWIDTH 10 0
BBX 10 10 0 -2
BITMAP
1E00
2200
7F80
2980
3480
7FC0
0400
1B00
60C0
0000
ENDCHAR
STARTCHAR 3740
ENCODING 22865
SWIDTH 960 0
DWIDTH 10 0
BBX 10 10 0 -2
BITMAP
13C0
7940
3140
1A40
72C0
0400
7FC0
0A00
71C0
0000
ENDCHAR
STARTCHAR 4b5b
ENCODING 22868
SWIDTH 960 0
DWIDTH 10 0
BBX 10 10 0 -2
BITMAP
0400
7FC0
2480
5F40
0400
1100
7FC0
1100
2100
0000
ENDCHAR
STARTCHAR 5475
ENCODING 22869
SWIDTH 960 0
DWIDTH 10 0
BBX 10 10 0 -2
BITMAP
0400
7FC0
2A80
4A40
1200
0400
7FC0
0A00
71C0
0000
ENDCHAR
STARTCHAR 4565
ENCODING 22871
SWIDTH 960 0
DWIDTH 10 0
BBX 10 10 0 -2
BITMAP
0400
7FC0
2080
5F40
1000
7FC0
1000
1100
3E80
0000
ENDCHAR
STARTCHAR 5479
ENCODING 22872
SWIDTH 960 0
DWIDTH 10 0
BBX 10 10 0 -2
BITMAP
5100
77C0
1100
7100
5380
0400
7FC0
1B00
60C0
0000
ENDCHAR
STARTCHAR 5478
ENCODING 22874
SWIDTH 960 0
DWIDTH 10 0
BBX 10 10 0 -2
BITMAP
0700
3C80
4A40
1480
3F80
0400
7FC0
1B00
60C0
0000
ENDCHAR
STARTCHAR 547b
ENCODING 22880
SWIDTH 960 0
DWIDTH 10 0
BBX 10 10 0 -2
BITMAP
1100
3F80
4A40
3F80
3180
2480
7FC0
0A00
71C0
0000
ENDCHAR
STARTCHAR 547a
ENCODING 22882
SWIDTH 960 0
DWIDTH 10 0
BBX 10 10 0 -2
BITMAP
0400
7FC0
1500
6EC0
0400
7FC0
1900
6900
0F00
0000
ENDCHAR
STARTCHAR 317c
ENCODING 22885
SWIDTH 960 0
DWIDTH 10 0
BBX 10 10 0 -2
BITMAP
0400
3F80
3580
2E80
3580
2480
7FC0
0A00
71C0
0000
ENDCHAR
STARTCHAR 547c
ENCODING 22887
SWIDTH 960 0
DWIDTH 10 0
BBX 10 10 0 -2
BITMAP
0800
3F80
2280
2C80
2680
2D80
7FC0
0A00
71C0
0000
ENDCHAR
STARTCHAR 3e29
ENCODING 22888
SWIDTH 960 0
DWIDTH 10 0
BBX 10 10 0 -2
BITMAP
53C0
3540
17C0
3080
5280
0400
7FC0
0A00
71C0
0000
ENDCHAR
STARTCHAR 547e
ENCODING 22889
SWIDTH 960 0
DWIDTH 10 0
BBX 10 10 0 -2
BITMAP
0400
7FC0
0A00
1F00
67C0
2500
2F80
2A80
1FC0
0000
ENDCHAR
STARTCHAR 4325
ENCODING 22890
SWIDTH 960 0
DWIDTH 10 0
BBX 10 10 0 -2
BITMAP
0400
7FC0
2480
5F40
1400
1F00
0200
7FC0
1200
0000
ENDCHAR
STARTCHAR 547d
ENCODING 22892
SWIDTH 960 0
DWIDTH 10 0
BBX 10 10 0 -2
BITMAP
51C0
7640
1180
77C0
5280
0400
7FC0
0A00
71C0
0000
ENDCHAR
STARTCHAR 4a33
ENCODING 22894
SWIDTH 960 0
DWIDTH 10 0
BBX 10 10 0 -2
BITMAP
0400
7FC0
2880
5F40
1400
3F80
2480
2480
3F80
0000
ENDCHAR
STARTCHAR 3d77
ENCODING 22899
SWIDTH 960 0
DWIDTH 10 0
BBX 10 10 0 -2
BITMAP
0400
0400
7FC0
0900
1100
1A00
0600
0900
3080
0000
ENDCHAR
STARTCHAR 455b
ENCODING 22900
SWIDTH 960 0
DWIDTH 10 0
BBX 10 10 0 -2
BITMAP
2000
27C0
F040
5280
5280
5100
2100
3280
5440
0000
ENDCHAR
STARTCHAR 5521
ENCODING 22904
SWIDTH 960 0
DWIDTH 10 0
BBX 10 10 0 -2
BITMAP
2000
27C0
F100
5100
57C0
5100
2100
3100
5100
0000
ENDCHAR
STARTCHAR 3925
ENCODING 22909
SWIDTH 960 0
DWIDTH 10 0
BBX 10 10 0 -2
BITMAP
1000
13C0
7C40
2880
2880
2BC0
1080
1880
2980
0000
ENDCHAR
STARTCHAR 5522
ENCODING 22913
SWIDTH 960 0
DWIDTH 10 0
BBX 10 10 0 -2
BITMAP
2200
23C0
F440
5040
5240
5140
2040
3040
5180
0000
ENDCHAR
STARTCHAR 4721
ENCODING 22914
SWIDTH 960 0
DWIDTH 10 0
BBX 10 10 0 -2
BITMAP
1000
13C0
7A40
2A40
2A40
2A40
1240
2A40
43C0
0000
ENDCHAR
STARTCHAR 485e
ENCODING 22915
SWIDTH 960 0
DWIDTH 10 0
BBX 10 10 0 -2
BITMAP
1000
13C0
7840
2840
2BC0
2A00
1200
1A40
2BC0
0000
ENDCHAR
STARTCHAR 4c51
ENCODING 22916
SWIDTH 960 0
DWIDTH 10 0
BBX 10 10 0 -2
BITMAP
0400
7FC0
1000
1F00
0400
7FC0
1100
1E00
71C0
0000
ENDCHAR
STARTCHAR 4725
ENCODING 22922
SWIDTH 960 0
DWIDTH 10 0
BBX 10 10 0 -2
BITMAP
20C0
2700
F900
5100
57C0
5100
2100
3100
57C0
0000
ENDCHAR
STARTCHAR 552b
ENCODING 22925
SWIDTH 960 0
DWIDTH 10 0
BBX 10 10 0 -2
BITMAP
2000
27C0
F280
5280
57C0
5280
2280
3280
5480
0000
ENDCHAR
STARTCHAR 3538
ENCODING 22931
SWIDTH 960 0
DWIDTH 10 0
BBX 10 10 0 -2
BITMAP
2100
2100
F7C0
5100
57C0
5440
2280
3100
56C0
0000
ENDCHAR
STARTCHAR 4d45
ENCODING 22934
SWIDTH 960 0
DWIDTH 10 0
BBX 10 10 0 -2
BITMAP
2080
2700
F100
57C0
5100
5100
2280
3280
5440
0000
ENDCHAR
STARTCHAR 4c2f
ENCODING 22937
SWIDTH 960 0
DWIDTH 10 0
BBX 10 10 0 -2
BITMAP
2200
2200
F680
5240
5200
5280
2080
3100
5600
0000
ENDCHAR
STARTCHAR 562c
ENCODING 22939
SWIDTH 960 0
DWIDTH 10 0
BBX 10 10 0 -2
BITMAP
4440
7FC0
0000
7FC0
0800
7FC0
1100
1E00
71C0
0000
ENDCHAR
STARTCHAR 5523
ENCODING 22941
SWIDTH 960 0
DWIDTH 10 0
BBX 10 10 0 -2
BITMAP
5100
5100
77C0
1280
1280
7280
5100
5180
5640
0000
ENDCHAR
STARTCHAR 5526
ENCODING 22947
SWIDTH 960 0
DWIDTH 10 0
BBX 10 10 0 -2
BITMAP
2500
2500
F540
5780
5500
5500
2500
3740
54C0
0000
ENDCHAR
STARTCHAR 4245
ENCODING 22949
SWIDTH 960 0
DWIDTH 10 0
BBX 10 10 0 -2
BITMAP
0380
7C00
4880
2500
0800
7FC0
1100
1E00
71C0
0000
ENDCHAR
STARTCHAR 4b38
ENCODING 22952
SWIDTH 960 0
DWIDTH 10 0
BBX 10 10 0 -2
BITMAP
1080
1080
7BC0
2900
29C0
2940
1140
1A40
2AC0
0000
ENDCHAR
STARTCHAR 454a
ENCODING 22956
SWIDTH 960 0
DWIDTH 10 0
BBX 10 10 0 -2
BITMAP
2000
27C0
F200
5200
53C0
5640
2A40
3240
53C0
0000
ENDCHAR
STARTCHAR 5527
ENCODING 22962
SWIDTH 960 0
DWIDTH 10 0
BBX 10 10 0 -2
BITMAP
2780
2480
F480
5780
5480
5480
2780
3000
57C0
0000
ENDCHAR
STARTCHAR 4b65
ENCODING 22969
SWIDTH 960 0
DWIDTH 10 0
BBX 10 10 0 -2
BITMAP
2100
2100
F380
5100
57C0
5100
2380
3540
5100
0000
ENDCHAR
STARTCHAR 3a4a
ENCODING 22971
SWIDTH 960 0
DWIDTH 10 0
BBX 10 10 0 -2
BITMAP
0400
7FC0
0480
3F80
0800
7FC0
1100
1E00
71C0
0000
ENDCHAR
STARTCHAR 3e2a
ENCODING 22974
SWIDTH 960 0
DWIDTH 10 0
BBX 10 10 0 -2
BITMAP
0400
3F80
1100
7FC0
0800
7FC0
1100
1E00
71C0
0000
ENDCHAR
STARTCHAR 5528
ENCODING 22982
SWIDTH 960 0
DWIDTH 10 0
BBX 10 10 0 -2
BITMAP
2780
2480
F680
5FC0
5480
5680
2480
37C0
5080
0000
ENDCHAR
STARTCHAR 3b50
ENCODING 22985
SWIDTH 960 0
DWIDTH 10 0
BBX 10 10 0 -2
BITMAP
2100
27C0
F100
57C0
5540
5540
2540
3540
5100
0000
ENDCHAR
STARTCHAR 3b4f
ENCODING 22987
SWIDTH 960 0
DWIDTH 10 0
BBX 10 10 0 -2
BITMAP
1100
1100
7A40
2BC0
2800
2800
13C0
1A40
2BC0
0000
ENDCHAR
STARTCHAR 3039
ENCODING 22992
SWIDTH 960 0
DWIDTH 10 0
BBX 10 10 0 -2
BITMAP
2000
2780
F480
5780
5480
5780
2480
3480
5FC0
0000
ENDCHAR
STARTCHAR 3848
ENCODING 22993
SWIDTH 960 0
DWIDTH 10 0
BBX 10 10 0 -2
BITMAP
1100
1100
7BC0
2900
2900
2BC0
1240
1A40
2BC0
0000
ENDCHAR
STARTCHAR 402b
ENCODING 22995
SWIDTH 960 0
DWIDTH 10 0
BBX 10 10 0 -2
BITMAP
2100
2500
F7C0
5500
5100
53C0
2100
3100
57C0
0000
ENDCHAR
STARTCHAR 3051
ENCODING 22996
SWIDTH 960 0
DWIDTH 10 0
BBX 10 10 0 -2
BITMAP
3F80
0400
7FC0
1500
64C0
0800
7FC0
1200
7DC0
0000
ENDCHAR
STARTCHAR 552c
ENCODING 23001
SWIDTH 960 0
DWIDTH 10 0
BBX 10 10 0 -2
BITMAP
2000
2240
F580
5C80
55C0
5480
2480
3480
55C0
0000
ENDCHAR
STARTCHAR 552d
ENCODING 23002
SWIDTH 960 0
DWIDTH 10 0
BBX 10 10 0 -2
BITMAP
2280
2280
F6C0
5280
5280
56C0
2280
3280
54C0
0000
ENDCHAR
STARTCHAR 552a
ENCODING 23004
SWIDTH 960 0
DWIDTH 10 0
BBX 10 10 0 -2
BITMAP
1100
7FC0
0400
7FC0
0800
7FC0
1100
1E00
71C0
0000
ENDCHAR
STARTCHAR 3138
ENCODING 23013
SWIDTH 960 0
DWIDTH 10 0
BBX 10 10 0 -2
BITMAP
2240
27C0
F280
5FC0
5200
56C0
2B00
3240
53C0
0000
ENDCHAR
STARTCHAR 342f
ENCODING 23014
SWIDTH 960 0
DWIDTH 10 0
BBX 10 10 0 -2
BITMAP
0400
3F80
0A00
0600
1900
7FC0
2A80
1100
6AC0
0000
ENDCHAR
STARTCHAR 5529
ENCODING 23016
SWIDTH 960 0
DWIDTH 10 0
BBX 10 10 0 -2
BITMAP
2100
27C0
F140
57C0
5500
57C0
2140
3280
5440
0000
ENDCHAR
STARTCHAR 4c45
ENCODING 23018
SWIDTH 960 0
DWIDTH 10 0
BBX 10 10 0 -2
BITMAP
27C0
2100
F240
57C0
5100
5100
27C0
3100
57C0
0000
ENDCHAR
STARTCHAR 4931
ENCODING 23019
SWIDTH 960 0
DWIDTH 10 0
BBX 10 10 0 -2
BITMAP
27C0
2500
F500
57C0
5440
57C0
2500
3500
57C0
0000
ENDCHAR
STARTCHAR 3028
ENCODING 23030
SWIDTH 960 0
DWIDTH 10 0
BBX 10 10 0 -2
BITMAP
2300
2480
F840
5780
5000
5780
2480
3480
5780
0000
ENDCHAR
STARTCHAR 3079
ENCODING 23035
SWIDTH 960 0
DWIDTH 10 0
BBX 10 10 0 -2
BITMAP
27C0
2440
F540
57C0
5540
5540
26C0
3440
57C0
0000
ENDCHAR
STARTCHAR 3b51
ENCODING 23039
SWIDTH 960 0
DWIDTH 10 0
BBX 10 10 0 -2
BITMAP
6400
07C0
0A40
2300
44C0
0800
7FC0
1200
7DC0
0000
ENDCHAR
STARTCHAR 3052
ENCODING 23041
SWIDTH 960 0
DWIDTH 10 0
BBX 10 10 0 -2
BITMAP
0280
3FC0
2200
3E40
2A40
3D40
3480
2880
5540
0000
ENDCHAR
STARTCHAR 3023
ENCODING 23043
SWIDTH 960 0
DWIDTH 10 0
BBX 10 10 0 -2
BITMAP
2100
27C0
F100
57C0
5000
5100
27C0
3100
57C0
0000
ENDCHAR
STARTCHAR 5532
ENCODING 23049
SWIDTH 960 0
DWIDTH 10 0
BBX 10 10 0 -2
BITMAP
2200
2780
F680
5680
5FC0
5400
2780
3080
5180
0000
ENDCHAR
STARTCHAR 5530
ENCODING 23057
SWIDTH 960 0
DWIDTH 10 0
BBX 10 10 0 -2
BITMAP
4200
2A80
4A40
2280
4700
0800
7FC0
1300
7CC0
0000
ENDCHAR
STARTCHAR 4c3c
ENCODING 23064
SWIDTH 960 0
DWIDTH 10 0
BBX 10 10 0 -2
BITMAP
2200
2780
F480
5780
5480
5780
2540
3480
5640
0000
ENDCHAR
STARTCHAR 5533
ENCODING 23066
SWIDTH 960 0
DWIDTH 10 0
BBX 10 10 0 -2
BITMAP
27C0
2540
F7C0
5540
57C0
5200
27C0
3240
54C0
0000
ENDCHAR
STARTCHAR 5531
ENCODING 23068
SWIDTH 960 0
DWIDTH 10 0
BBX 10 10 0 -2
BITMAP
2FC0
2540
FF80
5540
5540
5F40
65C0
3500
5B00
0000
ENDCHAR
STARTCHAR 552f
ENCODING 23071
SWIDTH 960 0
DWIDTH 10 0
BBX 10 10 0 -2
BITMAP
27C0
2440
F7C0
5000
57C0
5440
27C0
3440
54C0
0000
ENDCHAR
STARTCHAR 3f31
ENCODING 23072
SWIDTH 960 0
DWIDTH 10 0
BBX 10 10 0 -2
BITMAP
27C0
2400
F580
5400
57C0
5500
2540
3580
5540
0000
ENDCHAR
STARTCHAR 552e
ENCODING 23077
SWIDTH 960 0
DWIDTH 10 0
BBX 10 10 0 -2
BITMAP
2300
2D40
F500
5FC0
5500
5740
2D40
3480
5D40
0000
ENDCHAR
STARTCHAR 4a5a
ENCODING 23081
SWIDTH 960 0
DWIDTH 10 0
BBX 10 10 0 -2
BITMAP
2380
2480
F100
57C0
5540
57C0
2280
3280
54C0
0000
ENDCHAR
STARTCHAR 3864
ENCODING 23087
SWIDTH 960 0
DWIDTH 10 0
BBX 10 10 0 -2
BITMAP
21C0
2540
F5C0
5400
57C0
5040
27C0
3280
5440
0000
ENDCHAR
STARTCHAR 5537
ENCODING 23093
SWIDTH 960 0
DWIDTH 10 0
BBX 10 10 0 -2
BITMAP
2FC0
2500
F7C0
5540
5740
5540
2F80
3140
5140
0000
ENDCHAR
STARTCHAR 5538
ENCODING 23094
SWIDTH 960 0
DWIDTH 10 0
BBX 10 10 0 -2
BITMAP
7BC0
2A40
7980
0A40
1000
7FC0
1100
0E00
71C0
0000
ENDCHAR
STARTCHAR 3e2b
ENCODING 23100
SWIDTH 960 0
DWIDTH 10 0
BBX 10 10 0 -2
BITMAP
2380
2280
F380
5280
57C0
5440
27C0
3440
57C0
0000
ENDCHAR
STARTCHAR 5534
ENCODING 23104
SWIDTH 960 0
DWIDTH 10 0
BBX 10 10 0 -2
BITMAP
4000
4FC0
EC80
AB80
AE80
AF80
4C80
6880
A980
0000
ENDCHAR
STARTCHAR 4f2c
ENCODING 23105
SWIDTH 960 0
DWIDTH 10 0
BBX 10 10 0 -2
BITMAP
0400
3F80
64C0
3F80
1500
7FC0
1100
1E00
71C0
0000
ENDCHAR
STARTCHAR 474c
ENCODING 23110
SWIDTH 960 0
DWIDTH 10 0
BBX 10 10 0 -2
BITMAP
4200
2FC0
4C80
2B00
54C0
0A00
7FC0
1200
7DC0
0000
ENDCHAR
STARTCHAR 5536
ENCODING 23113
SWIDTH 960 0
DWIDTH 10 0
BBX 10 10 0 -2
BITMAP
2100
27C0
F440
53C0
5540
53C0
2100
3300
55C0
0000
ENDCHAR
STARTCHAR 3a27
ENCODING 23130
SWIDTH 960 0
DWIDTH 10 0
BBX 10 10 0 -2
BITMAP
2780
2500
F7C0
5500
5780
54C0
2780
3480
5780
0000
ENDCHAR
STARTCHAR 5539
ENCODING 23138
SWIDTH 960 0
DWIDTH 10 0
BBX 10 10 0 -2
BITMAP
2200
27C0
F540
57C0
5540
57C0
2280
37C0
5080
0000
ENDCHAR
STARTCHAR 4958
ENCODING 23142
SWIDTH 960 0
DWIDTH 10 0
BBX 10 10 0 -2
BITMAP
2780
2080
F780
5080
5FC0
5A40
2780
3680
5200
0000
ENDCHAR
STARTCHAR 553a
ENCODING 23146
SWIDTH 960 0
DWIDTH 10 0
BBX 10 10 0 -2
BITMAP
2100
7BC0
3180
6B40
2100
0800
7FC0
1200
3D80
0000
ENDCHAR
STARTCHAR 5535
ENCODING 23148
SWIDTH 960 0
DWIDTH 10 0
BBX 10 10 0 -2
BITMAP
20C0
2740
F540
5280
5780
5100
27C0
3100
57C0
0000
ENDCHAR
STARTCHAR 4c3b
ENCODING 23167
SWIDTH 960 0
DWIDTH 10 0
BBX 10 10 0 -2
BITMAP
27C0
2140
F300
55C0
5000
57C0
2440
37C0
5440
0000
ENDCHAR
STARTCHAR 475e
ENCODING 23186
SWIDTH 960 0
DWIDTH 10 0
BBX 10 10 0 -2
BITMAP
2280
27C0
FA80
5280
5380
5100
27C0
3380
5540
0000
ENDCHAR
STARTCHAR 553b
ENCODING 23194
SWIDTH 960 0
DWIDTH 10 0
BBX 10 10 0 -2
BITMAP
27C0
2540
F7C0
5400
57C0
5640
27C0
3640
4BC0
0000
ENDCHAR
STARTCHAR 4932
ENCODING 23195
SWIDTH 960 0
DWIDTH 10 0
BBX 10 10 0 -2
BITMAP
27C0
2540
F280
57C0
5200
57C0
2540
3480
5540
0000
ENDCHAR
STARTCHAR 553c
ENCODING 23228
SWIDTH 960 0
DWIDTH 10 0
BBX 10 10 0 -2
BITMAP
4F80
4A80
ED80
AF80
A000
AF80
4A80
6A80
BFC0
0000
ENDCHAR
STARTCHAR 5540
ENCODING 23229
SWIDTH 960 0
DWIDTH 10 0
BBX 10 10 0 -2
BITMAP
27C0
2500
F7C0
5500
57C0
5040
22C0
3540
5080
0000
ENDCHAR
STARTCHAR 553d
ENCODING 23230
SWIDTH 960 0
DWIDTH 10 0
BBX 10 10 0 -2
BITMAP
2280
27C0
F280
5FC0
5100
5380
2280
37C0
5280
0000
ENDCHAR
STARTCHAR 3247
ENCODING 23233
SWIDTH 960 0
DWIDTH 10 0
BBX 10 10 0 -2
BITMAP
2100
27C0
F440
5380
5500
51C0
2680
30C0
5300
0000
ENDCHAR
STARTCHAR 553f
ENCODING 23234
SWIDTH 960 0
DWIDTH 10 0
BBX 10 10 0 -2
BITMAP
2100
23C0
F540
57C0
5540
57C0
2280
3100
56C0
0000
ENDCHAR
STARTCHAR 3c3b
ENCODING 23241
SWIDTH 960 0
DWIDTH 10 0
BBX 10 10 0 -2
BITMAP
2100
27C0
F400
5500
5DC0
5480
2DC0
3480
5540
0000
ENDCHAR
STARTCHAR 553e
ENCODING 23243
SWIDTH 960 0
DWIDTH 10 0
BBX 10 10 0 -2
BITMAP
26C0
2240
F6C0
5480
56C0
5240
26C0
3240
56C0
0000
ENDCHAR
STARTCHAR 3779
ENCODING 23244
SWIDTH 960 0
DWIDTH 10 0
BBX 10 10 0 -2
BITMAP
2480
2FC0
F500
5780
5DC0
5780
2500
3D80
5540
0000
ENDCHAR
STARTCHAR 554c
ENCODING 23248
SWIDTH 960 0
DWIDTH 10 0
BBX 10 10 0 -2
BITMAP
5C80
5480
FFC0
B540
BD40
A940
5C80
6CC0
B540
0000
ENDCHAR
STARTCHAR 5545
ENCODING 23254
SWIDTH 960 0
DWIDTH 10 0
BBX 10 10 0 -2
BITMAP
27C0
2100
F7C0
5540
57C0
5000
27C0
3100
5540
0000
ENDCHAR
STARTCHAR 5542
ENCODING 23255
SWIDTH 960 0
DWIDTH 10 0
BBX 10 10 0 -2
BITMAP
27C0
2400
F780
5680
57C0
5540
27C0
3400
57C0
0000
ENDCHAR
STARTCHAR 4364
ENCODING 23265
SWIDTH 960 0
DWIDTH 10 0
BBX 10 10 0 -2
BITMAP
2100
27C0
F280
57C0
5540
57C0
2540
3540
5440
0000
ENDCHAR
STARTCHAR 5541
ENCODING 23267
SWIDTH 960 0
DWIDTH 10 0
BBX 10 10 0 -2
BITMAP
27C0
2100
F5C0
5500
57C0
5200
23C0
3040
5540
0000
ENDCHAR
STARTCHAR 5543
ENCODING 23270
SWIDTH 960 0
DWIDTH 10 0
BBX 10 10 0 -2
BITMAP
2280
27C0
F440
5380
5380
5100
27C0
3540
5100
0000
ENDCHAR
STARTCHAR 5544
ENCODING 23273
SWIDTH 960 0
DWIDTH 10 0
BBX 10 10 0 -2
BITMAP
2500
2F00
F5C0
5F40
5B40
5F40
2480
3E80
5540
0000
ENDCHAR
STARTCHAR 5546
ENCODING 23290
SWIDTH 960 0
DWIDTH 10 0
BBX 10 10 0 -2
BITMAP
5DC0
5540
FDC0
B040
B740
B540
5740
7540
B540
0000
ENDCHAR
STARTCHAR 5547
ENCODING 23291
SWIDTH 960 0
DWIDTH 10 0
BBX 10 10 0 -2
BITMAP
4DC0
4D40
FDC0
A840
AA40
AFC0
4B40
6EC0
A840
0000
ENDCHAR
STARTCHAR 3472
ENCODING 23305
SWIDTH 960 0
DWIDTH 10 0
BBX 10 10 0 -2
BITMAP
2300
2FC0
F780
5480
5780
5300
2FC0
3480
5780
0000
ENDCHAR
STARTCHAR 5549
ENCODING 23307
SWIDTH 960 0
DWIDTH 10 0
BBX 10 10 0 -2
BITMAP
27C0
2540
F7C0
5280
5280
5380
2100
37C0
5100
0000
ENDCHAR
STARTCHAR 5548
ENCODING 23308
SWIDTH 960 0
DWIDTH 10 0
BBX 10 10 0 -2
BITMAP
2780
2200
FFC0
5480
5B40
5000
2FC0
3B40
58C0
0000
ENDCHAR
STARTCHAR 554a
ENCODING 23318
SWIDTH 960 0
DWIDTH 10 0
BBX 10 10 0 -2
BITMAP
3900
23C0
7980
2BC0
3900
0800
7FC0
1200
3D80
0000
ENDCHAR
STARTCHAR 3e6e
ENCODING 23330
SWIDTH 960 0
DWIDTH 10 0
BBX 10 10 0 -2
BITMAP
2100
27C0
F280
5540
5100
57C0
2300
3680
5340
0000
ENDCHAR
STARTCHAR 554d
ENCODING 23338
SWIDTH 960 0
DWIDTH 10 0
BBX 10 10 0 -2
BITMAP
2100
27C0
F540
5380
5680
5380
2280
3380
5440
0000
ENDCHAR
STARTCHAR 445c
ENCODING 23340
SWIDTH 960 0
DWIDTH 10 0
BBX 10 10 0 -2
BITMAP
27C0
2100
F7C0
5540
5000
57C0
2200
37C0
5540
0000
ENDCHAR
STARTCHAR 3145
ENCODING 23344
SWIDTH 960 0
DWIDTH 10 0
BBX 10 10 0 -2
BITMAP
3B80
2A80
3B80
4440
0800
7FC0
1100
1E00
71C0
0000
ENDCHAR
STARTCHAR 554b
ENCODING 23346
SWIDTH 960 0
DWIDTH 10 0
BBX 10 10 0 -2
BITMAP
E5C0
A540
FFC0
AB40
EBC0
4A80
E5C0
66C0
AB40
0000
ENDCHAR
STARTCHAR 554e
ENCODING 23350
SWIDTH 960 0
DWIDTH 10 0
BBX 10 10 0 -2
BITMAP
2100
2380
F280
57C0
5540
57C0
2000
37C0
5280
0000
ENDCHAR
STARTCHAR 554f
ENCODING 23358
SWIDTH 960 0
DWIDTH 10 0
BBX 10 10 0 -2
BITMAP
25C0
2F40
F480
5FC0
5B40
5D40
25C0
3E00
5540
0000
ENDCHAR
STARTCHAR 5552
ENCODING 23360
SWIDTH 960 0
DWIDTH 10 0
BBX 10 10 0 -2
BITMAP
2FC0
2200
EFC0
5A40
5000
55C0
2F40
3540
4DC0
0000
ENDCHAR
STARTCHAR 5550
ENCODING 23363
SWIDTH 960 0
DWIDTH 10 0
BBX 10 10 0 -2
BITMAP
2100
27C0
F280
5000
57C0
5280
27C0
3680
5B40
0000
ENDCHAR
STARTCHAR 5551
ENCODING 23365
SWIDTH 960 0
DWIDTH 10 0
BBX 10 10 0 -2
BITMAP
2B40
3500
EFC0
5500
5F40
6540
2E80
3F80
5040
0000
ENDCHAR
STARTCHAR 3b52
ENCODING 23376
SWIDTH 960 0
DWIDTH 10 0
BBX 10 10 0 -2
BITMAP
3F80
0100
0600
0400
7FC0
0400
0400
0400
0C00
0000
ENDCHAR
STARTCHAR 5553
ENCODING 23377
SWIDTH 960 0
DWIDTH 10 0
BBX 10 10 0 -2
BITMAP
3F00
0200
0400
04C0
0F00
7400
0400
0400
0C00
0000
ENDCHAR
STARTCHAR 3926
ENCODING 23380
SWIDTH 960 0
DWIDTH 10 0
BBX 10 10 0 -2
BITMAP
0200
7A00
0A00
1200
7A00
1200
1200
1240
33C0
0000
ENDCHAR
STARTCHAR 5554
ENCODING 23381
SWIDTH 960 0
DWIDTH 10 0
BBX 10 10 0 -2
BITMAP
7F00
1100
11C0
2E40
4280
0400
7FC0
0400
0C00
0000
ENDCHAR
STARTCHAR 3b7a
ENCODING 23383
SWIDTH 960 0
DWIDTH 10 0
BBX 10 10 0 -2
BITMAP
0400
7FC0
4040
1F00
0200
7FC0
0400
0400
0C00
0000
ENDCHAR
STARTCHAR 4238
ENCODING 23384
SWIDTH 960 0
DWIDTH 10 0
BBX 10 10 0 -2
BITMAP
1000
7FC0
1000
2780
2080
6100
2FC0
2100
2300
0000
ENDCHAR
STARTCHAR 5555
ENCODING 23386
SWIDTH 960 0
DWIDTH 10 0
BBX 10 10 0 -2
BITMAP
0380
7C00
2480
4440
1F00
0200
7FC0
0400
0C00
0000
ENDCHAR
STARTCHAR 5556
ENCODING 23387
SWIDTH 960 0
DWIDTH 10 0
BBX 10 10 0 -2
BITMAP
0400
7FC0
0400
7FC0
4040
1F00
0200
7FC0
0400
0C00
ENDCHAR
STARTCHAR 3b5a
ENCODING 23388
SWIDTH 960 0
DWIDTH 10 0
BBX 10 10 0 -2
BITMAP
0200
7200
13C0
2680
3280
6280
2100
2280
6440
0000
ENDCHAR
STARTCHAR 3927
ENCODING 23389
SWIDTH 960 0
DWIDTH 10 0
BBX 10 10 0 -2
BITMAP
0500
3F80
0400
7FC0
1100
2200
5F80
0200
0600
0000
ENDCHAR
STARTCHAR 4c52
ENCODING 23391
SWIDTH 960 0
DWIDTH 10 0
BBX 10 10 0 -2
BITMAP
1F00
0200
7FC0
0400
0C00
0000
3F80
2A80
7FC0
0000
ENDCHAR
STARTCHAR 3528
ENCODING 23395
SWIDTH 960 0
DWIDTH 10 0
BBX 10 10 0 -2
BITMAP
1F00
0400
7FC0
1500
6EC0
0200
7FC0
0400
0C00
0000
ENDCHAR
STARTCHAR 3849
ENCODING 23396
SWIDTH 960 0
DWIDTH 10 0
BBX 10 10 0 -2
BITMAP
70C0
1F80
2A80
3A80
6A80
2A80
2B40
2F40
7040
0000
ENDCHAR
STARTCHAR 5557
ENCODING 23397
SWIDTH 960 0
DWIDTH 10 0
BBX 10 10 0 -2
BITMAP
11C0
7D40
2880
7540
1F00
0200
7FC0
0400
0C00
0000
ENDCHAR
STARTCHAR 3358
ENCODING 23398
SWIDTH 960 0
DWIDTH 10 0
BBX 10 10 0 -2
BITMAP
2880
1500
7FC0
4040
1F00
0200
7FC0
0400
0C00
0000
ENDCHAR
STARTCHAR 5558
ENCODING 23401
SWIDTH 960 0
DWIDTH 10 0
BBX 10 10 0 -2
BITMAP
7100
17C0
2100
2280
3100
6240
2480
2180
6640
0000
ENDCHAR
STARTCHAR 4239
ENCODING 23403
SWIDTH 960 0
DWIDTH 10 0
BBX 10 10 0 -2
BITMAP
7780
1200
2480
3300
6440
2FC0
2100
2540
6940
0000
ENDCHAR
STARTCHAR 5559
ENCODING 23408
SWIDTH 960 0
DWIDTH 10 0
BBX 10 10 0 -2
BITMAP
2200
FA00
7780
0280
7680
1380
FA80
2280
64C0
0000
ENDCHAR
STARTCHAR 5623
ENCODING 23409
SWIDTH 960 0
DWIDTH 10 0
BBX 10 10 0 -2
BITMAP
7FC0
4040
7FC0
4F80
4200
5FC0
4A80
7FC0
4880
1980
ENDCHAR
STARTCHAR 555a
ENCODING 23411
SWIDTH 960 0
DWIDTH 10 0
BBX 10 10 0 -2
BITMAP
1100
7FC0
1100
3B80
1F00
0200
7FC0
0400
0C00
0000
ENDCHAR
STARTCHAR 555b
ENCODING 23413
SWIDTH 960 0
DWIDTH 10 0
BBX 10 10 0 -2
BITMAP
2EC0
CB80
AB40
EE00
ABC0
AA40
EFC0
2880
4980
0000
ENDCHAR
STARTCHAR 555c
ENCODING 23416
SWIDTH 960 0
DWIDTH 10 0
BBX 10 10 0 -2
BITMAP
1580
2A80
2480
7FC0
4040
1F00
0200
3F80
0400
0C00
ENDCHAR
STARTCHAR 555e
ENCODING 23418
SWIDTH 960 0
DWIDTH 10 0
BBX 10 10 0 -2
BITMAP
77C0
1100
27C0
2540
3000
67C0
2200
27C0
6540
0000
ENDCHAR
STARTCHAR 555f
ENCODING 23424
SWIDTH 960 0
DWIDTH 10 0
BBX 10 10 0 -2
BITMAP
0000
0000
0400
7FC0
4040
0000
0000
0000
0000
0000
ENDCHAR
STARTCHAR 5560
ENCODING 23427
SWIDTH 960 0
DWIDTH 10 0
BBX 10 10 0 -2
BITMAP
0400
7FC0
4040
1000
1300
1C00
1000
1080
1F80
0000
ENDCHAR
STARTCHAR 4270
ENCODING 23429
SWIDTH 960 0
DWIDTH 10 0
BBX 10 10 0 -2
BITMAP
0400
7FC0
4140
1E00
0800
7F80
0800
0840
0FC0
0000
ENDCHAR
STARTCHAR 3127
ENCODING 23431
SWIDTH 960 0
DWIDTH 10 0
BBX 10 10 0 -2
BITMAP
0400
7FC0
4040
1F00
0400
7FC0
0400
0400
0C00
0000
ENDCHAR
STARTCHAR 3c69
ENCODING 23432
SWIDTH 960 0
DWIDTH 10 0
BBX 10 10 0 -2
BITMAP
0400
7FC0
4240
0200
7FC0
0200
2200
1200
0600
0000
ENDCHAR
STARTCHAR 3042
ENCODING 23433
SWIDTH 960 0
DWIDTH 10 0
BBX 10 10 0 -2
BITMAP
0400
7FC0
4040
0800
7FC0
1100
3200
0E00
71C0
0000
ENDCHAR
STARTCHAR 4157
ENCODING 23435
SWIDTH 960 0
DWIDTH 10 0
BBX 10 10 0 -2
BITMAP
0400
7FC0
4040
0400
3F80
0E00
1500
64C0
0400
0000
ENDCHAR
STARTCHAR 3430
ENCODING 23436
SWIDTH 960 0
DWIDTH 10 0
BBX 10 10 0 -2
BITMAP
0400
7FC0
4040
1F00
0000
7FC0
0A00
1240
63C0
0000
ENDCHAR
STARTCHAR 3c35
ENCODING 23437
SWIDTH 960 0
DWIDTH 10 0
BBX 10 10 0 -2
BITMAP
0400
7FC0
4440
0400
7FC0
0000
0000
1100
2080
0000
ENDCHAR
STARTCHAR 3928
ENCODING 23439
SWIDTH 960 0
DWIDTH 10 0
BBX 10 10 0 -2
BITMAP
0400
7FC0
4840
3F80
0800
1200
1200
2480
4F40
0000
ENDCHAR
STARTCHAR 4566
ENCODING 23445
SWIDTH 960 0
DWIDTH 10 0
BBX 10 10 0 -2
BITMAP
0400
7FC0
4040
3F80
0800
1000
3F80
5080
1F80
0000
ENDCHAR
STARTCHAR 3d21
ENCODING 23447
SWIDTH 960 0
DWIDTH 10 0
BBX 10 10 0 -2
BITMAP
0400
7FC0
4040
1F00
0000
7FC0
0400
2480
4C40
0000
ENDCHAR
STARTCHAR 3431
ENCODING 23448
SWIDTH 960 0
DWIDTH 10 0
BBX 10 10 0 -2
BITMAP
0400
7FC0
4040
1F00
1F00
1000
1F80
1080
1F80
0000
ENDCHAR
STARTCHAR 4368
ENCODING 23449
SWIDTH 960 0
DWIDTH 10 0
BBX 10 10 0 -2
BITMAP
0400
7FC0
4040
0400
3F80
2480
3F80
2480
3F80
0000
ENDCHAR
STARTCHAR 446a
ENCODING 23450
SWIDTH 960 0
DWIDTH 10 0
BBX 10 10 0 -2
BITMAP
0400
7FC0
4040
3F80
0400
1780
1400
3C00
47C0
0000
ENDCHAR
STARTCHAR 3038
ENCODING 23451
SWIDTH 960 0
DWIDTH 10 0
BBX 10 10 0 -2
BITMAP
0400
7FC0
4040
3B80
2A80
5A80
0B80
1240
63C0
0000
ENDCHAR
STARTCHAR 3539
ENCODING 23452
SWIDTH 960 0
DWIDTH 10 0
BBX 10 10 0 -2
BITMAP
0400
7FC0
4040
1F00
1100
1F00
1100
1100
7FC0
0000
ENDCHAR
STARTCHAR 4a75
ENCODING 23453
SWIDTH 960 0
DWIDTH 10 0
BBX 10 10 0 -2
BITMAP
0400
7FC0
4040
3F80
0400
1F00
0500
0480
7FC0
0000
ENDCHAR
STARTCHAR 3c42
ENCODING 23455
SWIDTH 960 0
DWIDTH 10 0
BBX 10 10 0 -2
BITMAP
0400
7FC0
4440
3F80
0400
7FC0
0400
1B00
60C0
0000
ENDCHAR
STARTCHAR 3552
ENCODING 23458
SWIDTH 960 0
DWIDTH 10 0
BBX 10 10 0 -2
BITMAP
0400
7FC0
4040
4F00
1900
2600
1F00
71C0
1F00
0000
ENDCHAR
STARTCHAR 406b
ENCODING 23459
SWIDTH 960 0
DWIDTH 10 0
BBX 10 10 0 -2
BITMAP
0400
7FC0
4040
1F00
0000
1F00
1100
1100
7FC0
0000
ENDCHAR
STARTCHAR 3c3c
ENCODING 23460
SWIDTH 960 0
DWIDTH 10 0
BBX 10 10 0 -2
BITMAP
0400
7FC0
4840
1200
1F00
0400
1F00
0400
7FC0
0000
ENDCHAR
STARTCHAR 4d28
ENCODING 23461
SWIDTH 960 0
DWIDTH 10 0
BBX 10 10 0 -2
BITMAP
0400
7FC0
4840
3F80
1000
3F80
5080
1F80
1080
0000
ENDCHAR
STARTCHAR 5561
ENCODING 23462
SWIDTH 960 0
DWIDTH 10 0
BBX 10 10 0 -2
BITMAP
0400
7FC0
4040
3F80
2400
3F00
2100
3F00
2400
3F80
ENDCHAR
STARTCHAR 355c
ENCODING 23470
SWIDTH 960 0
DWIDTH 10 0
BBX 10 10 0 -2
BITMAP
0400
7FC0
4040
1F00
1F00
0800
3F80
2080
3F80
0000
ENDCHAR
STARTCHAR 3a4b
ENCODING 23472
SWIDTH 960 0
DWIDTH 10 0
BBX 10 10 0 -2
BITMAP
0400
7FC0
4440
1F00
0A00
7FC0
0400
3F80
0400
0000
ENDCHAR
STARTCHAR 3332
ENCODING 23475
SWIDTH 960 0
DWIDTH 10 0
BBX 10 10 0 -2
BITMAP
0400
7FC0
5F40
0400
3F80
0000
1F00
1100
1F00
0000
ENDCHAR
STARTCHAR 3163
ENCODING 23476
SWIDTH 960 0
DWIDTH 10 0
BBX 10 10 0 -2
BITMAP
0400
7FC0
5140
1F00
0800
7FC0
1100
1E00
71C0
0000
ENDCHAR
STARTCHAR 3e2c
ENCODING 23477
SWIDTH 960 0
DWIDTH 10 0
BBX 10 10 0 -2
BITMAP
0400
7FC0
5540
0E00
3F80
2080
3F80
2080
2180
0000
ENDCHAR
STARTCHAR 3248
ENCODING 23478
SWIDTH 960 0
DWIDTH 10 0
BBX 10 10 0 -2
BITMAP
0400
7FC0
4040
3F00
0C40
3680
0B00
72C0
0C00
0000
ENDCHAR
STARTCHAR 5562
ENCODING 23480
SWIDTH 960 0
DWIDTH 10 0
BBX 10 10 0 -2
BITMAP
0400
7FC0
4040
3F80
2000
3F40
2A80
4900
5CC0
0000
ENDCHAR
STARTCHAR 4d46
ENCODING 23481
SWIDTH 960 0
DWIDTH 10 0
BBX 10 10 0 -2
BITMAP
0400
7FC0
5140
2480
0A00
3180
5F40
1100
1F00
0000
ENDCHAR
STARTCHAR 3d49
ENCODING 23487
SWIDTH 960 0
DWIDTH 10 0
BBX 10 10 0 -2
BITMAP
0400
7FC0
4040
1F80
2200
6F80
2880
2880
2F80
0000
ENDCHAR
STARTCHAR 3c64
ENCODING 23490
SWIDTH 960 0
DWIDTH 10 0
BBX 10 10 0 -2
BITMAP
0400
7FC0
5040
1BC0
1140
7D40
1080
5480
5540
0000
ENDCHAR
STARTCHAR 5563
ENCODING 23491
SWIDTH 960 0
DWIDTH 10 0
BBX 10 10 0 -2
BITMAP
0400
7FC0
4E40
1200
3F00
1500
1F00
0A40
73C0
0000
ENDCHAR
STARTCHAR 3473
ENCODING 23492
SWIDTH 960 0
DWIDTH 10 0
BBX 10 10 0 -2
BITMAP
0400
7FC0
4440
1B00
7FC0
0100
3900
3900
0300
0000
ENDCHAR
STARTCHAR 4652
ENCODING 23493
SWIDTH 960 0
DWIDTH 10 0
BBX 10 10 0 -2
BITMAP
0400
7FC0
4040
3F80
0400
1F00
1500
1F00
60C0
0000
ENDCHAR
STARTCHAR 4c29
ENCODING 23494
SWIDTH 960 0
DWIDTH 10 0
BBX 10 10 0 -2
BITMAP
0400
7FC0
4840
0500
5240
1F40
6400
2480
3F80
0000
ENDCHAR
STARTCHAR 5564
ENCODING 23495
SWIDTH 960 0
DWIDTH 10 0
BBX 10 10 0 -2
BITMAP
0400
7FC0
4140
3980
0380
7A80
2900
2A80
4FC0
0000
ENDCHAR
STARTCHAR 5565
ENCODING 23497
SWIDTH 960 0
DWIDTH 10 0
BBX 10 10 0 -2
BITMAP
0400
7FC0
4040
1200
3F80
6400
3F00
2400
3F80
0000
ENDCHAR
STARTCHAR 4959
ENCODING 23500
SWIDTH 960 0
DWIDTH 10 0
BBX 10 10 0 -2
BITMAP
0400
7FC0
5F40
0A00
3F80
2480
3F80
2480
3F80
0000
ENDCHAR
STARTCHAR 5567
ENCODING 23504
SWIDTH 960 0
DWIDTH 10 0
BBX 10 10 0 -2
BITMAP
0400
7FC0
4140
1380
5100
77C0
1380
7540
5100
0000
ENDCHAR
STARTCHAR 3428
ENCODING 23506
SWIDTH 960 0
DWIDTH 10 0
BBX 10 10 0 -2
BITMAP
0400
7FC0
4A40
3F80
0A00
7FC0
1500
68C0
0600
0000
ENDCHAR
STARTCHAR 3677
ENCODING 23507
SWIDTH 960 0
DWIDTH 10 0
BBX 10 10 0 -2
BITMAP
0400
7FC0
5540
1F00
1500
3F80
2480
2E80
2180
0000
ENDCHAR
STARTCHAR 5566
ENCODING 23508
SWIDTH 960 0
DWIDTH 10 0
BBX 10 10 0 -2
BITMAP
0400
7FC0
5F40
1100
7FC0
0400
2780
3400
4FC0
0000
ENDCHAR
STARTCHAR 3432
ENCODING 23515
SWIDTH 960 0
DWIDTH 10 0
BBX 10 10 0 -2
BITMAP
0400
7FC0
4A40
3F80
1100
1100
1F00
0A40
73C0
0000
ENDCHAR
STARTCHAR 3f32
ENCODING 23517
SWIDTH 960 0
DWIDTH 10 0
BBX 10 10 0 -2
BITMAP
0400
7FC0
4040
2780
6080
2FC0
2AC0
6300
2CC0
0000
ENDCHAR
STARTCHAR 556b
ENCODING 23518
SWIDTH 960 0
DWIDTH 10 0
BBX 10 10 0 -2
BITMAP
0400
7FC0
4A40
3F80
1100
1F00
7FC0
0A00
71C0
0000
ENDCHAR
STARTCHAR 3b21
ENCODING 23519
SWIDTH 960 0
DWIDTH 10 0
BBX 10 10 0 -2
BITMAP
0400
7FC0
4040
1B80
2E80
1100
6EC0
0400
2C80
0000
ENDCHAR
STARTCHAR 3249
ENCODING 23521
SWIDTH 960 0
DWIDTH 10 0
BBX 10 10 0 -2
BITMAP
0400
7FC0
5F40
1100
7FC0
2080
5F40
0900
3300
0000
ENDCHAR
STARTCHAR 556a
ENCODING 23522
SWIDTH 960 0
DWIDTH 10 0
BBX 10 10 0 -2
BITMAP
0400
7FC0
4040
1380
54C0
7380
16C0
7100
56C0
0000
ENDCHAR
STARTCHAR 5568
ENCODING 23524
SWIDTH 960 0
DWIDTH 10 0
BBX 10 10 0 -2
BITMAP
0400
7FC0
47C0
1100
5780
7280
17C0
7280
5380
0000
ENDCHAR
STARTCHAR 556c
ENCODING 23525
SWIDTH 960 0
DWIDTH 10 0
BBX 10 10 0 -2
BITMAP
0400
7FC0
4040
3B80
2E80
1A00
6DC0
0300
1C00
0000
ENDCHAR
STARTCHAR 5569
ENCODING 23526
SWIDTH 960 0
DWIDTH 10 0
BBX 10 10 0 -2
BITMAP
0400
7FC0
5F40
3180
1F00
0000
1F00
1F00
2080
0000
ENDCHAR
STARTCHAR 472b
ENCODING 23527
SWIDTH 960 0
DWIDTH 10 0
BBX 10 10 0 -2
BITMAP
0400
7FC0
5240
0D00
3F80
2A80
7FC0
0400
0C00
0000
ENDCHAR
STARTCHAR 5c4d
ENCODING 23528
SWIDTH 960 0
DWIDTH 10 0
BBX 10 10 0 -2
BITMAP
0400
7FC0
5F40
0A00
7FC0
2480
5F40
0E00
3580
0000
ENDCHAR
STARTCHAR 3f33
ENCODING 23529
SWIDTH 960 0
DWIDTH 10 0
BBX 10 10 0 -2
BITMAP
0400
7FC0
4040
3F80
1500
7FC0
3580
5540
1F00
0000
ENDCHAR
STARTCHAR 556d
ENCODING 23531
SWIDTH 960 0
DWIDTH 10 0
BBX 10 10 0 -2
BITMAP
0400
7FC0
4B40
1100
1F00
0800
1FC0
6040
2A80
0000
ENDCHAR
STARTCHAR 4e40
ENCODING 23534
SWIDTH 960 0
DWIDTH 10 0
BBX 10 10 0 -2
BITMAP
0400
7FC0
4440
7FC0
3180
5F40
0400
2480
4C40
0000
ENDCHAR
STARTCHAR 556e
ENCODING 23536
SWIDTH 960 0
DWIDTH 10 0
BBX 10 10 0 -2
BITMAP
0400
7FC0
5540
3F80
1100
1F00
0A40
7180
1CC0
0000
ENDCHAR
STARTCHAR 5570
ENCODING 23539
SWIDTH 960 0
DWIDTH 10 0
BBX 10 10 0 -2
BITMAP
0400
7FC0
4240
3980
1280
3F80
1100
1F00
2080
0000
ENDCHAR
STARTCHAR 437e
ENCODING 23541
SWIDTH 960 0
DWIDTH 10 0
BBX 10 10 0 -2
BITMAP
0400
7FC0
5240
3B80
2880
7B80
2A00
3A40
2BC0
0000
ENDCHAR
STARTCHAR 556f
ENCODING 23542
SWIDTH 960 0
DWIDTH 10 0
BBX 10 10 0 -2
BITMAP
0400
7FC0
4240
3B80
1100
3F80
1100
1F00
2080
0000
ENDCHAR
STARTCHAR 4023
ENCODING 23544
SWIDTH 960 0
DWIDTH 10 0
BBX 10 10 0 -2
BITMAP
0100
0100
7FC0
0100
1100
0900
0100
0100
0300
0000
ENDCHAR
STARTCHAR 3b7b
ENCODING 23546
SWIDTH 960 0
DWIDTH 10 0
BBX 10 10 0 -2
BITMAP
0400
3F80
0400
7FC0
0100
7FC0
0100
1100
0B00
0000
ENDCHAR
STARTCHAR 4250
ENCODING 23550
SWIDTH 960 0
DWIDTH 10 0
BBX 10 10 0 -2
BITMAP
2080
2080
7BC0
1080
5480
2280
2080
5080
0180
0000
ENDCHAR
STARTCHAR 3c77
ENCODING 23551
SWIDTH 960 0
DWIDTH 10 0
BBX 10 10 0 -2
BITMAP
0400
3F80
0400
3F80
0900
7FC0
1100
6D00
0300
0000
ENDCHAR
STARTCHAR 4975
ENCODING 23553
SWIDTH 960 0
DWIDTH 10 0
BBX 10 10 0 -2
BITMAP
2080
7880
27C0
7880
0280
2180
7880
2080
7980
0000
ENDCHAR
STARTCHAR 406c
ENCODING 23554
SWIDTH 960 0
DWIDTH 10 0
BBX 10 10 0 -2
BITMAP
0400
7FC0
2480
2480
3F80
0100
7FC0
0100
1300
0000
ENDCHAR
STARTCHAR 3c4d
ENCODING 23556
SWIDTH 960 0
DWIDTH 10 0
BBX 10 10 0 -2
BITMAP
1080
3880
2FC0
3880
2C80
7A80
1880
2880
5980
0000
ENDCHAR
STARTCHAR 5571
ENCODING 23557
SWIDTH 960 0
DWIDTH 10 0
BBX 10 10 0 -2
BITMAP
2080
7BC0
2080
7A80
4980
7880
3180
5000
5FC0
0000
ENDCHAR
STARTCHAR 3e2d
ENCODING 23558
SWIDTH 960 0
DWIDTH 10 0
BBX 10 10 0 -2
BITMAP
21C0
2E80
6A80
2500
2080
2FC0
6080
2480
2180
0000
ENDCHAR
STARTCHAR 5572
ENCODING 23559
SWIDTH 960 0
DWIDTH 10 0
BBX 10 10 0 -2
BITMAP
51C0
5640
7180
1700
1080
77C0
5080
5280
5180
0000
ENDCHAR
STARTCHAR 5573
ENCODING 23560
SWIDTH 960 0
DWIDTH 10 0
BBX 10 10 0 -2
BITMAP
0400
7FC0
1F00
1580
7F40
0200
7FC0
2200
1600
0000
ENDCHAR
STARTCHAR 3053
ENCODING 23561
SWIDTH 960 0
DWIDTH 10 0
BBX 10 10 0 -2
BITMAP
7880
7880
47C0
7880
4280
7A80
5080
7880
5180
0000
ENDCHAR
STARTCHAR 423a
ENCODING 23562
SWIDTH 960 0
DWIDTH 10 0
BBX 10 10 0 -2
BITMAP
0A00
7FC0
2A80
3180
3F80
0100
7FC0
0100
1300
0000
ENDCHAR
STARTCHAR 3f52
ENCODING 23563
SWIDTH 960 0
DWIDTH 10 0
BBX 10 10 0 -2
BITMAP
1F00
0100
7FC0
1240
7BC0
0100
7FC0
1100
0B00
0000
ENDCHAR
STARTCHAR 5574
ENCODING 23565
SWIDTH 960 0
DWIDTH 10 0
BBX 10 10 0 -2
BITMAP
2880
6C80
7FC0
2880
7A80
1080
7C80
1080
7980
0000
ENDCHAR
STARTCHAR 4633
ENCODING 23566
SWIDTH 960 0
DWIDTH 10 0
BBX 10 10 0 -2
BITMAP
6480
0FC0
6780
2480
5FC0
0100
7FC0
0100
1300
0000
ENDCHAR
STARTCHAR 3e2e
ENCODING 23567
SWIDTH 960 0
DWIDTH 10 0
BBX 10 10 0 -2
BITMAP
0400
0400
0400
2480
2440
4440
4440
0400
0C00
0000
ENDCHAR
STARTCHAR 3e2f
ENCODING 23569
SWIDTH 960 0
DWIDTH 10 0
BBX 10 10 0 -2
BITMAP
0400
0400
2480
2440
4440
0D00
0200
0C00
7000
0000
ENDCHAR
STARTCHAR 5575
ENCODING 23571
SWIDTH 960 0
DWIDTH 10 0
BBX 10 10 0 -2
BITMAP
1000
1000
3FC0
4400
0400
2480
2440
4440
0C00
0000
ENDCHAR
STARTCHAR 406d
ENCODING 23574
SWIDTH 960 0
DWIDTH 10 0
BBX 10 10 0 -2
BITMAP
0400
2580
4C40
0000
0400
7FC0
0400
1B00
60C0
0000
ENDCHAR
STARTCHAR 3e30
ENCODING 23578
SWIDTH 960 0
DWIDTH 10 0
BBX 10 10 0 -2
BITMAP
0400
2480
1500
7FC0
4040
5F40
5140
5F40
40C0
0000
ENDCHAR
STARTCHAR 5576
ENCODING 23584
SWIDTH 960 0
DWIDTH 10 0
BBX 10 10 0 -2
BITMAP
2900
7D00
2B40
3900
2900
7D40
6840
4080
7D00
0000
ENDCHAR
STARTCHAR 5577
ENCODING 23586
SWIDTH 960 0
DWIDTH 10 0
BBX 10 10 0 -2
BITMAP
0400
0400
7FC0
0A00
0A00
1200
1200
2240
43C0
0000
ENDCHAR
STARTCHAR 4c60
ENCODING 23588
SWIDTH 960 0
DWIDTH 10 0
BBX 10 10 0 -2
BITMAP
0500
0480
7FC0
0400
0400
0A00
0A00
1240
63C0
0000
ENDCHAR
STARTCHAR 5578
ENCODING 23592
SWIDTH 960 0
DWIDTH 10 0
BBX 10 10 0 -2
BITMAP
1440
1180
7C40
2980
2800
2840
2980
4840
4FC0
0000
ENDCHAR
STARTCHAR 3646
ENCODING 23597
SWIDTH 960 0
DWIDTH 10 0
BBX 10 10 0 -2
BITMAP
0400
3F80
1500
7FC0
1100
3F80
0A00
1240
63C0
0000
ENDCHAR
STARTCHAR 3d22
ENCODING 23601
SWIDTH 960 0
DWIDTH 10 0
BBX 10 10 0 -2
BITMAP
1140
7900
07C0
7900
4900
7980
1280
5A80
54C0
0000
ENDCHAR
STARTCHAR 5579
ENCODING 23608
SWIDTH 960 0
DWIDTH 10 0
BBX 10 10 0 -2
BITMAP
3FC0
2040
3FC0
2000
2000
2000
2000
4000
4000
0000
ENDCHAR
STARTCHAR 557a
ENCODING 23609
SWIDTH 960 0
DWIDTH 10 0
BBX 10 10 0 -2
BITMAP
1F00
0500
7FC0
0500
1F00
0400
0400
0800
3000
0000
ENDCHAR
STARTCHAR 3c5c
ENCODING 23610
SWIDTH 960 0
DWIDTH 10 0
BBX 10 10 0 -2
BITMAP
3F80
2080
2080
3F80
2400
2400
2200
4100
40C0
0000
ENDCHAR
STARTCHAR 3f2c
ENCODING 23611
SWIDTH 960 0
DWIDTH 10 0
BBX 10 10 0 -2
BITMAP
3F80
2080
3F80
2400
2F00
2500
2500
4940
51C0
0000
ENDCHAR
STARTCHAR 4674
ENCODING 23612
SWIDTH 960 0
DWIDTH 10 0
BBX 10 10 0 -2
BITMAP
3F80
2080
3F80
2000
2800
2980
2E00
4840
4FC0
0000
ENDCHAR
STARTCHAR 3f54
ENCODING 23613
SWIDTH 960 0
DWIDTH 10 0
BBX 10 10 0 -2
BITMAP
3F80
2080
3F80
2100
2080
2E80
4040
4C00
0300
0000
ENDCHAR
STARTCHAR 4878
ENCODING 23614
SWIDTH 960 0
DWIDTH 10 0
BBX 10 10 0 -2
BITMAP
3FC0
2040
3FC0
2200
2F80
2200
2F80
4240
43C0
0000
ENDCHAR
STARTCHAR 4722
ENCODING 23615
SWIDTH 960 0
DWIDTH 10 0
BBX 10 10 0 -2
BITMAP
3F80
2080
3F80
2200
3A40
2B80
2A80
5240
4600
0000
ENDCHAR
STARTCHAR 3649
ENCODING 23616
SWIDTH 960 0
DWIDTH 10 0
BBX 10 10 0 -2
BITMAP
3F80
2080
3F80
2000
3FC0
2040
4E40
4E40
0180
0000
ENDCHAR
STARTCHAR 557b
ENCODING 23617
SWIDTH 960 0
DWIDTH 10 0
BBX 10 10 0 -2
BITMAP
3FC0
2040
3FC0
2900
2940
2F80
2900
4F40
59C0
0000
ENDCHAR
STARTCHAR 356f
ENCODING 23621
SWIDTH 960 0
DWIDTH 10 0
BBX 10 10 0 -2
BITMAP
3FC0
2040
3FC0
2200
3FC0
2200
2F80
4880
0F80
0000
ENDCHAR
STARTCHAR 557c
ENCODING 23622
SWIDTH 960 0
DWIDTH 10 0
BBX 10 10 0 -2
BITMAP
7FC0
4040
7FC0
4200
5740
5240
5740
5040
5FC0
0000
ENDCHAR
STARTCHAR 367e
ENCODING 23624
SWIDTH 960 0
DWIDTH 10 0
BBX 10 10 0 -2
BITMAP
3FC0
2040
3FC0
2200
2A80
2F80
2200
5240
5FC0
0000
ENDCHAR
STARTCHAR 464f
ENCODING 23626
SWIDTH 960 0
DWIDTH 10 0
BBX 10 10 0 -2
BITMAP
3FC0
2040
3FC0
2200
2FC0
2A40
2FC0
4A40
4FC0
0000
ENDCHAR
STARTCHAR 3230
ENCODING 23627
SWIDTH 960 0
DWIDTH 10 0
BBX 10 10 0 -2
BITMAP
3FC0
2040
3FC0
2480
2F80
2240
2F80
4200
5FC0
0000
ENDCHAR
STARTCHAR 3b53
ENCODING 23629
SWIDTH 960 0
DWIDTH 10 0
BBX 10 10 0 -2
BITMAP
3FC0
2040
3FC0
2000
3FC0
2D00
35C0
4D00
59C0
0000
ENDCHAR
STARTCHAR 557d
ENCODING 23630
SWIDTH 960 0
DWIDTH 10 0
BBX 10 10 0 -2
BITMAP
3FC0
2040
3FC0
2A80
2200
2F80
2700
5AC0
4200
0000
ENDCHAR
STARTCHAR 5622
ENCODING 23631
SWIDTH 960 0
DWIDTH 10 0
BBX 10 10 0 -2
BITMAP
3FC0
2040
3FC0
2880
3FC0
2500
3FC0
4500
4900
0000
ENDCHAR
STARTCHAR 5621
ENCODING 23632
SWIDTH 960 0
DWIDTH 10 0
BBX 10 10 0 -2
BITMAP
3FC0
2040
3FC0
33C0
2900
3BC0
2A40
4980
4A40
0000
ENDCHAR
STARTCHAR 367d
ENCODING 23633
SWIDTH 960 0
DWIDTH 10 0
BBX 10 10 0 -2
BITMAP
3FC0
2040
3FC0
2A80
2FC0
2840
2FC0
4840
48C0
0000
ENDCHAR
STARTCHAR 557e
ENCODING 23635
SWIDTH 960 0
DWIDTH 10 0
BBX 10 10 0 -2
BITMAP
3FC0
2040
3FC0
2F80
2880
2F80
2880
4F80
5040
0000
ENDCHAR
STARTCHAR 4538
ENCODING 23637
SWIDTH 960 0
DWIDTH 10 0
BBX 10 10 0 -2
BITMAP
3FC0
2040
3FC0
2500
2F80
2500
3FC0
4980
5CC0
0000
ENDCHAR
STARTCHAR 4230
ENCODING 23646
SWIDTH 960 0
DWIDTH 10 0
BBX 10 10 0 -2
BITMAP
3FC0
2040
3FC0
2F80
2A80
3FC0
5240
5740
10C0
0000
ENDCHAR
STARTCHAR 454b
ENCODING 23648
SWIDTH 960 0
DWIDTH 10 0
BBX 10 10 0 -2
BITMAP
3FC0
2040
3FC0
2240
2F80
2300
2FC0
4C80
5780
0000
ENDCHAR
STARTCHAR 3c48
ENCODING 23649
SWIDTH 960 0
DWIDTH 10 0
BBX 10 10 0 -2
BITMAP
3F80
2080
3F80
2A80
2700
2A80
3DC0
4700
58C0
0000
ENDCHAR
STARTCHAR 4158
ENCODING 23652
SWIDTH 960 0
DWIDTH 10 0
BBX 10 10 0 -2
BITMAP
3FC0
2040
3FC0
2880
3FC0
3240
5FC0
4880
0F80
0000
ENDCHAR
STARTCHAR 4d7a
ENCODING 23653
SWIDTH 960 0
DWIDTH 10 0
BBX 10 10 0 -2
BITMAP
7FC0
4040
7FC0
5100
6BC0
5680
7380
5100
56C0
0000
ENDCHAR
STARTCHAR 5624
ENCODING 23660
SWIDTH 960 0
DWIDTH 10 0
BBX 10 10 0 -2
BITMAP
3FC0
2040
3FC0
2A80
2F80
2400
5FC0
6B40
5E80
0000
ENDCHAR
STARTCHAR 5625
ENCODING 23662
SWIDTH 960 0
DWIDTH 10 0
BBX 10 10 0 -2
BITMAP
0400
2480
2480
2480
3F80
0400
0400
0800
3000
0000
ENDCHAR
STARTCHAR 4656
ENCODING 23663
SWIDTH 960 0
DWIDTH 10 0
BBX 10 10 0 -2
BITMAP
0800
0F00
7800
0800
4900
4900
7F00
0840
0FC0
0000
ENDCHAR
STARTCHAR 3b33
ENCODING 23665
SWIDTH 960 0
DWIDTH 10 0
BBX 10 10 0 -2
BITMAP
0400
0400
4440
4440
4440
4440
4440
4440
7FC0
0000
ENDCHAR
ENDFONT
